NunitoSans-Italic.ufo
<glyph name="exclam" format="2">
  <advance width="228.3855421686747"/>
  <unicode hex="0021"/>
  <outline>
    <contour>
      <point x="80.46987951807229" y="185.96385542168676" type="line"/>
      <point x="130.49397590361446" y="185.96385542168676" type="line"/>
      <point x="237.95180722891567" y="705.0" type="line"/>
      <point x="137.49397590361446" y="705.0" type="line"/>
    </contour>
    <contour>
      <point x="25.012048192771083" y="0.0" type="line"/>
      <point x="127.37349397590361" y="0.0" type="line"/>
      <point x="143.5421686746988" y="102.42168674698794" type="line"/>
      <point x="41.18072289156626" y="102.42168674698794" type="line"/>
    </contour>
  </outline>
</glyph>
<glyph name="numbersign" format="2">
  <advance width="600.0"/>
  <unicode hex="0023"/>
  <outline>
    <contour>
      <point x="48.891566265060234" y="0.0" type="line"/>
      <point x="112.56626506024097" y="0.0" type="line"/>
      <point x="177.27710843373495" y="182.0722891566265" type="line"/>
      <point x="335.6144578313253" y="182.0722891566265" type="line"/>
      <point x="270.90361445783134" y="0.0" type="line"/>
      <point x="334.10843373493975" y="0.0" type="line"/>
      <point x="399.8192771084337" y="182.0722891566265" type="line"/>
      <point x="535.6626506024097" y="182.0722891566265" type="line"/>
      <point x="544.4819277108434" y="240.86746987951807" type="line"/>
      <point x="419.86746987951807" y="240.86746987951807" type="line"/>
      <point x="501.8192771084337" y="472.13253012048193" type="line"/>
      <point x="601.6024096385543" y="472.13253012048193" type="line"/>
      <point x="610.4216867469879" y="531.3975903614457" type="line"/>
      <point x="522.8674698795181" y="531.3975903614457" type="line"/>
      <point x="584.0481927710844" y="705.0" type="line"/>
      <point x="520.3734939759036" y="705.0" type="line"/>
      <point x="459.1927710843373" y="531.3975903614457" type="line"/>
      <point x="299.855421686747" y="531.3975903614457" type="line"/>
      <point x="361.03614457831327" y="705.0" type="line"/>
      <point x="298.3614457831325" y="705.0" type="line"/>
      <point x="236.65060240963854" y="531.3975903614457" type="line"/>
      <point x="100.33734939759036" y="531.3975903614457" type="line"/>
      <point x="91.51807228915662" y="472.13253012048193" type="line"/>
      <point x="216.60240963855424" y="472.13253012048193" type="line"/>
      <point x="134.65060240963857" y="240.86746987951807" type="line"/>
      <point x="34.397590361445786" y="240.86746987951807" type="line"/>
      <point x="25.57831325301205" y="182.0722891566265" type="line"/>
      <point x="114.13253012048193" y="182.0722891566265" type="line"/>
    </contour>
    <contour>
      <point x="197.32530120481925" y="240.86746987951807" type="line"/>
      <point x="279.27710843373495" y="472.13253012048193" type="line"/>
      <point x="438.61445783132535" y="472.13253012048193" type="line"/>
      <point x="356.66265060240966" y="240.86746987951807" type="line"/>
    </contour>
  </outline>
</glyph>
<glyph name="dollar" format="2">
  <advance width="600.0"/>
  <unicode hex="0024"/>
  <outline>
    <contour>
      <point x="218.90361445783134" y="-115.0" type="line"/>
      <point x="287.09638554216866" y="-115.0" type="line"/>
      <point x="307.09638554216866" y="12.349397590361447" type="line"/>
      <point x="289.7469879518072" y="-4.469879518072289" type="line"/>
      <point x="425.6265060240964" y="-2.240963855421686"/>
      <point x="542.0361445783133" y="68.16867469879517"/>
      <point x="542.0361445783133" y="195.74698795180723" type="curve" smooth="yes"/>
      <point x="542.0361445783133" y="285.68674698795184"/>
      <point x="486.68674698795184" y="341.3855421686747"/>
      <point x="360.67469879518075" y="375.566265060241" type="curve" smooth="yes"/>
      <point x="271.6867469879518" y="398.9759036144579" type="line" smooth="yes"/>
      <point x="206.0843373493976" y="416.15662650602405"/>
      <point x="172.25301204819277" y="443.86746987951807"/>
      <point x="172.25301204819277" y="512.3012048192771" type="curve" smooth="yes"/>
      <point x="172.25301204819277" y="592.4457831325302"/>
      <point x="241.97590361445785" y="637.4578313253012"/>
      <point x="351.0" y="637.4578313253012" type="curve" smooth="yes"/>
      <point x="422.8915662650602" y="637.4578313253012"/>
      <point x="492.7710843373494" y="615.8072289156626"/>
      <point x="551.7710843373493" y="555.9156626506024" type="curve"/>
      <point x="585.5783132530121" y="617.6385542168674" type="line"/>
      <point x="538.6385542168674" y="666.4698795180723"/>
      <point x="474.9879518072289" y="695.5903614457832"/>
      <point x="408.7469879518072" y="705.5301204819277" type="curve"/>
      <point x="414.6265060240964" y="697.0602409638554" type="line"/>
      <point x="435.09638554216866" y="820.0" type="line"/>
      <point x="366.90361445783134" y="820.0" type="line"/>
      <point x="347.43373493975906" y="698.5903614457832" type="line"/>
      <point x="358.1927710843373" y="709.9397590361446" type="line"/>
      <point x="209.66265060240963" y="712.1807228915662"/>
      <point x="89.25301204819277" y="639.421686746988"/>
      <point x="89.25301204819277" y="506.6626506024096" type="curve" smooth="yes"/>
      <point x="89.25301204819277" y="404.48192771084337"/>
      <point x="148.72289156626505" y="353.3734939759036"/>
      <point x="241.5421686746988" y="328.90361445783134" type="curve" smooth="yes"/>
      <point x="330.5301204819277" y="305.49397590361446" type="line" smooth="yes"/>
      <point x="427.7951807228916" y="279.6024096385542"/>
      <point x="459.03614457831327" y="247.7710843373494"/>
      <point x="459.03614457831327" y="187.51807228915663" type="curve" smooth="yes"/>
      <point x="459.03614457831327" y="109.49397590361446"/>
      <point x="384.13253012048193" y="67.5421686746988"/>
      <point x="288.93975903614455" y="67.5421686746988" type="curve" smooth="yes"/>
      <point x="196.9277108433735" y="67.5421686746988"/>
      <point x="127.87951807228916" y="87.01204819277109"/>
      <point x="55.53012048192771" y="145.72289156626505" type="curve"/>
      <point x="22.192771084337352" y="80.65060240963855" type="line"/>
      <point x="83.66265060240964" y="25.40963855421687"/>
      <point x="161.6024096385542" y="0.9397590361445785"/>
      <point x="251.25301204819277" y="-4.46987951807229" type="curve"/>
      <point x="238.90361445783134" y="11.289156626506024" type="line"/>
    </contour>
  </outline>
</glyph>
<glyph name="percent" format="2">
  <advance width="929.6265060240964"/>
  <unicode hex="0025"/>
  <outline>
    <contour>
      <point x="245.67469879518072" y="-26.228915662650603" type="line"/>
      <point x="770.2168674698795" y="692.1927710843373" type="line"/>
      <point x="718.4819277108434" y="729.8192771084338" type="line"/>
      <point x="193.93975903614458" y="11.397590361445785" type="line"/>
    </contour>
    <contour>
      <point x="239.4698795180723" y="281.5301204819277" type="curve" smooth="yes"/>
      <point x="371.06024096385545" y="281.5301204819277"/>
      <point x="442.0" y="401.30120481927713"/>
      <point x="442.0" y="550.2409638554217" type="curve" smooth="yes"/>
      <point x="442.0" y="650.710843373494"/>
      <point x="386.65060240963857" y="712.5301204819277"/>
      <point x="294.1927710843373" y="712.5301204819277" type="curve" smooth="yes"/>
      <point x="162.60240963855424" y="712.5301204819277"/>
      <point x="91.66265060240964" y="591.3493975903615"/>
      <point x="91.66265060240964" y="443.34939759036143" type="curve" smooth="yes"/>
      <point x="91.66265060240964" y="342.87951807228916"/>
      <point x="147.0120481927711" y="281.5301204819277"/>
    </contour>
    <contour>
      <point x="239.4698795180723" y="338.73493975903614" type="curve" smooth="yes"/>
      <point x="191.86746987951807" y="338.73493975903614"/>
      <point x="158.85542168674698" y="370.68674698795184"/>
      <point x="161.3855421686747" y="447.0" type="curve" smooth="yes"/>
      <point x="164.44578313253012" y="560.0240963855422"/>
      <point x="206.98795180722894" y="654.855421686747"/>
      <point x="294.1927710843373" y="654.855421686747" type="curve" smooth="yes"/>
      <point x="341.7951807228916" y="654.855421686747"/>
      <point x="374.8072289156626" y="622.9036144578313"/>
      <point x="372.2771084337349" y="546.5903614457831" type="curve" smooth="yes"/>
      <point x="369.2168674698795" y="434.0361445783132"/>
      <point x="326.67469879518075" y="338.73493975903614"/>
    </contour>
    <contour>
      <point x="669.9638554216867" y="-8.939759036144578" type="curve" smooth="yes"/>
      <point x="801.5542168674699" y="-8.939759036144578"/>
      <point x="872.0240963855422" y="110.83132530120481"/>
      <point x="872.0240963855422" y="259.7710843373494" type="curve" smooth="yes"/>
      <point x="872.0240963855422" y="360.24096385542174"/>
      <point x="816.6746987951807" y="422.06024096385545"/>
      <point x="724.2168674698795" y="422.06024096385545" type="curve" smooth="yes"/>
      <point x="593.0963855421687" y="422.06024096385545"/>
      <point x="522.1566265060242" y="300.87951807228916"/>
      <point x="522.1566265060242" y="152.87951807228916" type="curve" smooth="yes"/>
      <point x="522.1566265060242" y="52.87951807228916"/>
      <point x="577.0361445783133" y="-8.939759036144578"/>
    </contour>
    <contour>
      <point x="669.4939759036145" y="48.734939759036145" type="curve" smooth="yes"/>
      <point x="621.8915662650603" y="48.734939759036145"/>
      <point x="589.3493975903615" y="80.6867469879518"/>
      <point x="591.4096385542168" y="157.0" type="curve" smooth="yes"/>
      <point x="594.4698795180723" y="269.55421686746985"/>
      <point x="637.0120481927711" y="364.855421686747"/>
      <point x="724.6867469879518" y="364.855421686747" type="curve" smooth="yes"/>
      <point x="772.289156626506" y="364.855421686747"/>
      <point x="804.8313253012049" y="332.90361445783134"/>
      <point x="802.7710843373494" y="256.5903614457832" type="curve" smooth="yes"/>
      <point x="799.710843373494" y="143.56626506024097"/>
      <point x="757.1686746987951" y="48.734939759036145"/>
    </contour>
  </outline>
</glyph>
<glyph name="ampersand" format="2">
  <advance width="693.1325301204819"/>
  <unicode hex="0026"/>
  <outline>
    <contour>
      <point x="252.80722891566265" y="-8.939759036144578" type="curve" smooth="yes"/>
      <point x="352.6385542168675" y="-8.939759036144578"/>
      <point x="435.10843373493975" y="31.240963855421686"/>
      <point x="496.92771084337346" y="100.60240963855422" type="curve"/>
      <point x="476.1686746987952" y="101.07228915662651" type="line"/>
      <point x="550.8192771084337" y="0.0" type="line"/>
      <point x="644.8674698795181" y="0.0" type="line"/>
      <point x="525.0722891566265" y="156.21686746987953" type="line"/>
      <point x="526.722891566265" y="132.10843373493975" type="line"/>
      <point x="583.8915662650602" y="203.9879518072289"/>
      <point x="625.6506024096385" y="302.33734939759034"/>
      <point x="645.1807228915662" y="412.9277108433735" type="curve"/>
      <point x="574.578313253012" y="412.9277108433735" type="line"/>
      <point x="557.578313253012" y="323.9759036144578"/>
      <point x="524.9277108433735" y="239.96385542168676"/>
      <point x="483.9277108433735" y="184.96385542168676" type="curve"/>
      <point x="499.4457831325301" y="184.96385542168676" type="line"/>
      <point x="345.2530120481928" y="394.5903614457831" type="line"/>
      <point x="343.2530120481928" y="372.54216867469876" type="line"/>
      <point x="446.7349397590362" y="432.0240963855422"/>
      <point x="527.3734939759036" y="488.07228915662654"/>
      <point x="527.3734939759036" y="585.0120481927711" type="curve" smooth="yes"/>
      <point x="527.3734939759036" y="661.1807228915662"/>
      <point x="470.85542168674704" y="713.9397590361446"/>
      <point x="383.86746987951807" y="713.9397590361446" type="curve" smooth="yes"/>
      <point x="270.5903614457832" y="713.9397590361446"/>
      <point x="192.78313253012047" y="642.4216867469879"/>
      <point x="192.78313253012047" y="538.3734939759036" type="curve" smooth="yes"/>
      <point x="192.78313253012047" y="494.433734939759"/>
      <point x="210.78313253012047" y="444.84337349397595"/>
      <point x="255.49397590361446" y="387.8313253012048" type="curve"/>
      <point x="267.95180722891564" y="405.28915662650604" type="line"/>
      <point x="232.01204819277106" y="385.289156626506" type="line" smooth="yes"/>
      <point x="142.55421686746988" y="335.5301204819277"/>
      <point x="48.71084337349398" y="258.4096385542169"/>
      <point x="48.71084337349398" y="148.10843373493978" type="curve" smooth="yes"/>
      <point x="48.71084337349398" y="51.75903614457831"/>
      <point x="127.40963855421687" y="-8.939759036144578"/>
    </contour>
    <contour>
      <point x="260.144578313253" y="58.25301204819277" type="curve" smooth="yes"/>
      <point x="174.5421686746988" y="58.25301204819277"/>
      <point x="129.71084337349396" y="93.49397590361446"/>
      <point x="129.71084337349396" y="157.6265060240964" type="curve" smooth="yes"/>
      <point x="129.71084337349396" y="238.04819277108433"/>
      <point x="191.95180722891564" y="288.5903614457831"/>
      <point x="273.6265060240964" y="336.37349397590367" type="curve" smooth="yes"/>
      <point x="306.7469879518072" y="355.49397590361446" type="line"/>
      <point x="278.3614457831325" y="358.8433734939759" type="line"/>
      <point x="453.0722891566265" y="126.75903614457832" type="line"/>
      <point x="456.95180722891564" y="152.3975903614458" type="line"/>
      <point x="406.2409638554217" y="90.67469879518072"/>
      <point x="343.578313253012" y="58.25301204819277"/>
    </contour>
    <contour>
      <point x="380.04819277108436" y="651.4457831325301" type="curve" smooth="yes"/>
      <point x="426.93975903614455" y="651.4457831325301"/>
      <point x="456.83132530120486" y="623.9036144578313"/>
      <point x="456.83132530120486" y="581.0120481927711" type="curve" smooth="yes"/>
      <point x="456.83132530120486" y="522.8915662650602"/>
      <point x="414.95180722891564" y="482.89156626506025"/>
      <point x="304.21686746987956" y="421.7469879518072" type="curve"/>
      <point x="323.91566265060237" y="421.4578313253012" type="line"/>
      <point x="281.55421686746985" y="478.5903614457832"/>
      <point x="269.5542168674699" y="505.7710843373494"/>
      <point x="269.5542168674699" y="545.1927710843373" type="curve" smooth="yes"/>
      <point x="269.5542168674699" y="605.9638554216867"/>
      <point x="313.50602409638554" y="651.4457831325301"/>
    </contour>
  </outline>
</glyph>
<glyph name="quotesingle" format="2">
  <advance width="220.79518072289156"/>
  <unicode hex="0027"/>
  <outline>
    <contour>
      <point x="113.36144578313252" y="428.2530120481928" type="line"/>
      <point x="167.67469879518072" y="428.2530120481928" type="line"/>
      <point x="231.48192771084337" y="705.0" type="line"/>
      <point x="135.7831325301205" y="705.0" type="line"/>
    </contour>
  </outline>
</glyph>
<glyph name="parenleft" format="2">
  <advance width="316.710843373494"/>
  <unicode hex="0028"/>
  <outline>
    <contour>
      <point x="153.27710843373495" y="-192.34939759036143" type="curve"/>
      <point x="213.1807228915663" y="-170.0120481927711" type="line"/>
      <point x="195.5301204819277" y="-73.13253012048193"/>
      <point x="185.4698795180723" y="13.879518072289159"/>
      <point x="185.4698795180723" y="99.06024096385542" type="curve" smooth="yes"/>
      <point x="185.4698795180723" y="326.5903614457832"/>
      <point x="250.12048192771084" y="516.1927710843373"/>
      <point x="353.24096385542174" y="690.5421686746988" type="curve"/>
      <point x="295.8072289156626" y="718.3493975903615" type="line"/>
      <point x="179.2289156626506" y="567.5180722891566"/>
      <point x="99.18072289156626" y="348.1566265060241"/>
      <point x="99.18072289156626" y="119.3855421686747" type="curve" smooth="yes"/>
      <point x="99.18072289156626" y="17.277108433734938"/>
      <point x="117.93975903614458" y="-89.12048192771084"/>
    </contour>
  </outline>
</glyph>
<glyph name="parenright" format="2">
  <advance width="316.710843373494"/>
  <unicode hex="0029"/>
  <outline>
    <contour>
      <point x="26.903614457831324" y="-192.34939759036143" type="line"/>
      <point x="143.95180722891567" y="-41.51807228915662"/>
      <point x="224.0" y="177.8433734939759"/>
      <point x="224.0" y="406.6144578313253" type="curve" smooth="yes"/>
      <point x="224.0" y="509.1927710843373"/>
      <point x="205.24096385542168" y="615.1204819277108"/>
      <point x="169.43373493975903" y="718.3493975903615" type="curve"/>
      <point x="109.53012048192771" y="696.0120481927711" type="line"/>
      <point x="127.65060240963854" y="599.1325301204819"/>
      <point x="137.71084337349396" y="512.5903614457832"/>
      <point x="137.71084337349396" y="426.93975903614455" type="curve" smooth="yes"/>
      <point x="137.71084337349396" y="199.87951807228916"/>
      <point x="73.06024096385542" y="10.277108433734938"/>
      <point x="-30.53012048192771" y="-164.54216867469881" type="curve"/>
    </contour>
  </outline>
</glyph>
<glyph name="asterisk" format="2">
  <advance width="449.87951807228916"/>
  <unicode hex="002A"/>
  <outline>
    <contour>
      <point x="200.9879518072289" y="353.3734939759036" type="line"/>
      <point x="276.3493975903615" y="497.96385542168673" type="line"/>
      <point x="266.1204819277109" y="497.96385542168673" type="line"/>
      <point x="340.4819277108434" y="353.90361445783134" type="line"/>
      <point x="393.68674698795184" y="384.65060240963857" type="line"/>
      <point x="305.27710843373495" y="525.8313253012049" type="line"/>
      <point x="294.1084337349398" y="509.90361445783134" type="line"/>
      <point x="462.7590361445783" y="503.5542168674699" type="line"/>
      <point x="462.7590361445783" y="565.1084337349398" type="line"/>
      <point x="294.1084337349398" y="558.289156626506" type="line"/>
      <point x="305.27710843373495" y="543.3614457831326" type="line"/>
      <point x="393.68674698795184" y="684.0722891566265" type="line"/>
      <point x="340.4819277108434" y="715.289156626506" type="line"/>
      <point x="266.1204819277109" y="571.1686746987951" type="line"/>
      <point x="276.3493975903615" y="571.1686746987951" type="line"/>
      <point x="201.4578313253012" y="715.289156626506" type="line"/>
      <point x="148.25301204819277" y="684.5421686746988" type="line"/>
      <point x="237.19277108433735" y="542.8915662650602" type="line"/>
      <point x="247.83132530120483" y="558.289156626506" type="line"/>
      <point x="79.71084337349397" y="565.1084337349398" type="line"/>
      <point x="79.71084337349397" y="503.5542168674699" type="line"/>
      <point x="247.83132530120483" y="509.90361445783134" type="line"/>
      <point x="236.72289156626505" y="525.8313253012049" type="line"/>
      <point x="147.78313253012047" y="384.65060240963857" type="line"/>
    </contour>
  </outline>
</glyph>
<glyph name="plus" format="2">
  <advance width="600.0"/>
  <unicode hex="002B"/>
  <outline>
    <contour>
      <point x="235.7831325301205" y="40.0" type="line"/>
      <point x="299.7469879518072" y="40.0" type="line"/>
      <point x="333.86746987951807" y="255.72289156626505" type="line"/>
      <point x="546.1204819277109" y="255.72289156626505" type="line"/>
      <point x="555.8795180722891" y="317.7469879518072" type="line"/>
      <point x="343.6265060240964" y="317.7469879518072" type="line"/>
      <point x="376.7469879518072" y="528.0" type="line"/>
      <point x="312.7831325301205" y="528.0" type="line"/>
      <point x="279.66265060240966" y="317.7469879518072" type="line"/>
      <point x="67.87951807228916" y="317.7469879518072" type="line"/>
      <point x="58.12048192771084" y="255.72289156626505" type="line"/>
      <point x="269.90361445783134" y="255.72289156626505" type="line"/>
    </contour>
  </outline>
</glyph>
<glyph name="comma" format="2">
  <advance width="228.3855421686747"/>
  <unicode hex="002C"/>
  <outline>
    <contour>
      <point x="53.10843373493975" y="-114.44578313253012" type="line"/>
      <point x="105.73493975903614" y="-71.57831325301206"/>
      <point x="121.37349397590361" y="-33.06024096385542"/>
      <point x="130.25301204819277" y="21.68674698795181" type="curve" smooth="yes"/>
      <point x="143.0722891566265" y="102.42168674698794" type="line"/>
      <point x="40.71084337349397" y="102.42168674698794" type="line"/>
      <point x="24.542168674698793" y="0.0" type="line"/>
      <point x="97.62650602409639" y="0.0" type="line"/>
      <point x="75.39759036144578" y="16.80722891566265" type="line"/>
      <point x="69.51807228915662" y="-18.120481927710845"/>
      <point x="59.34939759036145" y="-42.93975903614458"/>
      <point x="20.240963855421683" y="-79.16867469879517" type="curve"/>
    </contour>
  </outline>
</glyph>
<glyph name="hyphen" format="2">
  <advance width="424.4578313253012"/>
  <unicode hex="002D"/>
  <outline>
    <contour>
      <point x="70.89156626506023" y="232.8433734939759" type="line"/>
      <point x="350.86746987951807" y="232.8433734939759" type="line"/>
      <point x="361.56626506024094" y="299.50602409638554" type="line"/>
      <point x="81.59036144578313" y="299.50602409638554" type="line"/>
    </contour>
  </outline>
</glyph>
<glyph name="period" format="2">
  <advance width="228.3855421686747"/>
  <unicode hex="002E"/>
  <outline>
    <contour>
      <point x="24.542168674698793" y="0.0" type="line"/>
      <point x="126.90361445783132" y="0.0" type="line"/>
      <point x="143.0722891566265" y="102.42168674698794" type="line"/>
      <point x="40.71084337349397" y="102.42168674698794" type="line"/>
    </contour>
  </outline>
</glyph>
<glyph name="slash" format="2">
  <advance width="282.7831325301205"/>
  <unicode hex="002F"/>
  <outline>
    <contour>
      <point x="-4.0361445783132535" y="-65.04819277108435" type="line"/>
      <point x="375.7831325301205" y="724.1807228915662" type="line"/>
      <point x="316.3493975903614" y="753.0481927710844" type="line"/>
      <point x="-62.46987951807229" y="-36.18072289156626" type="line"/>
    </contour>
  </outline>
</glyph>
<glyph name="zero" format="2">
  <advance width="600.0"/>
  <unicode hex="0030"/>
  <outline>
    <contour>
      <point x="288.5301204819277" y="-8.939759036144578" type="curve" smooth="yes"/>
      <point x="460.1686746987952" y="-8.939759036144578"/>
      <point x="568.3975903614457" y="167.06024096385545"/>
      <point x="568.3975903614457" y="455.77108433734935" type="curve" smooth="yes"/>
      <point x="568.3975903614457" y="622.5903614457832"/>
      <point x="492.1686746987952" y="713.9397590361446"/>
      <point x="347.0" y="713.9397590361446" type="curve" smooth="yes"/>
      <point x="175.36144578313255" y="713.9397590361446"/>
      <point x="66.60240963855422" y="537.9397590361446"/>
      <point x="66.60240963855422" y="250.16867469879514" type="curve" smooth="yes"/>
      <point x="66.60240963855422" y="82.40963855421687"/>
      <point x="143.36144578313255" y="-8.939759036144578"/>
    </contour>
    <contour>
      <point x="292.93975903614455" y="62.13253012048193" type="curve" smooth="yes"/>
      <point x="195.32530120481928" y="62.13253012048193"/>
      <point x="148.72289156626508" y="118.20481927710844"/>
      <point x="148.72289156626508" y="231.22891566265056" type="curve" smooth="yes"/>
      <point x="148.72289156626508" y="499.37349397590367"/>
      <point x="224.73493975903614" y="642.8674698795181"/>
      <point x="342.5903614457831" y="642.8674698795181" type="curve" smooth="yes"/>
      <point x="440.2048192771084" y="642.8674698795181"/>
      <point x="486.7469879518072" y="586.7951807228915"/>
      <point x="486.27710843373495" y="474.2409638554217" type="curve" smooth="yes"/>
      <point x="485.3373493975904" y="205.6265060240964"/>
      <point x="410.7951807228916" y="62.13253012048193"/>
    </contour>
  </outline>
</glyph>
<glyph name="one" format="2">
  <advance width="600.0"/>
  <unicode hex="0031"/>
  <outline>
    <contour>
      <point x="85.90361445783132" y="0.0" type="line"/>
      <point x="479.49397590361446" y="0.0" type="line"/>
      <point x="490.6626506024096" y="70.48192771084338" type="line"/>
      <point x="340.0722891566265" y="70.48192771084338" type="line"/>
      <point x="440.90361445783134" y="705.0" type="line"/>
      <point x="382.24096385542174" y="705.0" type="line"/>
      <point x="179.2168674698795" y="587.4819277108434" type="line"/>
      <point x="207.02409638554218" y="522.8795180722892" type="line"/>
      <point x="394.65060240963857" y="630.698795180723" type="line"/>
      <point x="347.32530120481925" y="634.6385542168675" type="line"/>
      <point x="257.6626506024096" y="70.48192771084338" type="line"/>
      <point x="97.07228915662651" y="70.48192771084338" type="line"/>
    </contour>
  </outline>
</glyph>
<glyph name="two" format="2">
  <advance width="600.0"/>
  <unicode hex="0032"/>
  <outline>
    <contour>
      <point x="56.13253012048193" y="0.0" type="line"/>
      <point x="500.51807228915663" y="0.0" type="line"/>
      <point x="511.6867469879518" y="70.48192771084338" type="line"/>
      <point x="147.36144578313252" y="70.48192771084338" type="line"/>
      <point x="148.89156626506025" y="46.024096385542165" type="line"/>
      <point x="389.9879518072289" y="266.71084337349396" type="line" smooth="yes"/>
      <point x="483.9277108433735" y="351.7710843373494"/>
      <point x="556.1084337349397" y="435.0722891566265"/>
      <point x="556.1084337349397" y="548.421686746988" type="curve" smooth="yes"/>
      <point x="556.1084337349397" y="645.710843373494"/>
      <point x="479.4096385542169" y="713.9397590361446"/>
      <point x="359.7710843373494" y="713.9397590361446" type="curve" smooth="yes"/>
      <point x="270.3614457831326" y="713.9397590361446"/>
      <point x="188.54216867469881" y="680.7590361445783"/>
      <point x="123.78313253012048" y="625.1084337349397" type="curve"/>
      <point x="152.18072289156626" y="560.4457831325301" type="line"/>
      <point x="214.30120481927713" y="611.7469879518072"/>
      <point x="278.5421686746988" y="641.4578313253012"/>
      <point x="347.49397590361446" y="641.4578313253012" type="curve" smooth="yes"/>
      <point x="427.27710843373495" y="641.4578313253012"/>
      <point x="473.10843373493975" y="603.0361445783133"/>
      <point x="473.10843373493975" y="537.9638554216867" type="curve" smooth="yes"/>
      <point x="473.10843373493975" y="458.65060240963857"/>
      <point x="418.0361445783132" y="389.86746987951807"/>
      <point x="341.20481927710847" y="318.50602409638554" type="curve" smooth="yes"/>
      <point x="65.83132530120483" y="61.60240963855422" type="line"/>
    </contour>
  </outline>
</glyph>
<glyph name="three" format="2">
  <advance width="600.0"/>
  <unicode hex="0033"/>
  <outline>
    <contour>
      <point x="277.5903614457831" y="-8.939759036144578" type="curve" smooth="yes"/>
      <point x="416.0361445783132" y="-8.939759036144578"/>
      <point x="517.6867469879518" y="80.16867469879519"/>
      <point x="517.6867469879518" y="204.46987951807228" type="curve" smooth="yes"/>
      <point x="517.6867469879518" y="283.34939759036143"/>
      <point x="471.7469879518072" y="345.8192771084337"/>
      <point x="386.27710843373495" y="364.87951807228916" type="curve"/>
      <point x="385.7469879518072" y="353.93975903614455" type="line"/>
      <point x="482.7469879518072" y="371.9397590361446"/>
      <point x="552.7469879518071" y="446.1807228915663"/>
      <point x="552.2771084337348" y="543.2409638554217" type="curve" smooth="yes"/>
      <point x="551.8072289156626" y="638.3012048192771"/>
      <point x="479.7469879518072" y="713.9397590361446"/>
      <point x="354.18072289156623" y="713.9397590361446" type="curve" smooth="yes"/>
      <point x="268.7710843373494" y="713.9397590361446"/>
      <point x="180.0120481927711" y="683.8192771084338"/>
      <point x="117.8433734939759" y="625.6385542168674" type="curve"/>
      <point x="146.710843373494" y="561.9759036144578" type="line"/>
      <point x="205.7710843373494" y="616.3373493975904"/>
      <point x="276.421686746988" y="641.4578313253012"/>
      <point x="345.66265060240966" y="641.4578313253012" type="curve" smooth="yes"/>
      <point x="420.7951807228916" y="641.4578313253012"/>
      <point x="470.68674698795184" y="598.9156626506024"/>
      <point x="470.68674698795184" y="533.7831325301205" type="curve" smooth="yes"/>
      <point x="470.68674698795184" y="445.81927710843377"/>
      <point x="397.433734939759" y="392.56626506024094"/>
      <point x="305.65060240963857" y="392.56626506024094" type="curve" smooth="yes"/>
      <point x="209.95180722891567" y="392.56626506024094" type="line"/>
      <point x="199.25301204819277" y="322.0843373493976" type="line"/>
      <point x="299.7710843373494" y="322.0843373493976" type="line" smooth="yes"/>
      <point x="387.5542168674699" y="322.0843373493976"/>
      <point x="436.09638554216866" y="276.95180722891564"/>
      <point x="436.09638554216866" y="208.22891566265062" type="curve" smooth="yes"/>
      <point x="436.09638554216866" y="117.73493975903614"/>
      <point x="366.90361445783134" y="63.5421686746988"/>
      <point x="277.5903614457831" y="63.5421686746988" type="curve" smooth="yes"/>
      <point x="199.93975903614458" y="63.5421686746988"/>
      <point x="136.4698795180723" y="79.01204819277109"/>
      <point x="69.6987951807229" y="138.43373493975906" type="curve"/>
      <point x="33.5421686746988" y="77.18072289156626" type="line"/>
      <point x="98.13253012048193" y="12.999999999999998"/>
      <point x="191.7710843373494" y="-8.939759036144578"/>
    </contour>
  </outline>
</glyph>
<glyph name="four" format="2">
  <advance width="600.0"/>
  <unicode hex="0034"/>
  <outline>
    <contour>
      <point x="338.56626506024094" y="0.0" type="line"/>
      <point x="420.9759036144578" y="0.0" type="line"/>
      <point x="445.1566265060241" y="150.96385542168676" type="line"/>
      <point x="549.5783132530121" y="150.96385542168676" type="line"/>
      <point x="559.8072289156627" y="221.44578313253012" type="line"/>
      <point x="455.3855421686747" y="221.44578313253012" type="line"/>
      <point x="532.0361445783133" y="705.0" type="line"/>
      <point x="463.67469879518075" y="705.0" type="line"/>
      <point x="45.95180722891566" y="212.6265060240964" type="line"/>
      <point x="36.722891566265055" y="150.96385542168676" type="line"/>
      <point x="362.7469879518072" y="150.96385542168676" type="line"/>
    </contour>
    <contour>
      <point x="373.4457831325301" y="221.44578313253012" type="line"/>
      <point x="116.855421686747" y="221.44578313253012" type="line"/>
      <point x="114.44578313253012" y="199.63855421686748" type="line"/>
      <point x="458.9879518072289" y="606.0722891566265" type="line"/>
      <point x="434.578313253012" y="606.0722891566265" type="line"/>
    </contour>
  </outline>
</glyph>
<glyph name="five" format="2">
  <advance width="600.0"/>
  <unicode hex="0035"/>
  <outline>
    <contour>
      <point x="287.30120481927713" y="-8.939759036144578" type="curve" smooth="yes"/>
      <point x="426.8192771084337" y="-8.939759036144578"/>
      <point x="544.867469879518" y="90.59036144578313"/>
      <point x="544.867469879518" y="241.16867469879517" type="curve" smooth="yes"/>
      <point x="544.867469879518" y="372.65060240963857"/>
      <point x="458.9759036144579" y="441.10843373493975"/>
      <point x="353.9879518072289" y="441.10843373493975" type="curve" smooth="yes"/>
      <point x="285.09638554216866" y="441.10843373493975"/>
      <point x="214.20481927710844" y="409.8072289156627"/>
      <point x="172.20481927710844" y="354.32530120481925" type="curve"/>
      <point x="196.19277108433735" y="354.32530120481925" type="line"/>
      <point x="240.67469879518072" y="634.5180722891566" type="line"/>
      <point x="568.289156626506" y="634.5180722891566" type="line"/>
      <point x="578.9879518072289" y="705.0" type="line"/>
      <point x="170.8433734939759" y="705.0" type="line"/>
      <point x="103.96385542168674" y="285.5421686746988" type="line"/>
      <point x="163.98795180722894" y="285.5421686746988" type="line"/>
      <point x="209.75903614457832" y="338.144578313253"/>
      <point x="263.5301204819277" y="370.03614457831327"/>
      <point x="331.1927710843373" y="370.03614457831327" type="curve" smooth="yes"/>
      <point x="412.44578313253015" y="370.03614457831327"/>
      <point x="463.27710843373495" y="314.7831325301205"/>
      <point x="463.27710843373495" y="234.4698795180723" type="curve" smooth="yes"/>
      <point x="463.27710843373495" y="135.44578313253012"/>
      <point x="386.55421686746985" y="63.5421686746988"/>
      <point x="287.3012048192771" y="63.5421686746988" type="curve" smooth="yes"/>
      <point x="216.5301204819277" y="63.5421686746988"/>
      <point x="160.06024096385542" y="79.01204819277109"/>
      <point x="95.34939759036145" y="138.43373493975906" type="curve"/>
      <point x="59.72289156626506" y="77.18072289156626" type="line"/>
      <point x="121.25301204819279" y="12.999999999999998"/>
      <point x="207.89156626506022" y="-8.939759036144578"/>
    </contour>
  </outline>
</glyph>
<glyph name="six" format="2">
  <advance width="600.0"/>
  <unicode hex="0036"/>
  <outline>
    <contour>
      <point x="306.28915662650604" y="-8.939759036144578" type="curve" smooth="yes"/>
      <point x="443.92771084337346" y="-8.939759036144578"/>
      <point x="545.3975903614457" y="99.87951807228916"/>
      <point x="545.3975903614457" y="243.57831325301206" type="curve" smooth="yes"/>
      <point x="545.3975903614457" y="355.10843373493975"/>
      <point x="465.2168674698795" y="441.92771084337346"/>
      <point x="351.62650602409633" y="441.92771084337346" type="curve" smooth="yes"/>
      <point x="254.67469879518072" y="441.92771084337346"/>
      <point x="159.49397590361446" y="375.9759036144578"/>
      <point x="142.3132530120482" y="267.7831325301205" type="curve"/>
      <point x="151.72289156626508" y="267.7831325301205" type="line"/>
      <point x="154.13253012048193" y="297.07228915662654" type="line" smooth="yes"/>
      <point x="164.54216867469881" y="509.2409638554217"/>
      <point x="255.32530120481925" y="641.4578313253012"/>
      <point x="393.87951807228916" y="641.4578313253012" type="curve" smooth="yes"/>
      <point x="456.12048192771084" y="641.4578313253012"/>
      <point x="513.7710843373494" y="616.8072289156627"/>
      <point x="562.3012048192771" y="563.9156626506024" type="curve"/>
      <point x="598.9277108433735" y="624.698795180723" type="line"/>
      <point x="548.6987951807229" y="681.7590361445783"/>
      <point x="474.6385542168675" y="713.9397590361446"/>
      <point x="399.81927710843377" y="713.9397590361446" type="curve" smooth="yes"/>
      <point x="187.93975903614458" y="713.9397590361446"/>
      <point x="75.13253012048193" y="511.26506024096386"/>
      <point x="75.13253012048193" y="252.16867469879517" type="curve" smooth="yes"/>
      <point x="75.13253012048193" y="91.40963855421687"/>
      <point x="163.95180722891567" y="-8.939759036144578"/>
    </contour>
    <contour>
      <point x="302.34939759036143" y="60.72289156626506" type="curve" smooth="yes"/>
      <point x="224.09638554216866" y="60.72289156626506"/>
      <point x="166.43373493975903" y="115.79518072289157"/>
      <point x="166.43373493975903" y="195.10843373493975" type="curve" smooth="yes"/>
      <point x="166.43373493975903" y="293.89156626506025"/>
      <point x="232.15662650602408" y="372.26506024096386"/>
      <point x="330.2409638554217" y="372.26506024096386" type="curve" smooth="yes"/>
      <point x="408.49397590361446" y="372.26506024096386"/>
      <point x="466.1566265060241" y="317.1927710843374"/>
      <point x="466.1566265060241" y="237.87951807228916" type="curve" smooth="yes"/>
      <point x="466.1566265060241" y="139.0963855421687"/>
      <point x="400.433734939759" y="60.72289156626506"/>
    </contour>
  </outline>
</glyph>
<glyph name="seven" format="2">
  <advance width="600.0"/>
  <unicode hex="0037"/>
  <outline>
    <contour>
      <point x="72.97590361445783" y="0.0" type="line"/>
      <point x="167.6144578313253" y="0.0" type="line"/>
      <point x="595.5783132530121" y="643.4578313253012" type="line"/>
      <point x="605.277108433735" y="705.0" type="line"/>
      <point x="139.72289156626508" y="705.0" type="line"/>
      <point x="128.55421686746988" y="634.0481927710844" type="line"/>
      <point x="521.1084337349398" y="634.0481927710844" type="line"/>
      <point x="522.1084337349398" y="670.0963855421687" type="line"/>
    </contour>
  </outline>
</glyph>
<glyph name="eight" format="2">
  <advance width="600.0"/>
  <unicode hex="0038"/>
  <outline>
    <contour>
      <point x="268.4096385542169" y="-8.939759036144578" type="curve" smooth="yes"/>
      <point x="428.22891566265065" y="-8.939759036144578"/>
      <point x="544.4578313253012" y="68.06024096385542"/>
      <point x="544.4578313253012" y="209.0" type="curve" smooth="yes"/>
      <point x="544.4578313253012" y="294.81927710843377"/>
      <point x="489.9277108433735" y="352.2289156626506"/>
      <point x="409.8674698795181" y="364.6385542168675" type="curve"/>
      <point x="407.3975903614458" y="351.53012048192767" type="line"/>
      <point x="504.9879518072289" y="364.5903614457831"/>
      <point x="579.1084337349397" y="445.93975903614455"/>
      <point x="579.1084337349397" y="546.1807228915663" type="curve" smooth="yes"/>
      <point x="579.1084337349397" y="647.5301204819277"/>
      <point x="491.1686746987952" y="713.4698795180723"/>
      <point x="364.1807228915663" y="713.4698795180723" type="curve" smooth="yes"/>
      <point x="215.8313253012048" y="713.4698795180723"/>
      <point x="106.13253012048193" y="639.4096385542168"/>
      <point x="106.13253012048193" y="507.0" type="curve" smooth="yes"/>
      <point x="106.13253012048193" y="429.1807228915663"/>
      <point x="149.0722891566265" y="372.2409638554217"/>
      <point x="223.66265060240966" y="354.7710843373494" type="curve"/>
      <point x="226.13253012048193" y="366.81927710843377" type="line"/>
      <point x="118.07228915662651" y="360.8192771084337"/>
      <point x="37.07228915662651" y="272.1686746987952"/>
      <point x="37.07228915662651" y="162.04819277108433" type="curve" smooth="yes"/>
      <point x="37.07228915662651" y="56.34939759036145"/>
      <point x="131.54216867469881" y="-8.939759036144578"/>
    </contour>
    <contour>
      <point x="272.28915662650604" y="59.25301204819277" type="curve" smooth="yes"/>
      <point x="178.44578313253012" y="59.25301204819277"/>
      <point x="116.3132530120482" y="96.55421686746989"/>
      <point x="116.3132530120482" y="170.74698795180723" type="curve" smooth="yes"/>
      <point x="116.3132530120482" y="271.421686746988"/>
      <point x="192.0963855421687" y="322.90361445783134"/>
      <point x="311.30120481927713" y="322.90361445783134" type="curve" smooth="yes"/>
      <point x="403.144578313253" y="322.90361445783134"/>
      <point x="465.21686746987956" y="286.6024096385542"/>
      <point x="465.21686746987956" y="213.40963855421688" type="curve" smooth="yes"/>
      <point x="465.21686746987956" y="111.73493975903615"/>
      <point x="391.0240963855421" y="59.25301204819277"/>
    </contour>
    <contour>
      <point x="322.87951807228916" y="391.09638554216866" type="curve" smooth="yes"/>
      <point x="238.50602409638554" y="391.09638554216866"/>
      <point x="185.37349397590364" y="430.5180722891566"/>
      <point x="185.37349397590364" y="500.77108433734935" type="curve" smooth="yes"/>
      <point x="185.37349397590364" y="594.9156626506025"/>
      <point x="251.6265060240964" y="645.277108433735"/>
      <point x="361.30120481927713" y="645.277108433735" type="curve" smooth="yes"/>
      <point x="446.20481927710847" y="645.277108433735"/>
      <point x="499.86746987951807" y="606.855421686747"/>
      <point x="499.86746987951807" y="537.6626506024096" type="curve" smooth="yes"/>
      <point x="499.86746987951807" y="447.6385542168675"/>
      <point x="426.9638554216868" y="391.09638554216866"/>
    </contour>
  </outline>
</glyph>
<glyph name="nine" format="2">
  <advance width="600.0"/>
  <unicode hex="0039"/>
  <outline>
    <contour>
      <point x="239.40963855421688" y="-8.939759036144578" type="curve" smooth="yes"/>
      <point x="453.6385542168675" y="-8.939759036144578"/>
      <point x="559.3975903614459" y="203.6024096385542"/>
      <point x="559.3975903614459" y="453.30120481927713" type="curve" smooth="yes"/>
      <point x="559.3975903614459" y="614.0602409638554"/>
      <point x="471.0481927710843" y="713.9397590361446"/>
      <point x="328.71084337349396" y="713.9397590361446" type="curve" smooth="yes"/>
      <point x="191.0722891566265" y="713.9397590361446"/>
      <point x="89.13253012048193" y="605.5903614457832"/>
      <point x="89.13253012048193" y="461.89156626506025" type="curve" smooth="yes"/>
      <point x="89.13253012048193" y="349.89156626506025"/>
      <point x="169.3132530120482" y="263.07228915662654"/>
      <point x="282.90361445783134" y="263.07228915662654" type="curve" smooth="yes"/>
      <point x="379.85542168674704" y="263.07228915662654"/>
      <point x="475.50602409638554" y="329.49397590361446"/>
      <point x="492.68674698795184" y="437.2168674698795" type="curve"/>
      <point x="482.8072289156626" y="437.68674698795184" type="line"/>
      <point x="480.86746987951807" y="408.3975903614458" type="line" smooth="yes"/>
      <point x="470.4578313253012" y="196.2289156626506"/>
      <point x="378.73493975903614" y="63.5421686746988"/>
      <point x="242.53012048192772" y="63.5421686746988" type="curve" smooth="yes"/>
      <point x="179.81927710843374" y="63.5421686746988"/>
      <point x="122.16867469879519" y="88.19277108433735"/>
      <point x="72.2289156626506" y="141.55421686746988" type="curve"/>
      <point x="36.07228915662651" y="80.3012048192771" type="line"/>
      <point x="85.83132530120481" y="23.710843373493976"/>
      <point x="164.59036144578312" y="-8.939759036144578"/>
    </contour>
    <contour>
      <point x="304.289156626506" y="332.73493975903614" type="curve" smooth="yes"/>
      <point x="226.50602409638554" y="332.73493975903614"/>
      <point x="168.84337349397592" y="387.8072289156626"/>
      <point x="168.84337349397592" y="467.5903614457831" type="curve" smooth="yes"/>
      <point x="168.84337349397592" y="565.9036144578314"/>
      <point x="234.56626506024097" y="644.7469879518072"/>
      <point x="332.65060240963857" y="644.7469879518072" type="curve" smooth="yes"/>
      <point x="410.43373493975906" y="644.7469879518072"/>
      <point x="468.09638554216866" y="589.6746987951808"/>
      <point x="468.09638554216866" y="509.89156626506025" type="curve" smooth="yes"/>
      <point x="468.09638554216866" y="411.578313253012"/>
      <point x="402.3734939759036" y="332.73493975903614"/>
    </contour>
  </outline>
</glyph>
<glyph name="colon" format="2">
  <advance width="228.3855421686747"/>
  <unicode hex="003A"/>
  <outline>
    <contour>
      <point x="85.8433734939759" y="384.3975903614458" type="line"/>
      <point x="188.20481927710844" y="384.3975903614458" type="line"/>
      <point x="204.3734939759036" y="486.34939759036143" type="line"/>
      <point x="102.01204819277109" y="486.34939759036143" type="line"/>
    </contour>
    <contour>
      <point x="25.012048192771083" y="0.0" type="line"/>
      <point x="127.37349397590361" y="0.0" type="line"/>
      <point x="143.5421686746988" y="102.42168674698794" type="line"/>
      <point x="41.18072289156626" y="102.42168674698794" type="line"/>
    </contour>
  </outline>
</glyph>
<glyph name="semicolon" format="2">
  <advance width="228.3855421686747"/>
  <unicode hex="003B"/>
  <outline>
    <contour>
      <point x="52.57831325301204" y="-114.44578313253012" type="line"/>
      <point x="105.20481927710843" y="-71.57831325301206"/>
      <point x="120.8433734939759" y="-33.06024096385542"/>
      <point x="129.72289156626505" y="21.68674698795181" type="curve" smooth="yes"/>
      <point x="142.5421686746988" y="102.42168674698794" type="line"/>
      <point x="40.18072289156626" y="102.42168674698794" type="line"/>
      <point x="24.012048192771083" y="0.0" type="line"/>
      <point x="97.09638554216868" y="0.0" type="line"/>
      <point x="74.86746987951807" y="16.80722891566265" type="line"/>
      <point x="68.98795180722891" y="-18.120481927710845"/>
      <point x="58.81927710843374" y="-42.93975903614458"/>
      <point x="19.710843373493972" y="-79.16867469879517" type="curve"/>
    </contour>
    <contour>
      <point x="85.3132530120482" y="384.3975903614458" type="line"/>
      <point x="187.67469879518072" y="384.3975903614458" type="line"/>
      <point x="203.8433734939759" y="486.34939759036143" type="line"/>
      <point x="101.48192771084338" y="486.34939759036143" type="line"/>
    </contour>
  </outline>
</glyph>
<glyph name="less" format="2">
  <advance width="600.0"/>
  <unicode hex="003C"/>
  <outline>
    <contour>
      <point x="510.5301204819277" y="35.12048192771084" type="line"/>
      <point x="521.289156626506" y="99.6144578313253" type="line"/>
      <point x="98.63855421686748" y="302.9879518072289" type="line"/>
      <point x="91.81927710843374" y="262.66265060240966" type="line"/>
      <point x="579.2409638554217" y="467.03614457831327" type="line"/>
      <point x="590.4698795180723" y="539.3493975903615" type="line"/>
      <point x="67.87951807228916" y="319.09638554216866" type="line"/>
      <point x="57.65060240963855" y="255.3734939759036" type="line"/>
    </contour>
  </outline>
</glyph>
<glyph name="greater" format="2">
  <advance width="600.0"/>
  <unicode hex="003E"/>
  <outline>
    <contour>
      <point x="22.53012048192771" y="35.12048192771084" type="line"/>
      <point x="545.6506024096385" y="255.3734939759036" type="line"/>
      <point x="555.8795180722891" y="319.09638554216866" type="line"/>
      <point x="102.46987951807229" y="539.3493975903615" type="line"/>
      <point x="91.71084337349397" y="474.3855421686747" type="line"/>
      <point x="514.8915662650603" y="270.0120481927711" type="line"/>
      <point x="521.710843373494" y="310.8072289156627" type="line"/>
      <point x="33.75903614457831" y="106.96385542168674" type="line"/>
    </contour>
  </outline>
</glyph>
<glyph name="question" format="2">
  <advance width="443.09638554216866"/>
  <unicode hex="003F"/>
  <outline>
    <contour>
      <point x="171.63855421686748" y="184.0843373493976" type="line"/>
      <point x="222.78313253012047" y="184.0843373493976" type="line"/>
      <point x="229.66265060240963" y="208.43373493975906" type="line" smooth="yes"/>
      <point x="242.13253012048193" y="257.6746987951807"/>
      <point x="262.72289156626505" y="303.21686746987956"/>
      <point x="340.90361445783134" y="365.69879518072287" type="curve" smooth="yes"/>
      <point x="400.13253012048193" y="411.34939759036143"/>
      <point x="467.6746987951807" y="478.71084337349396"/>
      <point x="467.6746987951807" y="564.7710843373494" type="curve" smooth="yes"/>
      <point x="467.6746987951807" y="646.0602409638553"/>
      <point x="406.0963855421687" y="713.9397590361446"/>
      <point x="294.8072289156627" y="713.9397590361446" type="curve" smooth="yes"/>
      <point x="213.04819277108433" y="713.9397590361446"/>
      <point x="126.16867469879519" y="684.289156626506"/>
      <point x="63.0" y="625.2289156626506" type="curve"/>
      <point x="92.39759036144578" y="561.9759036144578" type="line"/>
      <point x="148.9277108433735" y="612.7469879518072"/>
      <point x="215.10843373493978" y="641.4578313253012"/>
      <point x="283.0602409638554" y="641.4578313253012" type="curve" smooth="yes"/>
      <point x="353.8433734939759" y="641.4578313253012"/>
      <point x="384.6746987951807" y="604.4457831325301"/>
      <point x="384.6746987951807" y="554.3132530120482" type="curve" smooth="yes"/>
      <point x="384.6746987951807" y="484.5301204819277"/>
      <point x="326.0120481927711" y="439.9879518072289"/>
      <point x="288.18072289156623" y="405.62650602409633" type="curve" smooth="yes"/>
      <point x="205.1686746987952" y="330.0240963855422"/>
      <point x="185.57831325301206" y="284.2530120481928"/>
      <point x="176.04819277108433" y="214.48192771084337" type="curve" smooth="yes"/>
    </contour>
    <contour>
      <point x="117.2409638554217" y="0.0" type="line"/>
      <point x="218.60240963855424" y="0.0" type="line"/>
      <point x="234.7710843373494" y="102.42168674698794" type="line"/>
      <point x="133.40963855421688" y="102.42168674698794" type="line"/>
    </contour>
  </outline>
</glyph>
<glyph name="at" format="2">
  <advance width="946.289156626506"/>
  <unicode hex="0040"/>
  <outline>
    <contour>
      <point x="495.4698795180723" y="-163.40963855421685" type="curve" smooth="yes"/>
      <point x="615.5903614457832" y="-163.40963855421685"/>
      <point x="718.710843373494" y="-125.6987951807229"/>
      <point x="783.2409638554217" y="-58.27710843373494" type="curve"/>
      <point x="750.132530120482" y="-10.301204819277109" type="line"/>
      <point x="692.722891566265" y="-71.72289156626506"/>
      <point x="602.8915662650603" y="-106.55421686746988"/>
      <point x="495.4698795180723" y="-106.55421686746988" type="curve" smooth="yes"/>
      <point x="274.3975903614458" y="-106.55421686746988"/>
      <point x="134.566265060241" y="35.9277108433735"/>
      <point x="134.566265060241" y="272.7710843373494" type="curve" smooth="yes"/>
      <point x="134.566265060241" y="503.6024096385542"/>
      <point x="284.45783132530124" y="657.0843373493976"/>
      <point x="507.7590361445783" y="657.0843373493976" type="curve" smooth="yes"/>
      <point x="706.4698795180723" y="657.0843373493976"/>
      <point x="838.6024096385543" y="533.3614457831326"/>
      <point x="838.6024096385543" y="344.12048192771084" type="curve" smooth="yes"/>
      <point x="838.6024096385543" y="205.33734939759037"/>
      <point x="786.1807228915662" y="113.3855421686747"/>
      <point x="709.5180722891566" y="113.3855421686747" type="curve" smooth="yes"/>
      <point x="668.6867469879518" y="113.3855421686747"/>
      <point x="649.0361445783133" y="135.03614457831324"/>
      <point x="649.0361445783133" y="180.21686746987953" type="curve" smooth="yes"/>
      <point x="649.0361445783133" y="193.1566265060241"/>
      <point x="650.5060240963855" y="209.03614457831324"/>
      <point x="653.9759036144578" y="227.32530120481928" type="curve" smooth="yes"/>
      <point x="698.6265060240964" y="486.34939759036143" type="line"/>
      <point x="632.6626506024096" y="486.34939759036143" type="line"/>
      <point x="616.1927710843373" y="391.8192771084337" type="line"/>
      <point x="627.8915662650603" y="391.8192771084337" type="line"/>
      <point x="614.0120481927711" y="457.69879518072287"/>
      <point x="565.8915662650603" y="495.28915662650604"/>
      <point x="493.30120481927713" y="495.28915662650604" type="curve" smooth="yes"/>
      <point x="369.30120481927713" y="495.28915662650604"/>
      <point x="277.1807228915663" y="387.7590361445783"/>
      <point x="277.1807228915663" y="240.6987951807229" type="curve" smooth="yes"/>
      <point x="277.1807228915663" y="127.34939759036145"/>
      <point x="336.5903614457832" y="59.0"/>
      <point x="439.87951807228916" y="59.0" type="curve" smooth="yes"/>
      <point x="507.6385542168675" y="59.0"/>
      <point x="573.1686746987951" y="101.81927710843374"/>
      <point x="607.6987951807229" y="181.6867469879518" type="curve"/>
      <point x="588.8915662650603" y="187.06024096385542" type="line"/>
      <point x="582.4096385542168" y="108.12048192771084"/>
      <point x="626.2289156626506" y="59.0"/>
      <point x="705.1084337349398" y="59.0" type="curve" smooth="yes"/>
      <point x="819.5180722891566" y="59.0"/>
      <point x="895.9277108433735" y="170.59036144578315"/>
      <point x="895.9277108433735" y="344.12048192771084" type="curve" smooth="yes"/>
      <point x="895.9277108433735" y="565.4096385542168"/>
      <point x="739.4578313253012" y="713.9397590361446"/>
      <point x="508.7590361445783" y="713.9397590361446" type="curve" smooth="yes"/>
      <point x="249.7710843373494" y="713.9397590361446"/>
      <point x="71.42168674698796" y="534.9397590361446"/>
      <point x="71.42168674698796" y="272.7710843373494" type="curve" smooth="yes"/>
      <point x="71.42168674698796" y="6.469879518072289"/>
      <point x="240.59036144578315" y="-163.40963855421685"/>
    </contour>
    <contour>
      <point x="448.86746987951807" y="116.79518072289156" type="curve" smooth="yes"/>
      <point x="383.3253012048193" y="116.79518072289156"/>
      <point x="346.0240963855422" y="160.6265060240964"/>
      <point x="346.0240963855422" y="241.16867469879517" type="curve" smooth="yes"/>
      <point x="346.0240963855422" y="354.89156626506025"/>
      <point x="412.1566265060241" y="437.0240963855422"/>
      <point x="500.81927710843377" y="437.0240963855422" type="curve" smooth="yes"/>
      <point x="570.4216867469879" y="437.0240963855422"/>
      <point x="602.722891566265" y="399.7831325301205"/>
      <point x="602.722891566265" y="324.65060240963857" type="curve" smooth="yes"/>
      <point x="602.722891566265" y="203.9879518072289"/>
      <point x="537.5903614457832" y="116.79518072289156"/>
    </contour>
  </outline>
</glyph>
<glyph name="A" format="2">
  <advance width="729.156626506024"/>
  <unicode hex="0041"/>
  <anchor x="344.5180722891566" y="0.0" name="bottom"/>
  <anchor x="652.8674698795181" y="0.0" name="ogonek"/>
  <anchor x="439.16867469879514" y="705.0" name="top"/>
  <outline>
    <contour>
      <point x="-19.44578313253012" y="0.0" type="line"/>
      <point x="70.43373493975903" y="0.0" type="line"/>
      <point x="185.73493975903614" y="196.0120481927711" type="line"/>
      <point x="145.27710843373495" y="179.96385542168676" type="line"/>
      <point x="570.9397590361446" y="179.96385542168676" type="line"/>
      <point x="539.421686746988" y="197.42168674698794" type="line"/>
      <point x="592.0722891566264" y="0.0" type="line"/>
      <point x="672.132530120482" y="0.0" type="line"/>
      <point x="474.0843373493976" y="705.0" type="line"/>
      <point x="403.5421686746988" y="705.0" type="line"/>
    </contour>
    <contour>
      <point x="427.34939759036143" y="609.4698795180723" type="line"/>
      <point x="429.34939759036143" y="609.4698795180723" type="line"/>
      <point x="529.1325301204819" y="233.63855421686745" type="line"/>
      <point x="552.421686746988" y="248.56626506024097" type="line"/>
      <point x="185.66265060240966" y="248.56626506024097" type="line"/>
      <point x="208.19277108433735" y="234.57831325301203" type="line"/>
    </contour>
  </outline>
</glyph>
<glyph name="B" format="2">
  <advance width="676.3373493975904"/>
  <unicode hex="0042"/>
  <anchor x="303.7590361445783" y="0.0" name="bottom"/>
  <anchor x="414.7590361445783" y="705.0" name="top"/>
  <outline>
    <contour>
      <point x="48.60240963855422" y="0.0" type="line"/>
      <point x="358.2168674698795" y="0.0" type="line" smooth="yes"/>
      <point x="516.6265060240964" y="0.0"/>
      <point x="606.7951807228916" y="71.40963855421687"/>
      <point x="606.7951807228916" y="208.40963855421688" type="curve" smooth="yes"/>
      <point x="606.7951807228916" y="290.93975903614455"/>
      <point x="552.6746987951808" y="350.4096385542169"/>
      <point x="464.144578313253" y="365.34939759036143" type="curve"/>
      <point x="464.144578313253" y="350.4096385542169" type="line"/>
      <point x="571.8554216867469" y="365.34939759036143"/>
      <point x="642.3855421686748" y="434.93975903614455"/>
      <point x="642.3855421686748" y="539.5903614457831" type="curve" smooth="yes"/>
      <point x="642.3855421686748" y="639.7108433734941"/>
      <point x="574.2650602409639" y="705.0"/>
      <point x="427.8072289156626" y="705.0" type="curve" smooth="yes"/>
      <point x="160.60240963855424" y="705.0" type="line"/>
    </contour>
    <contour>
      <point x="139.42168674698794" y="66.25301204819277" type="line"/>
      <point x="180.3132530120482" y="323.8433734939759" type="line"/>
      <point x="381.8192771084337" y="323.8433734939759" type="line" smooth="yes"/>
      <point x="474.1927710843373" y="323.8433734939759"/>
      <point x="525.2048192771084" y="285.4216867469879"/>
      <point x="525.2048192771084" y="211.16867469879517" type="curve" smooth="yes"/>
      <point x="525.2048192771084" y="116.67469879518072"/>
      <point x="469.13253012048193" y="66.25301204819277"/>
      <point x="357.5180722891566" y="66.25301204819277" type="curve" smooth="yes"/>
    </contour>
    <contour>
      <point x="191.0120481927711" y="390.09638554216866" type="line"/>
      <point x="230.43373493975903" y="638.7469879518072" type="line"/>
      <point x="416.81927710843377" y="638.7469879518072" type="line" smooth="yes"/>
      <point x="514.7831325301205" y="638.7469879518072"/>
      <point x="560.7951807228916" y="601.3253012048193"/>
      <point x="560.7951807228916" y="532.0120481927711" type="curve" smooth="yes"/>
      <point x="560.7951807228916" y="440.6385542168675"/>
      <point x="496.0722891566265" y="390.09638554216866"/>
      <point x="391.6987951807229" y="390.09638554216866" type="curve" smooth="yes"/>
    </contour>
  </outline>
</glyph>
<glyph name="C" format="2">
  <advance width="672.6385542168674"/>
  <unicode hex="0043"/>
  <anchor x="367.28915662650604" y="0.0" name="bottom"/>
  <anchor x="437.2289156626506" y="705.0" name="top"/>
  <outline>
    <contour>
      <point x="380.86746987951807" y="-8.939759036144578" type="curve" smooth="yes"/>
      <point x="470.04819277108436" y="-8.939759036144578"/>
      <point x="553.156626506024" y="21.65060240963855"/>
      <point x="614.8072289156627" y="79.48192771084337" type="curve"/>
      <point x="584.698795180723" y="144.96385542168673" type="line"/>
      <point x="520.1084337349398" y="89.5421686746988"/>
      <point x="461.0481927710843" y="66.36144578313252"/>
      <point x="387.9759036144578" y="66.36144578313252" type="curve" smooth="yes"/>
      <point x="248.43373493975903" y="66.36144578313252"/>
      <point x="165.12048192771084" y="135.78313253012047"/>
      <point x="165.12048192771084" y="308.69879518072287" type="curve" smooth="yes"/>
      <point x="165.12048192771084" y="499.20481927710847"/>
      <point x="267.5542168674699" y="638.6385542168674"/>
      <point x="438.9879518072289" y="638.6385542168674" type="curve" smooth="yes"/>
      <point x="519.5301204819277" y="638.6385542168674"/>
      <point x="581.5903614457832" y="612.5180722891566"/>
      <point x="635.6506024096386" y="557.6265060240963" type="curve"/>
      <point x="673.3373493975904" y="624.1084337349397" type="line"/>
      <point x="622.277108433735" y="679.8795180722891"/>
      <point x="539.5180722891565" y="713.9397590361446"/>
      <point x="441.9879518072289" y="713.9397590361446" type="curve" smooth="yes"/>
      <point x="214.7710843373494" y="713.9397590361446"/>
      <point x="77.36144578313254" y="537.4698795180723"/>
      <point x="77.36144578313254" y="307.34939759036143" type="curve" smooth="yes"/>
      <point x="77.36144578313254" y="92.28915662650603"/>
      <point x="201.81927710843374" y="-8.939759036144578"/>
    </contour>
  </outline>
</glyph>
<glyph name="D" format="2">
  <advance width="742.3855421686746"/>
  <unicode hex="0044"/>
  <anchor x="334.3975903614458" y="0.0" name="bottom"/>
  <anchor x="200.9277108433735" y="358.0" name="center"/>
  <anchor x="433.9879518072289" y="705.0" name="top"/>
  <outline>
    <contour>
      <point x="48.60240963855422" y="0.0" type="line"/>
      <point x="302.32530120481925" y="0.0" type="line" smooth="yes"/>
      <point x="577.566265060241" y="0.0"/>
      <point x="701.5542168674699" y="183.89156626506025"/>
      <point x="701.5542168674699" y="410.3614457831325" type="curve" smooth="yes"/>
      <point x="701.0843373493976" y="597.1807228915663"/>
      <point x="580.9156626506024" y="705.0"/>
      <point x="367.51807228915663" y="705.0" type="curve" smooth="yes"/>
      <point x="160.60240963855424" y="705.0" type="line"/>
    </contour>
    <contour>
      <point x="142.18072289156626" y="70.48192771084338" type="line"/>
      <point x="231.8433734939759" y="634.5180722891566" type="line"/>
      <point x="366.9879518072289" y="634.5180722891566" type="line" smooth="yes"/>
      <point x="531.6626506024097" y="634.5180722891566"/>
      <point x="614.7349397590361" y="555.4457831325301"/>
      <point x="614.7349397590361" y="409.421686746988" type="curve" smooth="yes"/>
      <point x="614.7349397590361" y="223.4578313253012"/>
      <point x="527.3734939759037" y="70.48192771084338"/>
      <point x="304.32530120481925" y="70.48192771084338" type="curve" smooth="yes"/>
    </contour>
  </outline>
</glyph>
<glyph name="E" format="2">
  <advance width="582.6867469879518"/>
  <unicode hex="0045"/>
  <anchor x="291.81927710843377" y="0.0" name="bottom"/>
  <anchor x="452.28915662650604" y="0.0" name="ogonek"/>
  <anchor x="398.34939759036143" y="705.0" name="top"/>
  <anchor x="98.65060240963855" y="705.0" name="topleft"/>
  <outline>
    <contour>
      <point x="49.07228915662651" y="0.0" type="line"/>
      <point x="493.7469879518072" y="0.0" type="line"/>
      <point x="504.4457831325301" y="68.60240963855422" type="line"/>
      <point x="139.36144578313252" y="68.60240963855422" type="line"/>
      <point x="179.7831325301205" y="323.43373493975906" type="line"/>
      <point x="524.9277108433735" y="323.43373493975906" type="line"/>
      <point x="535.6265060240964" y="392.03614457831327" type="line"/>
      <point x="191.0120481927711" y="392.03614457831327" type="line"/>
      <point x="229.96385542168676" y="636.3975903614457" type="line"/>
      <point x="595.0481927710844" y="636.3975903614457" type="line"/>
      <point x="605.7469879518072" y="705.0" type="line"/>
      <point x="160.60240963855424" y="705.0" type="line"/>
    </contour>
  </outline>
</glyph>
<glyph name="F" format="2">
  <advance width="548.2168674698795"/>
  <unicode hex="0046"/>
  <anchor x="257.81927710843377" y="0.0" name="bottom"/>
  <anchor x="370.7590361445783" y="705.0" name="top"/>
  <outline>
    <contour>
      <point x="49.07228915662651" y="0.0" type="line"/>
      <point x="131.48192771084337" y="0.0" type="line"/>
      <point x="182.66265060240963" y="321.0843373493976" type="line"/>
      <point x="515.867469879518" y="321.0843373493976" type="line"/>
      <point x="526.5662650602409" y="389.6867469879518" type="line"/>
      <point x="193.36144578313252" y="389.6867469879518" type="line"/>
      <point x="232.78313253012047" y="636.3975903614457" type="line"/>
      <point x="586.4578313253012" y="636.3975903614457" type="line"/>
      <point x="597.156626506024" y="705.0" type="line"/>
      <point x="160.60240963855424" y="705.0" type="line"/>
    </contour>
  </outline>
</glyph>
<glyph name="G" format="2">
  <advance width="726.4578313253012"/>
  <unicode hex="0047"/>
  <anchor x="380.4578313253012" y="0.0" name="bottom"/>
  <anchor x="440.10843373493975" y="705.0" name="top"/>
  <outline>
    <contour>
      <point x="390.578313253012" y="-8.939759036144578" type="curve" smooth="yes"/>
      <point x="470.51807228915663" y="-8.939759036144578"/>
      <point x="557.8072289156627" y="8.120481927710843"/>
      <point x="613.3253012048192" y="33.87951807228916" type="curve"/>
      <point x="665.7349397590361" y="367.2168674698795" type="line"/>
      <point x="415.289156626506" y="367.2168674698795" type="line"/>
      <point x="405.53012048192767" y="301.90361445783134" type="line"/>
      <point x="584.4939759036145" y="301.90361445783134" type="line"/>
      <point x="544.1927710843373" y="52.85542168674699" type="line"/>
      <point x="569.2409638554217" y="95.72289156626506" type="line"/>
      <point x="519.0602409638554" y="77.60240963855422"/>
      <point x="465.28915662650604" y="64.48192771084338"/>
      <point x="400.09638554216866" y="64.48192771084338" type="curve" smooth="yes"/>
      <point x="245.5421686746988" y="64.48192771084338"/>
      <point x="163.18072289156626" y="139.49397590361446"/>
      <point x="163.18072289156626" y="297.9277108433735" type="curve" smooth="yes"/>
      <point x="163.18072289156626" y="502.44578313253015"/>
      <point x="267.96385542168673" y="639.5783132530121"/>
      <point x="440.8072289156626" y="639.5783132530121" type="curve" smooth="yes"/>
      <point x="524.7590361445783" y="639.5783132530121"/>
      <point x="588.289156626506" y="613.9277108433735"/>
      <point x="644.3493975903615" y="559.5060240963855" type="curve"/>
      <point x="682.0361445783133" y="625.5180722891566" type="line"/>
      <point x="630.855421686747" y="679.8795180722891"/>
      <point x="548.0361445783133" y="713.9397590361446"/>
      <point x="445.6867469879518" y="713.9397590361446" type="curve" smooth="yes"/>
      <point x="215.65060240963854" y="713.9397590361446"/>
      <point x="76.36144578313254" y="543.5903614457832"/>
      <point x="76.36144578313254" y="295.5783132530121" type="curve" smooth="yes"/>
      <point x="76.36144578313254" y="97.87951807228916"/>
      <point x="195.63855421686748" y="-8.939759036144578"/>
    </contour>
  </outline>
</glyph>
<glyph name="H" format="2">
  <advance width="761.3373493975904"/>
  <unicode hex="0048"/>
  <anchor x="347.6385542168675" y="0.0" name="bottom"/>
  <anchor x="430.10843373493975" y="553.0481927710844" name="center"/>
  <anchor x="452.6987951807229" y="705.0" name="top"/>
  <anchor x="98.12048192771084" y="705.0" name="topleft"/>
  <outline>
    <contour>
      <point x="48.60240963855422" y="0.0" type="line"/>
      <point x="131.0120481927711" y="0.0" type="line"/>
      <point x="182.19277108433735" y="322.0240963855422" type="line"/>
      <point x="604.0361445783133" y="322.0240963855422" type="line"/>
      <point x="552.855421686747" y="0.0" type="line"/>
      <point x="635.2650602409639" y="0.0" type="line"/>
      <point x="747.2650602409639" y="705.0" type="line"/>
      <point x="664.855421686747" y="705.0" type="line"/>
      <point x="615.2048192771085" y="392.9759036144578" type="line"/>
      <point x="193.36144578313252" y="392.9759036144578" type="line"/>
      <point x="243.0120481927711" y="705.0" type="line"/>
      <point x="160.60240963855424" y="705.0" type="line"/>
    </contour>
  </outline>
</glyph>
<glyph name="I" format="2">
  <advance width="256.55421686746985"/>
  <unicode hex="0049"/>
  <anchor x="89.80722891566266" y="0.0" name="bottom"/>
  <anchor x="117.85542168674698" y="0.0" name="ogonek"/>
  <anchor x="201.80722891566268" y="705.0" name="top"/>
  <anchor x="99.18072289156626" y="705.0" name="topleft"/>
  <outline>
    <contour>
      <point x="48.60240963855422" y="0.0" type="line"/>
      <point x="131.0120481927711" y="0.0" type="line"/>
      <point x="243.0120481927711" y="705.0" type="line"/>
      <point x="160.60240963855424" y="705.0" type="line"/>
    </contour>
  </outline>
</glyph>
<glyph name="J" format="2">
  <advance width="323.7831325301205"/>
  <unicode hex="004A"/>
  <anchor x="158.03614457831327" y="0.0" name="bottom"/>
  <anchor x="269.03614457831327" y="705.0" name="top"/>
  <outline>
    <contour>
      <point x="-40.65060240963855" y="-7.409638554216867" type="line"/>
      <point x="23.325301204819283" y="-3.939759036144578" type="line" smooth="yes"/>
      <point x="148.18072289156626" y="4.0"/>
      <point x="208.710843373494" y="69.40963855421687"/>
      <point x="227.12048192771084" y="185.92771084337352" type="curve" smooth="yes"/>
      <point x="309.71084337349396" y="705.0" type="line"/>
      <point x="227.30120481927713" y="705.0" type="line"/>
      <point x="146.710843373494" y="196.39759036144576" type="line" smooth="yes"/>
      <point x="133.59036144578315" y="113.14457831325302"/>
      <point x="91.63855421686748" y="71.13253012048193"/>
      <point x="20.09638554216867" y="66.07228915662651" type="curve" smooth="yes"/>
      <point x="-40.24096385542169" y="62.07228915662651" type="line"/>
    </contour>
  </outline>
</glyph>
<glyph name="K" format="2">
  <advance width="624.7710843373494"/>
  <unicode hex="004B"/>
  <anchor x="288.27710843373495" y="0.0" name="bottom"/>
  <anchor x="388.6265060240964" y="705.0" name="top"/>
  <anchor x="98.18072289156626" y="705.0" name="topleft"/>
  <outline>
    <contour>
      <point x="48.60240963855422" y="0.0" type="line"/>
      <point x="131.0120481927711" y="0.0" type="line"/>
      <point x="184.0722891566265" y="333.7710843373494" type="line"/>
      <point x="186.0722891566265" y="333.7710843373494" type="line"/>
      <point x="501.8192771084337" y="0.0" type="line"/>
      <point x="601.5783132530121" y="0.0" type="line"/>
      <point x="248.3132530120482" y="380.27710843373495" type="line"/>
      <point x="247.54216867469881" y="336.65060240963857" type="line"/>
      <point x="693.3975903614459" y="705.0" type="line"/>
      <point x="583.9397590361446" y="705.0" type="line"/>
      <point x="193.95180722891564" y="384.51807228915663" type="line"/>
      <point x="191.95180722891564" y="384.51807228915663" type="line"/>
      <point x="243.0120481927711" y="705.0" type="line"/>
      <point x="160.60240963855424" y="705.0" type="line"/>
    </contour>
  </outline>
</glyph>
<glyph name="L" format="2">
  <advance width="543.4457831325301"/>
  <unicode hex="004C"/>
  <anchor x="269.8192771084337" y="0.0" name="bottom"/>
  <anchor x="194.21686746987953" y="387.0" name="center"/>
  <anchor x="427.26506024096386" y="389.7590361445783" name="dot"/>
  <anchor x="201.33734939759037" y="705.0" name="top"/>
  <anchor x="357.96385542168673" y="705.0" name="topright"/>
  <outline>
    <contour>
      <point x="48.60240963855422" y="0.0" type="line"/>
      <point x="489.15662650602417" y="0.0" type="line"/>
      <point x="500.3253012048193" y="71.89156626506025" type="line"/>
      <point x="142.65060240963854" y="71.89156626506025" type="line"/>
      <point x="243.0120481927711" y="705.0" type="line"/>
      <point x="160.60240963855424" y="705.0" type="line"/>
    </contour>
  </outline>
</glyph>
<glyph name="M" format="2">
  <advance width="855.277108433735"/>
  <unicode hex="004D"/>
  <anchor x="395.578313253012" y="0.0" name="bottom"/>
  <anchor x="501.6385542168675" y="705.0" name="top"/>
  <outline>
    <contour>
      <point x="50.60240963855422" y="0.0" type="line"/>
      <point x="125.78313253012048" y="0.0" type="line"/>
      <point x="219.97590361445782" y="595.0481927710844" type="line"/>
      <point x="199.03614457831324" y="595.0481927710844" type="line"/>
      <point x="381.2409638554217" y="108.59036144578313" type="line"/>
      <point x="434.56626506024094" y="108.59036144578313" type="line"/>
      <point x="770.8072289156627" y="596.3975903614457" type="line"/>
      <point x="746.7469879518072" y="596.3975903614457" type="line"/>
      <point x="652.5542168674699" y="0.0" type="line"/>
      <point x="727.7349397590361" y="0.0" type="line"/>
      <point x="839.7349397590361" y="705.0" type="line"/>
      <point x="768.9638554216867" y="705.0" type="line"/>
      <point x="398.86746987951807" y="167.87951807228916" type="line"/>
      <point x="426.8072289156627" y="167.87951807228916" type="line"/>
      <point x="229.6144578313253" y="705.0" type="line"/>
      <point x="162.60240963855424" y="705.0" type="line"/>
    </contour>
  </outline>
</glyph>
<glyph name="N" format="2">
  <advance width="739.0481927710844"/>
  <unicode hex="004E"/>
  <anchor x="341.7590361445783" y="0.0" name="bottom"/>
  <anchor x="442.34939759036143" y="705.0" name="top"/>
  <outline>
    <contour>
      <point x="48.60240963855422" y="0.0" type="line"/>
      <point x="125.19277108433734" y="0.0" type="line"/>
      <point x="220.79518072289156" y="604.7349397590361" type="line"/>
      <point x="200.03614457831327" y="604.7349397590361" type="line"/>
      <point x="550.3132530120482" y="0.0" type="line"/>
      <point x="612.9759036144578" y="0.0" type="line"/>
      <point x="724.9759036144578" y="705.0" type="line"/>
      <point x="648.3855421686748" y="705.0" type="line"/>
      <point x="552.7831325301205" y="100.26506024096385" type="line"/>
      <point x="574.0722891566265" y="100.26506024096385" type="line"/>
      <point x="224.26506024096386" y="705.0" type="line"/>
      <point x="160.60240963855424" y="705.0" type="line"/>
    </contour>
  </outline>
</glyph>
<glyph name="O" format="2">
  <advance width="766.9759036144578"/>
  <unicode hex="004F"/>
  <anchor x="356.3975903614458" y="-8.939759036144578" name="Qtail"/>
  <anchor x="356.10843373493975" y="0.0" name="bottom"/>
  <anchor x="400.9879518072289" y="353.0" name="center"/>
  <anchor x="413.6867469879518" y="0.0" name="ogonek"/>
  <anchor x="446.10843373493975" y="705.0" name="top"/>
  <anchor x="99.0" y="705.0" name="topleft"/>
  <anchor x="497.33734939759034" y="705.0" name="topright"/>
  <outline>
    <contour>
      <point x="368.2771084337349" y="-8.939759036144578" type="curve" smooth="yes"/>
      <point x="596.7469879518072" y="-8.939759036144578"/>
      <point x="725.6144578313254" y="172.42168674698794"/>
      <point x="725.6144578313254" y="411.7710843373494" type="curve" smooth="yes"/>
      <point x="725.6144578313254" y="606.1807228915663"/>
      <point x="611.566265060241" y="713.9397590361446"/>
      <point x="433.69879518072287" y="713.9397590361446" type="curve" smooth="yes"/>
      <point x="205.2289156626506" y="713.9397590361446"/>
      <point x="76.36144578313254" y="532.5783132530121"/>
      <point x="76.36144578313254" y="293.69879518072287" type="curve" smooth="yes"/>
      <point x="76.36144578313254" y="98.81927710843372"/>
      <point x="190.87951807228913" y="-8.939759036144578"/>
    </contour>
    <contour>
      <point x="370.2771084337349" y="64.48192771084338" type="curve" smooth="yes"/>
      <point x="241.25301204819277" y="64.48192771084338"/>
      <point x="163.18072289156626" y="139.02409638554218"/>
      <point x="163.18072289156626" y="294.6385542168675" type="curve" smooth="yes"/>
      <point x="163.18072289156626" y="493.3734939759036"/>
      <point x="258.3132530120482" y="640.5180722891566"/>
      <point x="430.69879518072287" y="640.5180722891566" type="curve" smooth="yes"/>
      <point x="560.722891566265" y="640.5180722891566"/>
      <point x="638.7951807228916" y="565.9759036144578"/>
      <point x="638.7951807228916" y="410.8313253012048" type="curve" smooth="yes"/>
      <point x="638.7951807228916" y="212.6265060240964"/>
      <point x="543.6626506024096" y="64.48192771084338"/>
    </contour>
  </outline>
</glyph>
<glyph name="P" format="2">
  <advance width="632.9156626506024"/>
  <unicode hex="0050"/>
  <anchor x="285.04819277108436" y="0.0" name="bottom"/>
  <anchor x="396.5783132530121" y="705.0" name="top"/>
  <outline>
    <contour>
      <point x="48.60240963855422" y="0.0" type="line"/>
      <point x="131.0120481927711" y="0.0" type="line"/>
      <point x="175.66265060240963" y="281.49397590361446" type="line"/>
      <point x="377.51807228915663" y="281.49397590361446" type="line" smooth="yes"/>
      <point x="548.5060240963855" y="281.49397590361446"/>
      <point x="640.7349397590361" y="371.433734939759"/>
      <point x="640.7349397590361" y="515.3614457831325" type="curve" smooth="yes"/>
      <point x="640.7349397590361" y="640.3012048192771"/>
      <point x="558.7951807228916" y="705.0"/>
      <point x="414.9879518072289" y="705.0" type="curve" smooth="yes"/>
      <point x="160.60240963855424" y="705.0" type="line"/>
    </contour>
    <contour>
      <point x="186.89156626506022" y="349.6265060240964" type="line"/>
      <point x="232.3132530120482" y="636.8674698795181" type="line"/>
      <point x="407.93975903614455" y="636.8674698795181" type="line" smooth="yes"/>
      <point x="507.66265060240966" y="636.8674698795181"/>
      <point x="559.1445783132531" y="597.5060240963855"/>
      <point x="559.1445783132531" y="510.13253012048193" type="curve" smooth="yes"/>
      <point x="559.1445783132531" y="405.6385542168675"/>
      <point x="497.54216867469876" y="349.6265060240964"/>
      <point x="382.4578313253012" y="349.6265060240964" type="curve" smooth="yes"/>
    </contour>
  </outline>
</glyph>
<glyph name="R" format="2">
  <advance width="669.0361445783133"/>
  <unicode hex="0052"/>
  <anchor x="310.1686746987952" y="0.0" name="bottom"/>
  <anchor x="401.10843373493975" y="705.0" name="top"/>
  <outline>
    <contour>
      <point x="48.60240963855422" y="0.0" type="line"/>
      <point x="131.48192771084337" y="0.0" type="line"/>
      <point x="178.13253012048193" y="297.90361445783134" type="line"/>
      <point x="315.5903614457831" y="297.90361445783134" type="line" smooth="yes"/>
      <point x="381.8433734939759" y="297.90361445783134"/>
      <point x="412.0843373493976" y="276.72289156626505"/>
      <point x="434.32530120481925" y="218.65060240963857" type="curve" smooth="yes"/>
      <point x="517.3855421686748" y="0.0" type="line"/>
      <point x="600.6746987951807" y="0.0" type="line"/>
      <point x="517.3132530120482" y="218.02409638554218" type="line" smooth="yes"/>
      <point x="493.8433734939759" y="279.433734939759"/>
      <point x="457.96385542168673" y="314.3132530120482"/>
      <point x="400.26506024096386" y="314.3132530120482" type="curve" smooth="yes"/>
      <point x="383.8072289156626" y="314.3132530120482" type="line"/>
      <point x="383.8072289156627" y="301.43373493975906" type="line"/>
      <point x="531.4457831325301" y="298.3734939759036"/>
      <point x="640.7349397590361" y="371.3734939759036"/>
      <point x="640.7349397590361" y="515.301204819277" type="curve" smooth="yes"/>
      <point x="640.7349397590361" y="632.5903614457832"/>
      <point x="564.0361445783133" y="705.0"/>
      <point x="412.27710843373495" y="705.0" type="curve" smooth="yes"/>
      <point x="160.60240963855424" y="705.0" type="line"/>
    </contour>
    <contour>
      <point x="188.89156626506022" y="363.2168674698795" type="line"/>
      <point x="232.3132530120482" y="636.8674698795181" type="line"/>
      <point x="403.34939759036143" y="636.8674698795181" type="line" smooth="yes"/>
      <point x="511.25301204819283" y="636.8674698795181"/>
      <point x="559.1445783132531" y="593.9156626506024"/>
      <point x="559.1445783132531" y="510.07228915662654" type="curve" smooth="yes"/>
      <point x="559.1445783132531" y="415.7590361445783"/>
      <point x="496.0120481927711" y="363.2168674698795"/>
      <point x="389.10843373493975" y="363.2168674698795" type="curve" smooth="yes"/>
    </contour>
  </outline>
</glyph>
<glyph name="S" format="2">
  <advance width="614.566265060241"/>
  <unicode hex="0053"/>
  <anchor x="293.0481927710843" y="0.0" name="bottom"/>
  <anchor x="369.4578313253012" y="705.0" name="top"/>
  <outline>
    <contour>
      <point x="297.34939759036143" y="-8.939759036144578" type="curve" smooth="yes"/>
      <point x="445.3975903614458" y="-8.939759036144578"/>
      <point x="565.6144578313252" y="62.93975903614458"/>
      <point x="565.6144578313252" y="197.74698795180723" type="curve" smooth="yes"/>
      <point x="565.6144578313252" y="282.62650602409633"/>
      <point x="508.26506024096386" y="342.91566265060237"/>
      <point x="382.8433734939759" y="371.50602409638554" type="curve" smooth="yes"/>
      <point x="279.144578313253" y="396.4457831325301" type="line" smooth="yes"/>
      <point x="212.1325301204819" y="412.56626506024094"/>
      <point x="177.83132530120483" y="440.27710843373495"/>
      <point x="177.83132530120483" y="508.2409638554217" type="curve" smooth="yes"/>
      <point x="177.83132530120483" y="588.7951807228916"/>
      <point x="254.144578313253" y="641.4578313253012"/>
      <point x="356.3975903614458" y="641.4578313253012" type="curve" smooth="yes"/>
      <point x="432.28915662650604" y="641.4578313253012"/>
      <point x="508.28915662650604" y="619.8072289156626"/>
      <point x="567.7590361445783" y="562.4457831325301" type="curve"/>
      <point x="602.5060240963855" y="625.1686746987951" type="line"/>
      <point x="540.867469879518" y="686.8795180722891"/>
      <point x="447.45783132530124" y="713.9397590361446"/>
      <point x="358.39759036144574" y="713.9397590361446" type="curve" smooth="yes"/>
      <point x="213.7590361445783" y="713.9397590361446"/>
      <point x="94.83132530120481" y="632.0"/>
      <point x="94.83132530120481" y="503.0722891566265" type="curve" smooth="yes"/>
      <point x="94.83132530120481" y="400.89156626506025"/>
      <point x="155.24096385542168" y="349.2530120481928"/>
      <point x="248.5301204819277" y="327.3132530120482" type="curve" smooth="yes"/>
      <point x="352.2289156626506" y="302.3734939759036" type="line" smooth="yes"/>
      <point x="449.3734939759036" y="280.6024096385542"/>
      <point x="482.6144578313253" y="242.65060240963854"/>
      <point x="482.6144578313253" y="188.57831325301206" type="curve" smooth="yes"/>
      <point x="482.6144578313253" y="111.55421686746988"/>
      <point x="411.3614457831325" y="63.5421686746988"/>
      <point x="304.0481927710843" y="63.5421686746988" type="curve" smooth="yes"/>
      <point x="211.56626506024097" y="63.5421686746988"/>
      <point x="135.3975903614458" y="81.48192771084338"/>
      <point x="62.108433734939766" y="140.19277108433735" type="curve"/>
      <point x="28.301204819277107" y="77.12048192771084" type="line"/>
      <point x="97.59036144578313" y="15.469879518072288"/>
      <point x="194.34939759036143" y="-8.939759036144578"/>
    </contour>
  </outline>
</glyph>
<glyph name="T" format="2">
  <advance width="602.4457831325301"/>
  <unicode hex="0054"/>
  <anchor x="262.92771084337346" y="0.0" name="bottom"/>
  <anchor x="319.4578313253012" y="358.0" name="center"/>
  <anchor x="373.51807228915663" y="705.0" name="top"/>
  <outline>
    <contour>
      <point x="221.25301204819277" y="0.0" type="line"/>
      <point x="303.66265060240966" y="0.0" type="line"/>
      <point x="404.49397590361446" y="634.0481927710844" type="line"/>
      <point x="660.8072289156627" y="634.0481927710844" type="line"/>
      <point x="671.9759036144578" y="705.0" type="line"/>
      <point x="76.93975903614458" y="705.0" type="line"/>
      <point x="65.7710843373494" y="634.0481927710844" type="line"/>
      <point x="322.0843373493976" y="634.0481927710844" type="line"/>
    </contour>
  </outline>
</glyph>
<glyph name="U" format="2">
  <advance width="727.9879518072289"/>
  <unicode hex="0055"/>
  <anchor x="326.2289156626506" y="0.0" name="bottom"/>
  <anchor x="391.9879518072289" y="0.0" name="ogonek"/>
  <anchor x="436.7590361445783" y="705.0" name="top"/>
  <anchor x="650.6024096385541" y="705.0" name="topright"/>
  <outline>
    <contour>
      <point x="335.6385542168674" y="-8.939759036144578" type="curve" smooth="yes"/>
      <point x="522.9156626506024" y="-8.939759036144578"/>
      <point x="620.9156626506024" y="85.2289156626506"/>
      <point x="649.8554216867469" y="269.4578313253012" type="curve" smooth="yes"/>
      <point x="718.4457831325301" y="705.0" type="line"/>
      <point x="636.5060240963855" y="705.0" type="line"/>
      <point x="567.9759036144578" y="273.28915662650604" type="line" smooth="yes"/>
      <point x="544.2650602409639" y="126.96385542168674"/>
      <point x="470.6024096385542" y="64.48192771084338"/>
      <point x="339.86746987951807" y="64.48192771084338" type="curve" smooth="yes"/>
      <point x="205.25301204819277" y="64.48192771084338"/>
      <point x="148.18072289156626" y="139.8433734939759"/>
      <point x="171.89156626506022" y="289.51807228915663" type="curve" smooth="yes"/>
      <point x="237.48192771084337" y="705.0" type="line"/>
      <point x="155.0722891566265" y="705.0" type="line"/>
      <point x="90.48192771084338" y="296.92771084337346" type="line" smooth="yes"/>
      <point x="58.07228915662651" y="92.93975903614458"/>
      <point x="156.75903614457832" y="-8.939759036144578"/>
    </contour>
  </outline>
</glyph>
<glyph name="V" format="2">
  <advance width="688.6144578313254"/>
  <unicode hex="0056"/>
  <anchor x="305.8072289156627" y="0.0" name="bottom"/>
  <anchor x="416.3373493975904" y="705.0" name="top"/>
  <outline>
    <contour>
      <point x="267.71084337349396" y="0.0" type="line"/>
      <point x="341.8433734939759" y="0.0" type="line"/>
      <point x="762.5421686746988" y="705.0" type="line"/>
      <point x="670.3734939759036" y="705.0" type="line"/>
      <point x="294.8072289156627" y="66.28915662650603" type="line"/>
      <point x="327.73493975903614" y="66.28915662650603" type="line"/>
      <point x="155.0120481927711" y="705.0" type="line"/>
      <point x="72.07228915662651" y="705.0" type="line"/>
    </contour>
  </outline>
</glyph>
<glyph name="W" format="2">
  <advance width="1101.3373493975903"/>
  <unicode hex="0057"/>
  <anchor x="512.1686746987951" y="0.0" name="bottom"/>
  <anchor x="622.2289156626506" y="705.0" name="top"/>
  <outline>
    <contour>
      <point x="237.8313253012048" y="0.0" type="line"/>
      <point x="309.3734939759036" y="0.0" type="line"/>
      <point x="619.1807228915663" y="609.9156626506024" type="line"/>
      <point x="597.7710843373494" y="609.9156626506024" type="line"/>
      <point x="712.9036144578313" y="0.0" type="line"/>
      <point x="785.5060240963855" y="0.0" type="line"/>
      <point x="1144.3253012048192" y="705.0" type="line"/>
      <point x="1057.9156626506026" y="705.0" type="line"/>
      <point x="738.7590361445783" y="69.74698795180723" type="line"/>
      <point x="769.9879518072289" y="69.74698795180723" type="line"/>
      <point x="652.7951807228916" y="705.0" type="line"/>
      <point x="587.0120481927711" y="705.0" type="line"/>
      <point x="264.9759036144578" y="69.74698795180723" type="line"/>
      <point x="300.2048192771084" y="69.74698795180723" type="line"/>
      <point x="184.0120481927711" y="705.0" type="line"/>
      <point x="103.01204819277108" y="705.0" type="line"/>
    </contour>
  </outline>
</glyph>
<glyph name="X" format="2">
  <advance width="650.2650602409639"/>
  <unicode hex="0058"/>
  <anchor x="286.9277108433735" y="0.0" name="bottom"/>
  <anchor x="398.45783132530124" y="705.0" name="top"/>
  <outline>
    <contour>
      <point x="-28.566265060240966" y="0.0" type="line"/>
      <point x="73.30120481927712" y="0.0" type="line"/>
      <point x="352.9277108433735" y="319.4457831325301" type="line"/>
      <point x="326.4096385542169" y="319.4457831325301" type="line"/>
      <point x="511.25301204819283" y="0.0" type="line"/>
      <point x="602.3614457831326" y="0.0" type="line"/>
      <point x="380.3132530120482" y="378.98795180722897" type="line"/>
      <point x="380.3132530120482" y="341.1927710843374" type="line"/>
      <point x="702.1807228915662" y="705.0" type="line"/>
      <point x="600.3132530120482" y="705.0" type="line"/>
      <point x="339.578313253012" y="404.3855421686747" type="line"/>
      <point x="358.9759036144578" y="404.3855421686747" type="line"/>
      <point x="186.7831325301205" y="705.0" type="line"/>
      <point x="96.6144578313253" y="705.0" type="line"/>
      <point x="307.0120481927711" y="345.2530120481928" type="line"/>
      <point x="307.0120481927711" y="376.45783132530124" type="line"/>
    </contour>
  </outline>
</glyph>
<glyph name="Y" format="2">
  <advance width="596.2650602409639"/>
  <unicode hex="0059"/>
  <anchor x="258.86746987951807" y="0.0" name="bottom"/>
  <anchor x="363.04819277108436" y="705.0" name="top"/>
  <anchor x="89.53012048192771" y="705.0" name="topleft"/>
  <outline>
    <contour>
      <point x="217.66265060240966" y="0.0" type="line"/>
      <point x="300.0722891566265" y="0.0" type="line"/>
      <point x="358.0722891566265" y="365.12048192771084" type="line"/>
      <point x="330.26506024096386" y="308.26506024096386" type="line"/>
      <point x="681.5421686746988" y="705.0" type="line"/>
      <point x="582.0843373493975" y="705.0" type="line"/>
      <point x="304.9277108433735" y="391.0240963855422" type="line"/>
      <point x="326.566265060241" y="391.0240963855422" type="line"/>
      <point x="149.89156626506025" y="705.0" type="line"/>
      <point x="60.25301204819277" y="705.0" type="line"/>
      <point x="284.3614457831326" y="308.26506024096386" type="line"/>
      <point x="275.66265060240966" y="365.12048192771084" type="line"/>
    </contour>
  </outline>
</glyph>
<glyph name="Z" format="2">
  <advance width="589.0963855421687"/>
  <unicode hex="005A"/>
  <anchor x="279.10843373493975" y="0.0" name="bottom"/>
  <anchor x="369.1686746987952" y="705.0" name="top"/>
  <outline>
    <contour>
      <point x="9.590361445783131" y="0.0" type="line"/>
      <point x="529.0361445783133" y="0.0" type="line"/>
      <point x="540.2048192771084" y="70.95180722891567" type="line"/>
      <point x="97.81927710843374" y="70.95180722891567" type="line"/>
      <point x="99.2289156626506" y="39.963855421686745" type="line"/>
      <point x="616.3975903614459" y="644.3975903614457" type="line"/>
      <point x="626.0963855421687" y="705.0" type="line"/>
      <point x="121.59036144578313" y="705.0" type="line"/>
      <point x="109.89156626506023" y="634.0481927710844" type="line"/>
      <point x="537.3373493975904" y="634.0481927710844" type="line"/>
      <point x="536.3975903614457" y="665.5060240963855" type="line"/>
      <point x="19.289156626506024" y="61.07228915662651" type="line"/>
    </contour>
  </outline>
</glyph>
<glyph name="bracketleft" format="2">
  <advance width="315.30120481927713"/>
  <unicode hex="005B"/>
  <outline>
    <contour>
      <point x="42.18072289156626" y="-180.0" type="line"/>
      <point x="240.54216867469881" y="-180.0" type="line"/>
      <point x="250.7710843373494" y="-116.21686746987952" type="line"/>
      <point x="133.40963855421685" y="-116.21686746987952" type="line"/>
      <point x="252.95180722891564" y="641.2168674698795" type="line"/>
      <point x="370.3132530120482" y="641.2168674698795" type="line"/>
      <point x="380.5421686746988" y="705.0" type="line"/>
      <point x="182.18072289156626" y="705.0" type="line"/>
    </contour>
  </outline>
</glyph>
<glyph name="backslash" format="2">
  <advance width="282.7831325301205"/>
  <unicode hex="005C"/>
  <outline>
    <contour>
      <point x="190.93975903614458" y="-65.04819277108435" type="line"/>
      <point x="255.19277108433732" y="-51.93975903614458" type="line"/>
      <point x="123.37349397590361" y="753.0481927710844" type="line"/>
      <point x="59.59036144578313" y="740.4096385542168" type="line"/>
    </contour>
  </outline>
</glyph>
<glyph name="bracketright" format="2">
  <advance width="315.30120481927713"/>
  <unicode hex="005D"/>
  <outline>
    <contour>
      <point x="-59.71084337349397" y="-180.0" type="line"/>
      <point x="139.12048192771084" y="-180.0" type="line"/>
      <point x="279.12048192771084" y="705.0" type="line"/>
      <point x="80.75903614457832" y="705.0" type="line"/>
      <point x="70.53012048192771" y="641.2168674698795" type="line"/>
      <point x="187.89156626506025" y="641.2168674698795" type="line"/>
      <point x="68.34939759036145" y="-116.21686746987952" type="line"/>
      <point x="-49.48192771084337" y="-116.21686746987952" type="line"/>
    </contour>
  </outline>
</glyph>
<glyph name="asciicircum" format="2">
  <advance width="600.0"/>
  <unicode hex="005E"/>
  <outline>
    <contour>
      <point x="32.65060240963855" y="140.0" type="line"/>
      <point x="103.49397590361446" y="140.0" type="line"/>
      <point x="378.9277108433735" y="594.7710843373494" type="line"/>
      <point x="338.6024096385542" y="594.7710843373494" type="line"/>
      <point x="471.4457831325301" y="140.0" type="line"/>
      <point x="535.3493975903615" y="140.0" type="line"/>
      <point x="392.6265060240964" y="628.0" type="line"/>
      <point x="329.3734939759036" y="628.0" type="line"/>
    </contour>
  </outline>
</glyph>
<glyph name="underscore" format="2">
  <advance width="500.0"/>
  <unicode hex="005F"/>
  <outline>
    <contour>
      <point x="-26.289156626506024" y="-52.734939759036145" type="line"/>
      <point x="432.71084337349396" y="-52.734939759036145" type="line"/>
      <point x="441.0" y="0.0" type="line"/>
      <point x="-18.0" y="0.0" type="line"/>
    </contour>
  </outline>
</glyph>
<glyph name="a" format="2">
  <advance width="529.5060240963855"/>
  <unicode hex="0061"/>
  <anchor x="235.5180722891566" y="0.0" name="bottom"/>
  <anchor x="401.45783132530124" y="0.0" name="ogonek"/>
  <anchor x="304.69879518072287" y="484.0" name="top"/>
  <outline>
    <contour>
      <point x="199.36144578313255" y="-8.939759036144578" type="curve" smooth="yes"/>
      <point x="269.48192771084337" y="-8.939759036144578"/>
      <point x="340.8433734939759" y="28.710843373493972"/>
      <point x="368.2530120481928" y="110.36144578313254" type="curve"/>
      <point x="358.2530120481928" y="110.36144578313254" type="line"/>
      <point x="341.1927710843374" y="0.0" type="line"/>
      <point x="417.90361445783134" y="0.0" type="line"/>
      <point x="464.0240963855422" y="290.2530120481928" type="line" smooth="yes"/>
      <point x="483.49397590361446" y="413.5421686746988"/>
      <point x="430.55421686746985" y="495.28915662650604"/>
      <point x="294.7590361445783" y="495.28915662650604" type="curve" smooth="yes"/>
      <point x="222.59036144578315" y="495.28915662650604"/>
      <point x="146.0120481927711" y="472.8192771084337"/>
      <point x="98.13253012048193" y="438.34939759036143" type="curve"/>
      <point x="120.83132530120481" y="378.855421686747" type="line"/>
      <point x="173.24096385542168" y="414.4457831325301"/>
      <point x="226.12048192771084" y="430.4457831325301"/>
      <point x="286.1807228915663" y="430.4457831325301" type="curve" smooth="yes"/>
      <point x="370.2530120481928" y="430.4457831325301"/>
      <point x="402.3734939759036" y="388.5542168674699"/>
      <point x="389.2530120481928" y="311.71084337349396" type="curve" smooth="yes"/>
      <point x="369.72289156626505" y="190.06024096385542" type="line" smooth="yes"/>
      <point x="356.0722891566265" y="103.09638554216868"/>
      <point x="291.28915662650604" y="51.6144578313253"/>
      <point x="219.27710843373495" y="51.6144578313253" type="curve" smooth="yes"/>
      <point x="167.3855421686747" y="51.6144578313253"/>
      <point x="121.84337349397589" y="82.91566265060241"/>
      <point x="121.84337349397589" y="142.10843373493975" type="curve" smooth="yes"/>
      <point x="121.84337349397589" y="207.3012048192771"/>
      <point x="171.85542168674698" y="228.6024096385542"/>
      <point x="325.90361445783134" y="228.6024096385542" type="curve" smooth="yes"/>
      <point x="386.78313253012044" y="228.6024096385542" type="line"/>
      <point x="395.13253012048193" y="282.04819277108436" type="line"/>
      <point x="314.6024096385542" y="282.04819277108436" type="line" smooth="yes"/>
      <point x="123.01204819277108" y="282.04819277108436"/>
      <point x="39.60240963855422" y="239.22891566265062"/>
      <point x="39.60240963855422" y="137.28915662650604" type="curve" smooth="yes"/>
      <point x="39.60240963855422" y="52.22891566265061"/>
      <point x="114.13253012048193" y="-8.939759036144578"/>
    </contour>
  </outline>
</glyph>
<glyph name="b" format="2">
  <advance width="583.0361445783133"/>
  <unicode hex="0062"/>
  <anchor x="269.5903614457831" y="0.0" name="bottom"/>
  <anchor x="379.10843373493975" y="705.0" name="top"/>
  <outline>
    <contour>
      <point x="295.2048192771084" y="-8.939759036144578" type="curve" smooth="yes"/>
      <point x="450.85542168674704" y="-8.939759036144578"/>
      <point x="539.0843373493976" y="126.2409638554217"/>
      <point x="539.0843373493976" y="286.93975903614455" type="curve" smooth="yes"/>
      <point x="539.0843373493976" y="415.3493975903615"/>
      <point x="464.49397590361446" y="495.28915662650604"/>
      <point x="351.433734939759" y="495.28915662650604" type="curve" smooth="yes"/>
      <point x="267.54216867469876" y="495.28915662650604"/>
      <point x="202.89156626506022" y="452.51807228915663"/>
      <point x="167.95180722891567" y="383.21686746987956" type="curve"/>
      <point x="179.01204819277106" y="383.21686746987956" type="line"/>
      <point x="230.13253012048193" y="705.0" type="line"/>
      <point x="149.13253012048193" y="705.0" type="line"/>
      <point x="37.13253012048193" y="0.0" type="line"/>
      <point x="116.72289156626506" y="0.0" type="line"/>
      <point x="133.84337349397592" y="110.25301204819277" type="line"/>
      <point x="127.78313253012047" y="110.25301204819277" type="line"/>
      <point x="150.78313253012047" y="29.71084337349398"/>
      <point x="217.02409638554218" y="-8.939759036144578"/>
    </contour>
    <contour>
      <point x="285.4578313253012" y="56.373493975903614" type="curve" smooth="yes"/>
      <point x="203.08433734939757" y="56.373493975903614"/>
      <point x="154.0722891566265" y="106.79518072289157"/>
      <point x="154.0722891566265" y="202.2289156626506" type="curve" smooth="yes"/>
      <point x="154.0722891566265" y="328.0722891566265"/>
      <point x="215.08433734939757" y="429.9759036144578"/>
      <point x="325.69879518072287" y="429.9759036144578" type="curve" smooth="yes"/>
      <point x="408.0722891566265" y="429.9759036144578"/>
      <point x="457.0843373493976" y="379.55421686746985"/>
      <point x="457.0843373493976" y="284.1204819277108" type="curve" smooth="yes"/>
      <point x="457.0843373493976" y="158.27710843373492"/>
      <point x="396.0722891566265" y="56.373493975903614"/>
    </contour>
  </outline>
</glyph>
<glyph name="c" format="2">
  <advance width="462.9879518072289"/>
  <unicode hex="0063"/>
  <anchor x="239.16867469879514" y="0.0" name="bottom"/>
  <anchor x="303.5180722891566" y="484.0" name="top"/>
  <outline>
    <contour>
      <point x="258.33734939759034" y="-8.939759036144578" type="curve" smooth="yes"/>
      <point x="314.8072289156626" y="-8.939759036144578"/>
      <point x="380.09638554216866" y="12.180722891566266"/>
      <point x="418.6265060240964" y="47.83132530120482" type="curve"/>
      <point x="394.92771084337346" y="107.67469879518072" type="line"/>
      <point x="356.7469879518072" y="73.37349397590361"/>
      <point x="308.566265060241" y="57.31325301204819"/>
      <point x="267.855421686747" y="57.31325301204819" type="curve" smooth="yes"/>
      <point x="168.19277108433735" y="57.31325301204819"/>
      <point x="127.89156626506025" y="116.79518072289157"/>
      <point x="127.89156626506025" y="207.63855421686745" type="curve" smooth="yes"/>
      <point x="127.89156626506025" y="316.0722891566265"/>
      <point x="178.84337349397592" y="429.03614457831327"/>
      <point x="307.68674698795184" y="429.03614457831327" type="curve" smooth="yes"/>
      <point x="360.04819277108436" y="429.03614457831327"/>
      <point x="404.04819277108436" y="411.9759036144578"/>
      <point x="437.7590361445783" y="378.144578313253" type="curve"/>
      <point x="467.2168674698795" y="435.9879518072289" type="line"/>
      <point x="431.86746987951807" y="471.6385542168675"/>
      <point x="369.4578313253012" y="495.28915662650604"/>
      <point x="304.9879518072289" y="495.28915662650604" type="curve" smooth="yes"/>
      <point x="124.0" y="495.28915662650604"/>
      <point x="44.95180722891566" y="350.0481927710843"/>
      <point x="44.95180722891566" y="207.16867469879517" type="curve" smooth="yes"/>
      <point x="44.95180722891566" y="78.93975903614458"/>
      <point x="114.0" y="-8.939759036144578"/>
    </contour>
  </outline>
</glyph>
<glyph name="d" format="2">
  <advance width="583.0361445783133"/>
  <unicode hex="0064"/>
  <anchor x="258.45783132530124" y="0.0" name="bottom"/>
  <anchor x="292.7590361445783" y="245.46987951807228" name="center"/>
  <anchor x="472.1686746987952" y="583.7590361445783" name="stroke"/>
  <anchor x="342.03614457831327" y="536.156626506024" name="top"/>
  <anchor x="626.2048192771084" y="705.0" name="topright"/>
  <outline>
    <contour>
      <point x="231.1325301204819" y="-8.939759036144578" type="curve" smooth="yes"/>
      <point x="315.0240963855422" y="-8.939759036144578"/>
      <point x="379.6746987951807" y="34.30120481927711"/>
      <point x="414.6144578313253" y="103.13253012048193" type="curve"/>
      <point x="405.433734939759" y="103.13253012048193" type="line"/>
      <point x="388.8433734939759" y="0.0" type="line"/>
      <point x="468.43373493975906" y="0.0" type="line"/>
      <point x="580.433734939759" y="705.0" type="line"/>
      <point x="499.43373493975906" y="705.0" type="line"/>
      <point x="447.7831325301205" y="376.566265060241" type="line"/>
      <point x="454.7831325301205" y="376.0963855421687" type="line"/>
      <point x="431.7831325301205" y="456.6385542168675"/>
      <point x="365.5421686746988" y="495.28915662650604"/>
      <point x="287.3614457831325" y="495.28915662650604" type="curve" smooth="yes"/>
      <point x="132.18072289156626" y="495.28915662650604"/>
      <point x="43.95180722891566" y="360.5783132530121"/>
      <point x="43.95180722891566" y="199.40963855421685" type="curve" smooth="yes"/>
      <point x="43.95180722891566" y="71.46987951807229"/>
      <point x="118.54216867469879" y="-8.939759036144578"/>
    </contour>
    <contour>
      <point x="257.3373493975904" y="56.373493975903614" type="curve" smooth="yes"/>
      <point x="174.96385542168673" y="56.373493975903614"/>
      <point x="125.95180722891567" y="106.79518072289157"/>
      <point x="125.95180722891567" y="202.2289156626506" type="curve" smooth="yes"/>
      <point x="125.95180722891567" y="328.0722891566265"/>
      <point x="186.96385542168673" y="429.9759036144578"/>
      <point x="297.5783132530121" y="429.9759036144578" type="curve" smooth="yes"/>
      <point x="379.9518072289157" y="429.9759036144578"/>
      <point x="428.9638554216868" y="379.55421686746985"/>
      <point x="428.9638554216868" y="284.1204819277108" type="curve" smooth="yes"/>
      <point x="428.9638554216868" y="158.27710843373492"/>
      <point x="367.9518072289157" y="56.373493975903614"/>
    </contour>
  </outline>
</glyph>
<glyph name="e" format="2">
  <advance width="532.3975903614457"/>
  <unicode hex="0065"/>
  <anchor x="249.6987951807229" y="0.0" name="bottom"/>
  <anchor x="320.3855421686747" y="0.0" name="ogonek"/>
  <anchor x="312.04819277108436" y="484.0" name="top"/>
  <outline>
    <contour>
      <point x="269.9277108433735" y="-8.939759036144578" type="curve" smooth="yes"/>
      <point x="340.15662650602405" y="-8.939759036144578"/>
      <point x="413.62650602409633" y="14.060240963855422"/>
      <point x="458.50602409638554" y="57.24096385542168" type="curve"/>
      <point x="432.2771084337349" y="112.20481927710844" type="line"/>
      <point x="388.1566265060241" y="72.90361445783132"/>
      <point x="335.21686746987956" y="56.373493975903614"/>
      <point x="274.03614457831327" y="56.373493975903614" type="curve" smooth="yes"/>
      <point x="163.3734939759036" y="56.373493975903614"/>
      <point x="106.5421686746988" y="131.1566265060241"/>
      <point x="125.19277108433735" y="245.06024096385542" type="curve" smooth="yes"/>
      <point x="129.13253012048193" y="269.16867469879514" type="line" smooth="yes"/>
      <point x="142.7831325301205" y="350.7710843373494"/>
      <point x="193.67469879518075" y="435.2048192771084"/>
      <point x="302.81927710843377" y="435.2048192771084" type="curve" smooth="yes"/>
      <point x="404.78313253012044" y="435.2048192771084"/>
      <point x="438.49397590361446" y="359.4216867469879"/>
      <point x="425.3734939759036" y="265.578313253012" type="curve"/>
      <point x="443.433734939759" y="278.9879518072289" type="line"/>
      <point x="114.66265060240964" y="278.9879518072289" type="line"/>
      <point x="106.78313253012048" y="225.5421686746988" type="line"/>
      <point x="488.566265060241" y="225.5421686746988" type="line"/>
      <point x="491.566265060241" y="247.3012048192771" type="line" smooth="yes"/>
      <point x="509.68674698795184" y="375.7590361445783"/>
      <point x="456.3975903614458" y="495.28915662650604"/>
      <point x="303.8192771084337" y="495.28915662650604" type="curve" smooth="yes"/>
      <point x="144.289156626506" y="495.28915662650604"/>
      <point x="44.42168674698795" y="363.86746987951807"/>
      <point x="44.42168674698795" y="205.63855421686748" type="curve" smooth="yes"/>
      <point x="44.42168674698795" y="73.28915662650603"/>
      <point x="130.93975903614458" y="-8.939759036144578"/>
    </contour>
  </outline>
</glyph>
<glyph name="f" format="2">
  <advance width="333.2530120481928"/>
  <unicode hex="0066"/>
  <anchor x="103.97590361445783" y="0.0" name="bottom"/>
  <anchor x="215.50602409638554" y="705.0" name="top"/>
  <outline>
    <contour>
      <point x="63.71084337349397" y="0.0" type="line"/>
      <point x="144.710843373494" y="0.0" type="line"/>
      <point x="211.95180722891567" y="423.09638554216866" type="line"/>
      <point x="350.96385542168673" y="423.09638554216866" type="line"/>
      <point x="361.1927710843373" y="486.34939759036143" type="line"/>
      <point x="212.83132530120483" y="486.34939759036143" type="line"/>
      <point x="219.710843373494" y="477.9397590361446" type="line"/>
      <point x="226.7710843373494" y="521.8915662650602" type="line" smooth="yes"/>
      <point x="238.89156626506025" y="599.0843373493976"/>
      <point x="280.72289156626505" y="637.0361445783133"/>
      <point x="361.55421686746985" y="642.566265060241" type="curve" smooth="yes"/>
      <point x="410.3734939759036" y="645.566265060241" type="line"/>
      <point x="410.2530120481928" y="708.4096385542168" type="line"/>
      <point x="360.26506024096386" y="705.9397590361446" type="line" smooth="yes"/>
      <point x="232.65060240963854" y="700.4698795180723"/>
      <point x="163.24096385542168" y="633.2409638554217"/>
      <point x="146.3012048192771" y="523.6024096385543" type="curve" smooth="yes"/>
      <point x="138.71084337349396" y="474.9397590361446" type="line"/>
      <point x="151.5301204819277" y="486.34939759036143" type="line"/>
      <point x="46.12048192771084" y="486.34939759036143" type="line"/>
      <point x="35.89156626506024" y="423.09638554216866" type="line"/>
      <point x="130.95180722891564" y="423.09638554216866" type="line"/>
    </contour>
  </outline>
</glyph>
<glyph name="g" format="2">
  <advance width="585.9759036144578"/>
  <unicode hex="0067"/>
  <anchor x="330.2289156626506" y="484.0" name="top"/>
  <outline>
    <contour>
      <point x="248.04819277108436" y="-188.93975903614458" type="curve" smooth="yes"/>
      <point x="377.73493975903614" y="-188.93975903614458"/>
      <point x="451.7831325301205" y="-121.42168674698794"/>
      <point x="473.2530120481928" y="13.27710843373494" type="curve" smooth="yes"/>
      <point x="548.3734939759036" y="486.34939759036143" type="line"/>
      <point x="468.7831325301205" y="486.34939759036143" type="line"/>
      <point x="451.66265060240966" y="377.03614457831327" type="line"/>
      <point x="459.13253012048193" y="376.09638554216866" type="line"/>
      <point x="436.13253012048193" y="456.6385542168675"/>
      <point x="369.89156626506025" y="495.28915662650604"/>
      <point x="290.2409638554217" y="495.28915662650604" type="curve" smooth="yes"/>
      <point x="134.06024096385542" y="495.28915662650604"/>
      <point x="44.42168674698795" y="359.6385542168675"/>
      <point x="44.42168674698795" y="210.34939759036143" type="curve" smooth="yes"/>
      <point x="44.42168674698795" y="89.06024096385542"/>
      <point x="121.36144578313252" y="11.46987951807229"/>
      <point x="237.77108433734938" y="11.46987951807229" type="curve" smooth="yes"/>
      <point x="321.7228915662651" y="11.46987951807229"/>
      <point x="387.7831325301205" y="53.3012048192771"/>
      <point x="420.8433734939759" y="123.0722891566265" type="curve"/>
      <point x="412.37349397590367" y="124.0722891566265" type="line"/>
      <point x="394.1927710843374" y="8.927710843373497" type="line" smooth="yes"/>
      <point x="379.60240963855426" y="-82.20481927710843"/>
      <point x="324.3614457831325" y="-123.62650602409639"/>
      <point x="238.5301204819277" y="-123.62650602409639" type="curve" smooth="yes"/>
      <point x="165.7590361445783" y="-123.62650602409639"/>
      <point x="116.59036144578315" y="-99.56626506024097"/>
      <point x="57.53012048192771" y="-58.325301204819276" type="curve"/>
      <point x="29.602409638554217" y="-117.75903614457832" type="line"/>
      <point x="86.24096385542168" y="-160.2289156626506"/>
      <point x="157.87951807228916" y="-188.93975903614458"/>
    </contour>
    <contour>
      <point x="258.8072289156627" y="76.78313253012048" type="curve" smooth="yes"/>
      <point x="174.96385542168673" y="76.78313253012048"/>
      <point x="125.95180722891567" y="126.73493975903615"/>
      <point x="126.42168674698796" y="213.63855421686748" type="curve" smooth="yes"/>
      <point x="126.89156626506025" y="328.07228915662654"/>
      <point x="187.43373493975903" y="429.9759036144578"/>
      <point x="299.51807228915663" y="429.9759036144578" type="curve" smooth="yes"/>
      <point x="383.83132530120486" y="429.9759036144578"/>
      <point x="433.31325301204816" y="379.5542168674699"/>
      <point x="432.8433734939759" y="294.12048192771084" type="curve" smooth="yes"/>
      <point x="432.3734939759036" y="178.6867469879518"/>
      <point x="371.3614457831326" y="76.78313253012048"/>
    </contour>
  </outline>
</glyph>
<glyph name="h" format="2">
  <advance width="568.0361445783133"/>
  <unicode hex="0068"/>
  <anchor x="252.10843373493975" y="0.0" name="bottom"/>
  <anchor x="284.9879518072289" y="246.40963855421685" name="center"/>
  <anchor x="267.51807228915663" y="352.5301204819277" name="dot"/>
  <anchor x="220.33734939759034" y="583.7590361445783" name="stroke"/>
  <anchor x="357.5783132530121" y="705.0" name="top"/>
  <anchor x="265.49397590361446" y="705.0" name="topright"/>
  <outline>
    <contour>
      <point x="37.13253012048193" y="0.0" type="line"/>
      <point x="118.13253012048192" y="0.0" type="line"/>
      <point x="160.13253012048193" y="263.53012048192767" type="line" smooth="yes"/>
      <point x="175.78313253012047" y="363.90361445783134"/>
      <point x="233.32530120481928" y="428.56626506024094"/>
      <point x="331.4096385542169" y="428.56626506024094" type="curve" smooth="yes"/>
      <point x="406.1927710843373" y="428.56626506024094"/>
      <point x="436.08433734939763" y="384.144578313253"/>
      <point x="421.43373493975906" y="293.65060240963857" type="curve" smooth="yes"/>
      <point x="374.90361445783134" y="0.0" type="line"/>
      <point x="455.90361445783134" y="0.0" type="line"/>
      <point x="502.43373493975906" y="294.06024096385545" type="line" smooth="yes"/>
      <point x="523.9036144578313" y="431.28915662650604"/>
      <point x="462.96385542168673" y="495.28915662650604"/>
      <point x="355.43373493975906" y="495.28915662650604" type="curve" smooth="yes"/>
      <point x="265.6024096385542" y="495.28915662650604"/>
      <point x="199.48192771084337" y="451.51807228915663"/>
      <point x="166.48192771084337" y="376.2168674698795" type="curve"/>
      <point x="178.01204819277106" y="376.2168674698795" type="line"/>
      <point x="230.13253012048193" y="705.0" type="line"/>
      <point x="149.13253012048193" y="705.0" type="line"/>
    </contour>
  </outline>
</glyph>
<glyph name="i" format="2">
  <advance width="232.20481927710844"/>
  <unicode hex="0069"/>
  <anchor x="77.33734939759036" y="0.0" name="bottom"/>
  <anchor x="105.3855421686747" y="0.0" name="ogonek"/>
  <outline>
    <contour>
      <point x="124.60240963855422" y="607.2530120481928" type="line"/>
      <point x="223.8433734939759" y="607.2530120481928" type="line"/>
      <point x="238.5421686746988" y="697.9759036144578" type="line"/>
      <point x="139.3012048192771" y="697.9759036144578" type="line"/>
    </contour>
    <contour>
      <point x="36.60240963855422" y="0.0" type="line"/>
      <point x="117.6024096385542" y="0.0" type="line"/>
      <point x="195.07228915662648" y="486.34939759036143" type="line"/>
      <point x="114.07228915662651" y="486.34939759036143" type="line"/>
    </contour>
  </outline>
</glyph>
<glyph name="j" format="2">
  <advance width="235.67469879518072"/>
  <unicode hex="006A"/>
  <outline>
    <contour>
      <point x="127.13253012048192" y="607.2530120481928" type="line"/>
      <point x="226.3734939759036" y="607.2530120481928" type="line"/>
      <point x="241.0722891566265" y="697.9759036144578" type="line"/>
      <point x="141.8313253012048" y="697.9759036144578" type="line"/>
    </contour>
    <contour>
      <point x="-110.54216867469879" y="-193.0" type="line"/>
      <point x="-66.6024096385542" y="-190.0" type="line" smooth="yes"/>
      <point x="42.95180722891567" y="-182.59036144578312"/>
      <point x="101.5421686746988" y="-127.12048192771084"/>
      <point x="119.42168674698796" y="-10.493975903614457" type="curve" smooth="yes"/>
      <point x="198.5421686746988" y="486.34939759036143" type="line"/>
      <point x="117.5421686746988" y="486.34939759036143" type="line"/>
      <point x="38.01204819277109" y="-14.951807228915662" type="line" smooth="yes"/>
      <point x="26.891566265060245" y="-83.67469879518072"/>
      <point x="-9.060240963855424" y="-121.62650602409639"/>
      <point x="-71.54216867469879" y="-126.1566265060241" type="curve" smooth="yes"/>
      <point x="-115.36144578313252" y="-130.09638554216866" type="line"/>
    </contour>
  </outline>
</glyph>
<glyph name="k" format="2">
  <advance width="499.95180722891564"/>
  <unicode hex="006B"/>
  <anchor x="218.73493975903614" y="0.0" name="bottom"/>
  <anchor x="357.10843373493975" y="705.0" name="top"/>
  <outline>
    <contour>
      <point x="37.60240963855422" y="0.0" type="line"/>
      <point x="118.6024096385542" y="0.0" type="line"/>
      <point x="154.66265060240963" y="230.42168674698794" type="line"/>
      <point x="156.66265060240963" y="230.42168674698794" type="line"/>
      <point x="372.0602409638554" y="0.0" type="line"/>
      <point x="469.87951807228916" y="0.0" type="line"/>
      <point x="220.31325301204822" y="271.5180722891566" type="line"/>
      <point x="217.13253012048193" y="225.46987951807228" type="line"/>
      <point x="522.0481927710844" y="486.34939759036143" type="line"/>
      <point x="420.2289156626506" y="486.34939759036143" type="line"/>
      <point x="163.01204819277106" y="269.86746987951807" type="line"/>
      <point x="161.01204819277106" y="269.86746987951807" type="line"/>
      <point x="229.6024096385542" y="705.0" type="line"/>
      <point x="148.6024096385542" y="705.0" type="line"/>
    </contour>
  </outline>
</glyph>
<glyph name="l" format="2">
  <advance width="295.67469879518075"/>
  <unicode hex="006C"/>
  <anchor x="149.10843373493975" y="0.0" name="bottom"/>
  <anchor x="144.33734939759034" y="357.0" name="center"/>
  <anchor x="289.5903614457831" y="357.0" name="dot"/>
  <anchor x="189.3975903614458" y="705.0" name="top"/>
  <anchor x="274.90361445783134" y="705.0" name="topright"/>
  <outline>
    <contour>
      <point x="187.33734939759037" y="-8.939759036144578" type="curve" smooth="yes"/>
      <point x="206.03614457831324" y="-8.939759036144578"/>
      <point x="228.3855421686747" y="-6.469879518072289"/>
      <point x="245.73493975903614" y="-1.0" type="curve"/>
      <point x="258.49397590361446" y="64.72289156626506" type="line"/>
      <point x="242.43373493975903" y="61.66265060240964"/>
      <point x="226.9036144578313" y="59.66265060240964"/>
      <point x="211.3132530120482" y="59.66265060240964" type="curve" smooth="yes"/>
      <point x="153.95180722891567" y="59.66265060240964"/>
      <point x="131.8313253012048" y="88.3132530120482"/>
      <point x="142.95180722891564" y="158.97590361445782" type="curve" smooth="yes"/>
      <point x="229.6024096385542" y="705.0" type="line"/>
      <point x="148.6024096385542" y="705.0" type="line"/>
      <point x="61.95180722891567" y="158.50602409638554" type="line" smooth="yes"/>
      <point x="44.5421686746988" y="48.168674698795186"/>
      <point x="90.24096385542168" y="-8.939759036144578"/>
    </contour>
  </outline>
</glyph>
<glyph name="m" format="2">
  <advance width="856.3253012048193"/>
  <unicode hex="006D"/>
  <anchor x="390.3975903614458" y="0.0" name="bottom"/>
  <anchor x="466.9277108433735" y="484.0" name="top"/>
  <outline>
    <contour>
      <point x="39.13253012048193" y="0.0" type="line"/>
      <point x="120.13253012048192" y="0.0" type="line"/>
      <point x="162.13253012048193" y="263.53012048192767" type="line" smooth="yes"/>
      <point x="178.78313253012047" y="366.96385542168673"/>
      <point x="234.3855421686747" y="428.56626506024094"/>
      <point x="315.7590361445783" y="428.56626506024094" type="curve" smooth="yes"/>
      <point x="384.54216867469876" y="428.56626506024094"/>
      <point x="410.84337349397595" y="385.144578313253"/>
      <point x="397.1927710843374" y="297.71084337349396" type="curve" smooth="yes"/>
      <point x="349.66265060240966" y="0.0" type="line"/>
      <point x="430.66265060240966" y="0.0" type="line"/>
      <point x="472.66265060240966" y="263.53012048192767" type="line" smooth="yes"/>
      <point x="489.3132530120482" y="366.96385542168673"/>
      <point x="544.4457831325301" y="428.56626506024094"/>
      <point x="626.289156626506" y="428.56626506024094" type="curve" smooth="yes"/>
      <point x="695.0722891566265" y="428.56626506024094"/>
      <point x="721.3734939759036" y="385.144578313253"/>
      <point x="707.722891566265" y="297.71084337349396" type="curve" smooth="yes"/>
      <point x="661.1927710843373" y="0.0" type="line"/>
      <point x="742.1927710843373" y="0.0" type="line"/>
      <point x="788.722891566265" y="294.06024096385545" type="line" smooth="yes"/>
      <point x="810.1927710843373" y="432.28915662650604"/>
      <point x="751.8433734939758" y="495.28915662650604"/>
      <point x="650.3734939759036" y="495.28915662650604" type="curve" smooth="yes"/>
      <point x="563.6626506024096" y="495.28915662650604"/>
      <point x="499.6024096385542" y="450.9879518072289"/>
      <point x="467.7228915662651" y="375.27710843373495" type="curve"/>
      <point x="480.1927710843373" y="371.9277108433735" type="line"/>
      <point x="468.96385542168673" y="452.6385542168675"/>
      <point x="418.3734939759036" y="495.28915662650604"/>
      <point x="341.2530120481928" y="495.28915662650604" type="curve" smooth="yes"/>
      <point x="265.4216867469879" y="495.28915662650604"/>
      <point x="202.48192771084337" y="453.4578313253012"/>
      <point x="167.07228915662648" y="374.8072289156627" type="curve"/>
      <point x="177.07228915662648" y="374.27710843373495" type="line"/>
      <point x="195.66265060240963" y="486.34939759036143" type="line"/>
      <point x="116.60240963855422" y="486.34939759036143" type="line"/>
    </contour>
  </outline>
</glyph>
<glyph name="n" format="2">
  <advance width="568.0361445783133"/>
  <unicode hex="006E"/>
  <anchor x="250.57831325301206" y="0.0" name="bottom"/>
  <anchor x="321.6385542168675" y="484.0" name="top"/>
  <outline>
    <contour>
      <point x="37.13253012048193" y="0.0" type="line"/>
      <point x="118.13253012048192" y="0.0" type="line"/>
      <point x="160.13253012048193" y="263.53012048192767" type="line" smooth="yes"/>
      <point x="175.78313253012047" y="363.90361445783134"/>
      <point x="233.32530120481928" y="428.56626506024094"/>
      <point x="331.4096385542169" y="428.56626506024094" type="curve" smooth="yes"/>
      <point x="406.1927710843373" y="428.56626506024094"/>
      <point x="436.08433734939763" y="384.144578313253"/>
      <point x="421.43373493975906" y="293.65060240963857" type="curve" smooth="yes"/>
      <point x="374.90361445783134" y="0.0" type="line"/>
      <point x="455.90361445783134" y="0.0" type="line"/>
      <point x="502.43373493975906" y="294.06024096385545" type="line" smooth="yes"/>
      <point x="523.9036144578313" y="431.289156626506"/>
      <point x="462.96385542168673" y="495.28915662650604"/>
      <point x="355.43373493975906" y="495.28915662650604" type="curve" smooth="yes"/>
      <point x="265.6024096385542" y="495.28915662650604"/>
      <point x="199.48192771084337" y="451.51807228915663"/>
      <point x="166.48192771084337" y="376.2168674698795" type="curve"/>
      <point x="176.07228915662648" y="376.2168674698795" type="line"/>
      <point x="193.66265060240963" y="486.34939759036143" type="line"/>
      <point x="114.60240963855422" y="486.34939759036143" type="line"/>
    </contour>
  </outline>
</glyph>
<glyph name="p" format="2">
  <advance width="583.0361445783133"/>
  <unicode hex="0070"/>
  <anchor x="250.9879518072289" y="0.0" name="bottom"/>
  <anchor x="327.51807228915663" y="484.0" name="top"/>
  <outline>
    <contour>
      <point x="8.60240963855422" y="-180.0" type="line"/>
      <point x="89.6024096385542" y="-180.0" type="line"/>
      <point x="135.72289156626505" y="110.25301204819277" type="line"/>
      <point x="127.78313253012048" y="110.25301204819277" type="line"/>
      <point x="150.78313253012047" y="29.71084337349398"/>
      <point x="217.02409638554215" y="-8.939759036144578"/>
      <point x="295.2048192771084" y="-8.939759036144578" type="curve" smooth="yes"/>
      <point x="450.3253012048193" y="-8.939759036144578"/>
      <point x="539.0843373493976" y="126.2409638554217"/>
      <point x="539.0843373493976" y="285.8795180722891" type="curve" smooth="yes"/>
      <point x="539.0843373493976" y="415.87951807228916"/>
      <point x="465.0240963855422" y="495.28915662650604"/>
      <point x="351.433734939759" y="495.28915662650604" type="curve" smooth="yes"/>
      <point x="267.5421686746988" y="495.28915662650604"/>
      <point x="202.89156626506022" y="452.5180722891566"/>
      <point x="167.95180722891564" y="383.21686746987956" type="curve"/>
      <point x="177.5421686746988" y="383.21686746987956" type="line"/>
      <point x="193.66265060240963" y="486.34939759036143" type="line"/>
      <point x="114.07228915662651" y="486.34939759036143" type="line"/>
    </contour>
    <contour>
      <point x="285.4578313253012" y="56.373493975903614" type="curve" smooth="yes"/>
      <point x="203.08433734939757" y="56.373493975903614"/>
      <point x="154.0722891566265" y="106.79518072289157"/>
      <point x="154.0722891566265" y="202.2289156626506" type="curve" smooth="yes"/>
      <point x="154.0722891566265" y="328.0722891566265"/>
      <point x="215.08433734939757" y="429.9759036144578"/>
      <point x="325.69879518072287" y="429.9759036144578" type="curve" smooth="yes"/>
      <point x="408.0722891566265" y="429.9759036144578"/>
      <point x="457.0843373493976" y="379.55421686746985"/>
      <point x="457.0843373493976" y="284.1204819277108" type="curve" smooth="yes"/>
      <point x="457.0843373493976" y="158.27710843373492"/>
      <point x="396.0722891566265" y="56.373493975903614"/>
    </contour>
  </outline>
</glyph>
<glyph name="q" format="2">
  <advance width="583.0361445783133"/>
  <unicode hex="0071"/>
  <anchor x="251.92771084337346" y="0.0" name="bottom"/>
  <anchor x="328.92771084337346" y="484.0" name="top"/>
  <outline>
    <contour>
      <point x="359.43373493975906" y="-180.0" type="line"/>
      <point x="440.43373493975906" y="-180.0" type="line"/>
      <point x="545.9036144578313" y="486.34939759036143" type="line"/>
      <point x="466.31325301204816" y="486.34939759036143" type="line"/>
      <point x="449.1927710843373" y="377.03614457831327" type="line"/>
      <point x="454.7831325301205" y="376.09638554216866" type="line"/>
      <point x="431.78313253012044" y="456.6385542168675"/>
      <point x="365.5421686746988" y="495.28915662650604"/>
      <point x="287.3614457831325" y="495.28915662650604" type="curve" smooth="yes"/>
      <point x="132.18072289156626" y="495.28915662650604"/>
      <point x="43.95180722891566" y="360.5783132530121"/>
      <point x="43.95180722891566" y="199.40963855421685" type="curve" smooth="yes"/>
      <point x="43.95180722891566" y="71.46987951807229"/>
      <point x="118.54216867469879" y="-8.939759036144578"/>
      <point x="231.1325301204819" y="-8.939759036144578" type="curve" smooth="yes"/>
      <point x="315.0240963855422" y="-8.939759036144578"/>
      <point x="379.67469879518075" y="34.30120481927711"/>
      <point x="414.61445783132535" y="103.13253012048193" type="curve"/>
      <point x="404.0240963855422" y="103.13253012048193" type="line"/>
    </contour>
    <contour>
      <point x="257.3373493975904" y="56.373493975903614" type="curve" smooth="yes"/>
      <point x="174.96385542168673" y="56.373493975903614"/>
      <point x="125.95180722891567" y="106.79518072289157"/>
      <point x="125.95180722891567" y="202.2289156626506" type="curve" smooth="yes"/>
      <point x="125.95180722891567" y="328.0722891566265"/>
      <point x="186.96385542168673" y="429.9759036144578"/>
      <point x="297.5783132530121" y="429.9759036144578" type="curve" smooth="yes"/>
      <point x="379.9518072289157" y="429.9759036144578"/>
      <point x="428.9638554216868" y="379.55421686746985"/>
      <point x="428.9638554216868" y="284.1204819277108" type="curve" smooth="yes"/>
      <point x="428.9638554216868" y="158.27710843373492"/>
      <point x="367.9518072289157" y="56.373493975903614"/>
    </contour>
  </outline>
</glyph>
<glyph name="r" format="2">
  <advance width="357.5421686746988"/>
  <unicode hex="0072"/>
  <anchor x="78.33734939759036" y="0.0" name="bottom"/>
  <anchor x="250.27710843373492" y="486.5301204819277" name="top"/>
  <outline>
    <contour>
      <point x="37.13253012048193" y="0.0" type="line"/>
      <point x="119.0722891566265" y="0.0" type="line"/>
      <point x="161.19277108433735" y="267.7831325301205" type="line" smooth="yes"/>
      <point x="175.78313253012047" y="358.7951807228916"/>
      <point x="216.14457831325302" y="413.9277108433735"/>
      <point x="323.10843373493975" y="423.51807228915663" type="curve" smooth="yes"/>
      <point x="378.66265060240966" y="428.86746987951807" type="line"/>
      <point x="377.95180722891564" y="498.8192771084337" type="line"/>
      <point x="339.1927710843374" y="495.8192771084337" type="line" smooth="yes"/>
      <point x="247.0722891566265" y="488.7590361445783"/>
      <point x="189.19277108433735" y="440.8192771084337"/>
      <point x="164.66265060240963" y="370.4698795180723" type="curve"/>
      <point x="175.19277108433735" y="370.4698795180723" type="line"/>
      <point x="193.66265060240963" y="486.34939759036143" type="line"/>
      <point x="114.60240963855422" y="486.34939759036143" type="line"/>
    </contour>
  </outline>
</glyph>
<glyph name="s" format="2">
  <advance width="481.10843373493975"/>
  <unicode hex="0073"/>
  <anchor x="212.16867469879517" y="0.0" name="bottom"/>
  <anchor x="271.7590361445783" y="484.0" name="top"/>
  <outline>
    <contour>
      <point x="222.81927710843374" y="-8.939759036144578" type="curve" smooth="yes"/>
      <point x="338.2168674698795" y="-8.939759036144578"/>
      <point x="415.855421686747" y="46.40963855421687"/>
      <point x="415.855421686747" y="140.3975903614458" type="curve" smooth="yes"/>
      <point x="415.855421686747" y="202.21686746987953"/>
      <point x="374.44578313253015" y="242.03614457831324"/>
      <point x="303.9879518072289" y="259.0361445783132" type="curve" smooth="yes"/>
      <point x="209.33734939759037" y="281.7469879518072" type="line" smooth="yes"/>
      <point x="167.91566265060243" y="291.92771084337346"/>
      <point x="149.14457831325302" y="315.7590361445783"/>
      <point x="149.14457831325302" y="347.71084337349396" type="curve" smooth="yes"/>
      <point x="149.14457831325302" y="399.90361445783134"/>
      <point x="194.6867469879518" y="433.26506024096386"/>
      <point x="268.6987951807229" y="433.26506024096386" type="curve" smooth="yes"/>
      <point x="325.4096385542169" y="433.26506024096386"/>
      <point x="374.7590361445783" y="415.67469879518075"/>
      <point x="413.5783132530121" y="378.96385542168673" type="curve"/>
      <point x="442.09638554216866" y="433.5180722891566" type="line"/>
      <point x="404.98795180722897" y="472.10843373493975"/>
      <point x="338.1686746987952" y="495.28915662650604"/>
      <point x="272.04819277108436" y="495.28915662650604" type="curve" smooth="yes"/>
      <point x="149.0722891566265" y="495.28915662650604"/>
      <point x="72.72289156626506" y="430.2409638554217"/>
      <point x="72.72289156626506" y="343.89156626506025" type="curve" smooth="yes"/>
      <point x="72.72289156626506" y="282.60240963855426"/>
      <point x="113.60240963855422" y="238.19277108433735"/>
      <point x="180.18072289156626" y="223.13253012048193" type="curve" smooth="yes"/>
      <point x="274.8313253012048" y="200.42168674698794" type="line" smooth="yes"/>
      <point x="316.13253012048193" y="190.30120481927713"/>
      <point x="339.433734939759" y="168.4698795180723"/>
      <point x="339.433734939759" y="134.57831325301206" type="curve" smooth="yes"/>
      <point x="339.433734939759" y="82.855421686747"/>
      <point x="296.421686746988" y="53.084337349397586"/>
      <point x="224.40963855421688" y="53.084337349397586" type="curve" smooth="yes"/>
      <point x="163.8192771084337" y="53.084337349397586"/>
      <point x="107.65060240963855" y="69.49397590361446"/>
      <point x="60.18072289156626" y="106.67469879518072" type="curve"/>
      <point x="29.662650602409634" y="51.12048192771085" type="line"/>
      <point x="72.83132530120481" y="13.650602409638553"/>
      <point x="144.06024096385542" y="-8.939759036144578"/>
    </contour>
  </outline>
</glyph>
<glyph name="t" format="2">
  <advance width="350.0722891566265"/>
  <unicode hex="0074"/>
  <anchor x="185.15662650602408" y="0.0" name="bottom"/>
  <anchor x="167.6867469879518" y="266.8313253012048" name="center"/>
  <anchor x="201.50602409638554" y="635.0" name="top"/>
  <anchor x="322.49397590361446" y="705.0" name="topright"/>
  <outline>
    <contour>
      <point x="237.85542168674698" y="-8.939759036144578" type="curve" smooth="yes"/>
      <point x="267.2048192771084" y="-8.939759036144578"/>
      <point x="302.55421686746985" y="-1.4096385542168675"/>
      <point x="319.7831325301205" y="8.46987951807229" type="curve"/>
      <point x="311.72289156626505" y="71.19277108433735" type="line"/>
      <point x="295.31325301204816" y="65.19277108433735"/>
      <point x="275.72289156626505" y="60.13253012048193"/>
      <point x="253.07228915662648" y="60.13253012048193" type="curve" smooth="yes"/>
      <point x="187.59036144578312" y="60.13253012048193"/>
      <point x="156.0" y="93.43373493975903"/>
      <point x="169.12048192771084" y="175.1566265060241" type="curve" smooth="yes"/>
      <point x="208.48192771084337" y="423.09638554216866" type="line"/>
      <point x="362.31325301204816" y="423.09638554216866" type="line"/>
      <point x="372.54216867469876" y="486.34939759036143" type="line"/>
      <point x="218.71084337349396" y="486.34939759036143" type="line"/>
      <point x="242.24096385542168" y="635.0" type="line"/>
      <point x="161.24096385542168" y="635.0" type="line"/>
      <point x="137.71084337349396" y="486.34939759036143" type="line"/>
      <point x="42.65060240963855" y="486.34939759036143" type="line"/>
      <point x="32.42168674698795" y="423.09638554216866" type="line"/>
      <point x="128.0120481927711" y="423.09638554216866" type="line"/>
      <point x="87.12048192771084" y="166.6265060240964" type="line" smooth="yes"/>
      <point x="70.18072289156626" y="60.04819277108434"/>
      <point x="124.34939759036145" y="-8.939759036144578"/>
    </contour>
  </outline>
</glyph>
<glyph name="u" format="2">
  <advance width="560.9759036144578"/>
  <unicode hex="0075"/>
  <anchor x="242.04819277108436" y="0.0" name="bottom"/>
  <anchor x="429.45783132530124" y="0.0" name="ogonek"/>
  <anchor x="314.9879518072289" y="485.0" name="top"/>
  <anchor x="457.0602409638554" y="484.0" name="topright"/>
  <outline>
    <contour>
      <point x="210.0722891566265" y="-8.939759036144578" type="curve" smooth="yes"/>
      <point x="295.3734939759036" y="-8.939759036144578"/>
      <point x="362.55421686746985" y="35.3012048192771"/>
      <point x="394.49397590361446" y="110.13253012048193" type="curve"/>
      <point x="384.43373493975906" y="110.13253012048193" type="line"/>
      <point x="367.3132530120482" y="0.0" type="line"/>
      <point x="446.3734939759036" y="0.0" type="line"/>
      <point x="523.3734939759036" y="486.34939759036143" type="line"/>
      <point x="442.3734939759036" y="486.34939759036143" type="line"/>
      <point x="400.8433734939759" y="223.289156626506" type="line" smooth="yes"/>
      <point x="385.1927710843373" y="122.91566265060241"/>
      <point x="327.1807228915663" y="58.25301204819277"/>
      <point x="234.09638554216866" y="58.25301204819277" type="curve" smooth="yes"/>
      <point x="161.84337349397592" y="58.25301204819277"/>
      <point x="131.95180722891567" y="102.20481927710843"/>
      <point x="146.6024096385542" y="192.69879518072287" type="curve" smooth="yes"/>
      <point x="193.13253012048193" y="486.34939759036143" type="line"/>
      <point x="112.13253012048193" y="486.34939759036143" type="line"/>
      <point x="65.60240963855422" y="192.75903614457832" type="line" smooth="yes"/>
      <point x="43.66265060240964" y="55.06024096385542"/>
      <point x="105.07228915662651" y="-8.939759036144578"/>
    </contour>
  </outline>
</glyph>
<glyph name="v" format="2">
  <advance width="514.8072289156627"/>
  <unicode hex="0076"/>
  <anchor x="219.10843373493975" y="0.0" name="bottom"/>
  <anchor x="295.6385542168675" y="484.0" name="top"/>
  <outline>
    <contour>
      <point x="180.0722891566265" y="0.0" type="line"/>
      <point x="256.73493975903614" y="0.0" type="line"/>
      <point x="543.4939759036145" y="486.34939759036143" type="line"/>
      <point x="456.433734939759" y="486.34939759036143" type="line"/>
      <point x="211.80722891566265" y="59.63855421686747" type="line"/>
      <point x="238.6265060240964" y="59.63855421686747" type="line"/>
      <point x="132.7831325301205" y="486.34939759036143" type="line"/>
      <point x="48.72289156626506" y="486.34939759036143" type="line"/>
    </contour>
  </outline>
</glyph>
<glyph name="w" format="2">
  <advance width="840.8072289156627"/>
  <unicode hex="0077"/>
  <anchor x="381.1686746987952" y="0.0" name="bottom"/>
  <anchor x="452.87951807228916" y="484.0" name="top"/>
  <outline>
    <contour>
      <point x="166.3012048192771" y="0.0" type="line"/>
      <point x="243.02409638554218" y="0.0" type="line"/>
      <point x="472.7590361445783" y="437.12048192771084" type="line"/>
      <point x="429.5421686746988" y="437.12048192771084" type="line"/>
      <point x="519.2530120481928" y="0.0" type="line"/>
      <point x="596.4457831325301" y="0.0" type="line"/>
      <point x="854.7831325301205" y="486.34939759036143" type="line"/>
      <point x="770.2530120481928" y="486.34939759036143" type="line"/>
      <point x="550.9277108433735" y="59.9277108433735" type="line"/>
      <point x="573.578313253012" y="59.9277108433735" type="line"/>
      <point x="489.68674698795184" y="486.34939759036143" type="line"/>
      <point x="421.30120481927713" y="486.34939759036143" type="line"/>
      <point x="198.9156626506024" y="59.9277108433735" type="line"/>
      <point x="224.44578313253012" y="59.9277108433735" type="line"/>
      <point x="142.14457831325302" y="486.34939759036143" type="line"/>
      <point x="62.963855421686745" y="486.34939759036143" type="line"/>
    </contour>
  </outline>
</glyph>
<glyph name="x" format="2">
  <advance width="524.7951807228916"/>
  <unicode hex="0078"/>
  <anchor x="223.9277108433735" y="0.0" name="bottom"/>
  <anchor x="300.4578313253012" y="484.0" name="top"/>
  <outline>
    <contour>
      <point x="-24.506024096385545" y="0.0" type="line"/>
      <point x="73.60240963855422" y="0.0" type="line"/>
      <point x="272.566265060241" y="209.02409638554215" type="line"/>
      <point x="247.93975903614458" y="210.55421686746988" type="line"/>
      <point x="382.6024096385542" y="0.0" type="line"/>
      <point x="473.30120481927713" y="0.0" type="line"/>
      <point x="298.3734939759036" y="268.86746987951807" type="line"/>
      <point x="299.433734939759" y="232.48192771084337" type="line"/>
      <point x="538.8313253012047" y="486.34939759036143" type="line"/>
      <point x="440.1927710843373" y="486.34939759036143" type="line"/>
      <point x="259.04819277108436" y="288.7951807228916" type="line"/>
      <point x="280.855421686747" y="288.7951807228916" type="line"/>
      <point x="155.60240963855424" y="486.34939759036143" type="line"/>
      <point x="64.90361445783132" y="486.34939759036143" type="line"/>
      <point x="230.95180722891567" y="230.42168674698794" type="line"/>
      <point x="232.48192771084337" y="268.04819277108436" type="line"/>
    </contour>
  </outline>
</glyph>
<glyph name="y" format="2">
  <advance width="514.3373493975904"/>
  <unicode hex="0079"/>
  <anchor x="350.32530120481925" y="0.0" name="bottom"/>
  <anchor x="283.7590361445783" y="484.0" name="top"/>
  <outline>
    <contour>
      <point x="65.32530120481927" y="-180.0" type="line"/>
      <point x="149.855421686747" y="-180.0" type="line"/>
      <point x="544.0240963855422" y="486.34939759036143" type="line"/>
      <point x="455.96385542168673" y="486.34939759036143" type="line"/>
      <point x="209.80722891566265" y="58.63855421686747" type="line"/>
      <point x="237.6265060240964" y="58.63855421686747" type="line"/>
      <point x="130.78313253012047" y="486.34939759036143" type="line"/>
      <point x="48.25301204819277" y="486.34939759036143" type="line"/>
      <point x="182.1325301204819" y="-10.180722891566266" type="line"/>
      <point x="187.48192771084337" y="24.85542168674699" type="line"/>
    </contour>
  </outline>
</glyph>
<glyph name="z" format="2">
  <advance width="463.3975903614458"/>
  <unicode hex="007A"/>
  <anchor x="210.34939759036146" y="0.0" name="bottom"/>
  <anchor x="273.2289156626506" y="484.0" name="top"/>
  <outline>
    <contour>
      <point x="16.83132530120482" y="0.0" type="line"/>
      <point x="394.6867469879518" y="0.0" type="line"/>
      <point x="404.91566265060237" y="62.72289156626506" type="line"/>
      <point x="98.01204819277109" y="62.72289156626506" type="line"/>
      <point x="101.48192771084338" y="40.32530120481928" type="line"/>
      <point x="452.39759036144574" y="433.3855421686747" type="line"/>
      <point x="461.15662650602405" y="486.34939759036143" type="line"/>
      <point x="93.83132530120483" y="486.34939759036143" type="line"/>
      <point x="83.60240963855422" y="423.6265060240964" type="line"/>
      <point x="377.09638554216866" y="423.6265060240964" type="line"/>
      <point x="373.6265060240964" y="444.0843373493976" type="line"/>
      <point x="25.590361445783135" y="53.433734939759034" type="line"/>
    </contour>
  </outline>
</glyph>
<glyph name="braceleft" format="2">
  <advance width="352.30120481927713"/>
  <unicode hex="007B"/>
  <outline>
    <contour>
      <point x="201.9156626506024" y="-180.0" type="curve" smooth="yes"/>
      <point x="277.07228915662654" y="-180.0" type="line"/>
      <point x="287.30120481927713" y="-116.21686746987952" type="line"/>
      <point x="213.0" y="-116.21686746987952" type="line" smooth="yes"/>
      <point x="183.87951807228916" y="-116.21686746987952"/>
      <point x="172.93975903614458" y="-102.56626506024097"/>
      <point x="177.93975903614458" y="-71.1566265060241" type="curve" smooth="yes"/>
      <point x="213.24096385542168" y="157.95180722891567" type="line" smooth="yes"/>
      <point x="224.24096385542168" y="230.48192771084337"/>
      <point x="181.89156626506022" y="265.4698795180723"/>
      <point x="141.0120481927711" y="265.4698795180723" type="curve"/>
      <point x="141.48192771084337" y="261.4698795180723" type="line"/>
      <point x="182.36144578313252" y="261.4698795180723"/>
      <point x="236.12048192771084" y="294.5783132530121"/>
      <point x="247.12048192771084" y="367.578313253012" type="curve" smooth="yes"/>
      <point x="282.95180722891564" y="596.156626506024" type="line" smooth="yes"/>
      <point x="287.95180722891564" y="627.5662650602409"/>
      <point x="305.89156626506025" y="641.2168674698795"/>
      <point x="334.0120481927711" y="641.2168674698795" type="curve" smooth="yes"/>
      <point x="406.84337349397595" y="641.2168674698795" type="line"/>
      <point x="417.5421686746988" y="705.0" type="line"/>
      <point x="315.8072289156627" y="705.0" type="line" smooth="yes"/>
      <point x="252.28915662650604" y="705.0"/>
      <point x="214.24096385542168" y="670.2409638554217"/>
      <point x="203.36144578313252" y="603.0843373493976" type="curve" smooth="yes"/>
      <point x="167.06024096385542" y="375.7469879518072" type="line" smooth="yes"/>
      <point x="158.5301204819277" y="322.68674698795184"/>
      <point x="139.0" y="299.56626506024094"/>
      <point x="86.2289156626506" y="296.09638554216866" type="curve" smooth="yes"/>
      <point x="57.18072289156627" y="293.6867469879518" type="line"/>
      <point x="47.95180722891566" y="231.8433734939759" type="line"/>
      <point x="75.46987951807229" y="229.43373493975906" type="line" smooth="yes"/>
      <point x="128.710843373494" y="225.96385542168676"/>
      <point x="139.3012048192771" y="202.8433734939759"/>
      <point x="131.3012048192771" y="149.3132530120482" type="curve" smooth="yes"/>
      <point x="95.53012048192771" y="-78.08433734939759" type="line" smooth="yes"/>
      <point x="85.59036144578313" y="-141.13253012048193"/>
      <point x="119.10843373493977" y="-180.0"/>
    </contour>
  </outline>
</glyph>
<glyph name="bar" format="2">
  <advance width="265.144578313253"/>
  <unicode hex="007C"/>
  <outline>
    <contour>
      <point x="25.07228915662651" y="-180.0" type="line"/>
      <point x="106.07228915662651" y="-180.0" type="line"/>
      <point x="246.0722891566265" y="705.0" type="line"/>
      <point x="165.0722891566265" y="705.0" type="line"/>
    </contour>
  </outline>
</glyph>
<glyph name="braceright" format="2">
  <advance width="352.30120481927713"/>
  <unicode hex="007D"/>
  <outline>
    <contour>
      <point x="-59.24096385542168" y="-180.0" type="line"/>
      <point x="42.49397590361445" y="-180.0" type="line" smooth="yes"/>
      <point x="106.01204819277108" y="-180.0"/>
      <point x="144.06024096385542" y="-145.24096385542168"/>
      <point x="154.93975903614458" y="-78.08433734939759" type="curve" smooth="yes"/>
      <point x="191.24096385542168" y="149.25301204819277" type="line" smooth="yes"/>
      <point x="199.7710843373494" y="202.3132530120482"/>
      <point x="219.3012048192771" y="225.90361445783134"/>
      <point x="272.0722891566265" y="229.3734939759036" type="curve" smooth="yes"/>
      <point x="301.12048192771084" y="231.31325301204816" type="line"/>
      <point x="310.34939759036143" y="293.62650602409633" type="line"/>
      <point x="282.8313253012048" y="295.56626506024094" type="line" smooth="yes"/>
      <point x="229.59036144578312" y="299.0361445783132"/>
      <point x="219.0" y="322.6265060240964"/>
      <point x="227.0" y="375.6867469879518" type="curve" smooth="yes"/>
      <point x="262.7710843373494" y="603.0843373493976" type="line" smooth="yes"/>
      <point x="272.71084337349396" y="666.1325301204819"/>
      <point x="239.19277108433735" y="705.0"/>
      <point x="156.3855421686747" y="705.0" type="curve" smooth="yes"/>
      <point x="80.75903614457832" y="705.0" type="line"/>
      <point x="70.53012048192771" y="641.2168674698795" type="line"/>
      <point x="145.30120481927713" y="641.2168674698795" type="line" smooth="yes"/>
      <point x="174.42168674698794" y="641.2168674698795"/>
      <point x="185.36144578313252" y="627.5662650602409"/>
      <point x="180.36144578313252" y="596.156626506024" type="curve" smooth="yes"/>
      <point x="145.06024096385542" y="367.5180722891566" type="line" smooth="yes"/>
      <point x="134.06024096385542" y="294.51807228915663"/>
      <point x="176.40963855421685" y="260.0"/>
      <point x="217.289156626506" y="260.0" type="curve"/>
      <point x="216.81927710843374" y="264.0" type="line"/>
      <point x="175.93975903614458" y="264.0"/>
      <point x="122.18072289156626" y="230.42168674698794"/>
      <point x="111.18072289156626" y="157.42168674698794" type="curve" smooth="yes"/>
      <point x="75.34939759036145" y="-71.1566265060241" type="line" smooth="yes"/>
      <point x="70.34939759036145" y="-102.56626506024097"/>
      <point x="52.40963855421687" y="-116.21686746987952"/>
      <point x="24.289156626506024" y="-116.21686746987952" type="curve" smooth="yes"/>
      <point x="-49.01204819277108" y="-116.21686746987952" type="line"/>
    </contour>
  </outline>
</glyph>
<glyph name="asciitilde" format="2">
  <advance width="600.0"/>
  <unicode hex="007E"/>
  <outline>
    <contour>
      <point x="421.1807228915663" y="216.95180722891567" type="curve" smooth="yes"/>
      <point x="481.1807228915663" y="216.95180722891567"/>
      <point x="519.9397590361447" y="251.2409638554217"/>
      <point x="555.0" y="312.0602409638554" type="curve"/>
      <point x="508.8433734939759" y="342.8072289156627" type="line"/>
      <point x="486.8433734939759" y="305.39759036144574"/>
      <point x="459.2530120481928" y="277.09638554216866"/>
      <point x="415.3614457831325" y="277.09638554216866" type="curve" smooth="yes"/>
      <point x="385.65060240963857" y="277.09638554216866"/>
      <point x="357.12048192771084" y="293.6867469879518"/>
      <point x="322.0" y="313.33734939759034" type="curve" smooth="yes"/>
      <point x="284.5301204819277" y="333.92771084337346"/>
      <point x="238.46987951807228" y="357.51807228915663"/>
      <point x="192.34939759036146" y="357.51807228915663" type="curve" smooth="yes"/>
      <point x="132.34939759036143" y="357.51807228915663"/>
      <point x="93.59036144578313" y="323.2289156626506"/>
      <point x="59.0" y="261.9397590361446" type="curve"/>
      <point x="105.1566265060241" y="231.66265060240966" type="line"/>
      <point x="126.6867469879518" y="268.60240963855426"/>
      <point x="153.80722891566265" y="297.3734939759036"/>
      <point x="198.1686746987952" y="297.3734939759036" type="curve" smooth="yes"/>
      <point x="227.87951807228916" y="297.3734939759036"/>
      <point x="258.4698795180723" y="280.2530120481928"/>
      <point x="294.0602409638554" y="260.1325301204819" type="curve" smooth="yes"/>
      <point x="331.0602409638554" y="239.5421686746988"/>
      <point x="375.06024096385545" y="216.95180722891567"/>
    </contour>
  </outline>
</glyph>
<glyph name="exclamdown" format="2">
  <advance width="228.3855421686747"/>
  <unicode hex="00A1"/>
  <outline>
    <contour>
      <point x="-3.5060240963855445" y="-180.0" type="line"/>
      <point x="97.42168674698794" y="-180.0" type="line"/>
      <point x="148.44578313253012" y="301.3855421686747" type="line"/>
      <point x="98.42168674698794" y="301.3855421686747" type="line"/>
    </contour>
    <contour>
      <point x="85.3132530120482" y="384.3975903614458" type="line"/>
      <point x="187.67469879518072" y="384.3975903614458" type="line"/>
      <point x="203.8433734939759" y="486.34939759036143" type="line"/>
      <point x="101.48192771084338" y="486.34939759036143" type="line"/>
    </contour>
  </outline>
</glyph>
<glyph name="cent" format="2">
  <advance width="600.0"/>
  <unicode hex="00A2"/>
  <outline>
    <contour>
      <point x="220.3132530120482" y="-115.0" type="line"/>
      <point x="288.50602409638554" y="-115.0" type="line"/>
      <point x="308.9759036144578" y="13.168674698795181" type="line"/>
      <point x="291.33734939759034" y="-4.0602409638554215" type="line"/>
      <point x="345.50602409638554" y="-9.590361445783133"/>
      <point x="426.855421686747" y="9.349397590361447"/>
      <point x="471.6265060240964" y="51.71084337349397" type="curve"/>
      <point x="447.9277108433735" y="111.55421686746988" type="line"/>
      <point x="409.27710843373495" y="77.25301204819277"/>
      <point x="361.566265060241" y="61.19277108433735"/>
      <point x="318.9759036144578" y="61.19277108433735" type="curve" smooth="yes"/>
      <point x="213.72289156626505" y="61.19277108433735"/>
      <point x="173.42168674698794" y="120.67469879518073"/>
      <point x="173.42168674698794" y="207.63855421686745" type="curve" smooth="yes"/>
      <point x="173.42168674698794" y="313.13253012048193"/>
      <point x="224.3734939759036" y="426.09638554216866"/>
      <point x="358.33734939759034" y="426.09638554216866" type="curve" smooth="yes"/>
      <point x="413.04819277108436" y="426.09638554216866"/>
      <point x="457.04819277108436" y="409.0361445783132"/>
      <point x="491.22891566265065" y="374.73493975903614" type="curve"/>
      <point x="520.2168674698796" y="432.578313253012" type="line"/>
      <point x="487.33734939759034" y="466.2289156626506"/>
      <point x="430.8674698795181" y="489.34939759036143"/>
      <point x="369.86746987951807" y="491.87951807228916" type="curve"/>
      <point x="380.50602409638554" y="467.06024096385545" type="line"/>
      <point x="402.9759036144578" y="606.3493975903615" type="line"/>
      <point x="334.7831325301205" y="606.3493975903615" type="line"/>
      <point x="311.8433734939759" y="463.7710843373494" type="line"/>
      <point x="331.8915662650602" y="490.93975903614455" type="line"/>
      <point x="161.7710843373494" y="479.18072289156623"/>
      <point x="90.48192771084338" y="341.28915662650604"/>
      <point x="90.48192771084338" y="207.16867469879517" type="curve" smooth="yes"/>
      <point x="90.48192771084338" y="99.10843373493977"/>
      <point x="141.36144578313252" y="19.10843373493976"/>
      <point x="252.36144578313252" y="0.2891566265060237" type="curve"/>
      <point x="241.25301204819277" y="15.987951807228916" type="line"/>
    </contour>
  </outline>
</glyph>
<glyph name="sterling" format="2">
  <advance width="600.0"/>
  <unicode hex="00A3"/>
  <outline>
    <contour>
      <point x="10.240963855421683" y="0.0" type="line"/>
      <point x="515.0481927710844" y="0.0" type="line"/>
      <point x="526.2168674698795" y="70.01204819277109" type="line"/>
      <point x="200.66265060240963" y="70.01204819277109" type="line"/>
      <point x="241.0843373493976" y="323.2530120481928" type="line"/>
      <point x="420.86746987951807" y="323.2530120481928" type="line"/>
      <point x="430.6265060240964" y="383.6867469879518" type="line"/>
      <point x="250.8433734939759" y="383.6867469879518" type="line"/>
      <point x="271.0843373493976" y="513.6626506024096" type="line" smooth="yes"/>
      <point x="284.2048192771084" y="598.9759036144578"/>
      <point x="336.68674698795184" y="643.8072289156627"/>
      <point x="425.28915662650604" y="643.8072289156627" type="curve" smooth="yes"/>
      <point x="492.421686746988" y="643.8072289156627"/>
      <point x="543.5421686746987" y="622.0963855421687"/>
      <point x="585.3614457831326" y="572.3253012048193" type="curve"/>
      <point x="622.4578313253012" y="633.7590361445783" type="line"/>
      <point x="581.7590361445783" y="680.4096385542169"/>
      <point x="506.5903614457831" y="713.9397590361446"/>
      <point x="424.06024096385545" y="713.9397590361446" type="curve" smooth="yes"/>
      <point x="282.72289156626505" y="713.9397590361446"/>
      <point x="210.0843373493976" y="644.1204819277109"/>
      <point x="188.67469879518075" y="510.2530120481928" type="curve" smooth="yes"/>
      <point x="168.43373493975903" y="383.6867469879518" type="line"/>
      <point x="70.12048192771084" y="383.6867469879518" type="line"/>
      <point x="60.361445783132524" y="323.2530120481928" type="line"/>
      <point x="158.67469879518075" y="323.2530120481928" type="line"/>
      <point x="118.25301204819279" y="70.01204819277109" type="line"/>
      <point x="20.939759036144576" y="70.01204819277109" type="line"/>
    </contour>
  </outline>
</glyph>
<glyph name="currency" format="2">
  <advance width="600.0"/>
  <unicode hex="00A4"/>
  <outline>
    <contour>
      <point x="78.75903614457832" y="-25.759036144578314" type="line"/>
      <point x="152.289156626506" y="49.24096385542169" type="line"/>
      <point x="193.34939759036143" y="16.59036144578313"/>
      <point x="244.93975903614458" y="-3.0"/>
      <point x="301.06024096385545" y="-3.0" type="curve" smooth="yes"/>
      <point x="356.65060240963857" y="-3.0"/>
      <point x="407.71084337349396" y="16.06024096385542"/>
      <point x="448.2409638554217" y="49.18072289156626" type="curve"/>
      <point x="520.710843373494" y="-25.289156626506024" type="line"/>
      <point x="563.7590361445783" y="17.759036144578314" type="line"/>
      <point x="490.28915662650604" y="92.2289156626506" type="line"/>
      <point x="522.9397590361446" y="134.75903614457832"/>
      <point x="541.5301204819277" y="187.34939759036143"/>
      <point x="541.5301204819277" y="245.0" type="curve" smooth="yes"/>
      <point x="541.5301204819277" y="302.65060240963857"/>
      <point x="523.4096385542168" y="354.7710843373494"/>
      <point x="490.7590361445783" y="397.8313253012048" type="curve"/>
      <point x="564.2289156626506" y="471.7710843373494" type="line"/>
      <point x="519.7710843373494" y="516.6987951807229" type="line"/>
      <point x="447.8313253012048" y="441.7590361445783" type="line"/>
      <point x="406.7710843373494" y="474.4096385542169"/>
      <point x="356.1807228915663" y="493.0"/>
      <point x="301.06024096385545" y="493.0" type="curve" smooth="yes"/>
      <point x="245.40963855421685" y="493.0"/>
      <point x="193.289156626506" y="473.4096385542169"/>
      <point x="152.75903614457832" y="440.2289156626506" type="curve"/>
      <point x="78.75903614457832" y="515.7590361445783" type="line"/>
      <point x="36.24096385542169" y="472.71084337349396" type="line"/>
      <point x="109.7710843373494" y="397.1807228915663" type="line"/>
      <point x="78.18072289156626" y="355.1807228915663"/>
      <point x="60.12048192771084" y="302.06024096385545"/>
      <point x="60.12048192771084" y="245.0" type="curve" smooth="yes"/>
      <point x="60.12048192771084" y="188.40963855421685"/>
      <point x="79.18072289156626" y="134.81927710843374"/>
      <point x="109.7710843373494" y="93.28915662650603" type="curve"/>
      <point x="36.24096385542169" y="17.759036144578314" type="line"/>
    </contour>
    <contour>
      <point x="300.5301204819277" y="67.25301204819277" type="curve" smooth="yes"/>
      <point x="207.6867469879518" y="67.25301204819277"/>
      <point x="133.43373493975903" y="146.50602409638554"/>
      <point x="133.43373493975903" y="245.0" type="curve" smooth="yes"/>
      <point x="133.43373493975903" y="343.96385542168673"/>
      <point x="208.1566265060241" y="422.6867469879518"/>
      <point x="300.5301204819277" y="423.2168674698795" type="curve" smooth="yes"/>
      <point x="392.96385542168673" y="423.7469879518072"/>
      <point x="467.1566265060241" y="343.96385542168673"/>
      <point x="467.1566265060241" y="245.0" type="curve" smooth="yes"/>
      <point x="467.1566265060241" y="146.50602409638554"/>
      <point x="392.96385542168673" y="67.25301204819277"/>
    </contour>
  </outline>
</glyph>
<glyph name="yen" format="2">
  <advance width="600.0"/>
  <unicode hex="00A5"/>
  <outline>
    <contour>
      <point x="219.7951807228916" y="0.0" type="line"/>
      <point x="302.2048192771084" y="0.0" type="line"/>
      <point x="329.855421686747" y="174.90361445783134" type="line"/>
      <point x="516.4096385542168" y="174.90361445783134" type="line"/>
      <point x="526.1686746987951" y="235.33734939759037" type="line"/>
      <point x="340.0843373493976" y="235.33734939759037" type="line"/>
      <point x="354.32530120481925" y="327.72289156626505" type="line"/>
      <point x="540.8795180722892" y="327.72289156626505" type="line"/>
      <point x="550.6385542168674" y="388.1566265060241" type="line"/>
      <point x="391.0240963855422" y="388.1566265060241" type="line"/>
      <point x="389.0843373493976" y="374.10843373493975" type="line"/>
      <point x="677.8674698795181" y="705.0" type="line"/>
      <point x="580.6385542168675" y="705.0" type="line"/>
      <point x="308.0" y="389.72289156626505" type="line"/>
      <point x="329.10843373493975" y="389.72289156626505" type="line"/>
      <point x="155.0120481927711" y="705.0" type="line"/>
      <point x="68.13253012048193" y="705.0" type="line"/>
      <point x="254.32530120481928" y="374.10843373493975" type="line"/>
      <point x="256.26506024096386" y="388.1566265060241" type="line"/>
      <point x="95.12048192771084" y="388.1566265060241" type="line"/>
      <point x="85.36144578313252" y="327.72289156626505" type="line"/>
      <point x="271.9156626506024" y="327.72289156626505" type="line"/>
      <point x="257.67469879518075" y="235.33734939759037" type="line"/>
      <point x="70.65060240963855" y="235.33734939759037" type="line"/>
      <point x="60.891566265060234" y="174.90361445783134" type="line"/>
      <point x="247.44578313253015" y="174.90361445783134" type="line"/>
    </contour>
  </outline>
</glyph>
<glyph name="brokenbar" format="2">
  <advance width="265.144578313253"/>
  <unicode hex="00A6"/>
  <outline>
    <contour>
      <point x="112.60240963855422" y="372.0" type="line"/>
      <point x="193.60240963855424" y="372.0" type="line"/>
      <point x="246.60240963855424" y="705.0" type="line"/>
      <point x="165.60240963855424" y="705.0" type="line"/>
    </contour>
    <contour>
      <point x="25.60240963855422" y="-180.0" type="line"/>
      <point x="106.60240963855422" y="-180.0" type="line"/>
      <point x="159.60240963855424" y="153.46987951807228" type="line"/>
      <point x="78.60240963855422" y="153.46987951807228" type="line"/>
    </contour>
  </outline>
</glyph>
<glyph name="section" format="2">
  <advance width="544.6144578313254"/>
  <unicode hex="00A7"/>
  <outline>
    <contour>
      <point x="203.44578313253012" y="-188.93975903614458" type="curve" smooth="yes"/>
      <point x="323.5542168674699" y="-188.93975903614458"/>
      <point x="424.2530120481928" y="-114.81927710843374"/>
      <point x="424.2530120481928" y="0.10843373493976016" type="curve" smooth="yes"/>
      <point x="424.2530120481928" y="26.987951807228914"/>
      <point x="418.8433734939759" y="49.39759036144578"/>
      <point x="408.49397590361446" y="69.27710843373494" type="curve"/>
      <point x="406.0240963855422" y="54.51807228915663" type="line"/>
      <point x="462.72289156626505" y="90.92771084337349"/>
      <point x="495.0722891566265" y="145.98795180722894"/>
      <point x="495.0722891566265" y="204.50602409638554" type="curve" smooth="yes"/>
      <point x="495.0722891566265" y="264.44578313253015"/>
      <point x="456.5421686746988" y="315.3855421686747"/>
      <point x="378.89156626506025" y="361.56626506024094" type="curve" smooth="yes"/>
      <point x="281.73493975903614" y="418.73493975903614" type="line" smooth="yes"/>
      <point x="226.72289156626508" y="451.6265060240964"/>
      <point x="207.0722891566265" y="478.33734939759034"/>
      <point x="207.0722891566265" y="529.9397590361446" type="curve" smooth="yes"/>
      <point x="207.0722891566265" y="599.1325301204819"/>
      <point x="261.61445783132524" y="651.9156626506024"/>
      <point x="350.10843373493975" y="651.9156626506024" type="curve" smooth="yes"/>
      <point x="408.8192771084337" y="651.9156626506024"/>
      <point x="472.7590361445783" y="629.9156626506025"/>
      <point x="510.4578313253013" y="593.7951807228915" type="curve"/>
      <point x="538.9759036144578" y="648.3493975903614" type="line"/>
      <point x="490.92771084337346" y="693.9397590361447"/>
      <point x="422.6385542168675" y="713.9397590361446"/>
      <point x="348.1686746987952" y="713.9397590361446" type="curve" smooth="yes"/>
      <point x="228.06024096385542" y="713.9397590361446"/>
      <point x="127.36144578313252" y="639.3493975903615"/>
      <point x="127.36144578313252" y="525.8313253012049" type="curve" smooth="yes"/>
      <point x="127.36144578313252" y="499.48192771084337"/>
      <point x="132.3012048192771" y="478.0722891566265"/>
      <point x="141.18072289156626" y="458.13253012048193" type="curve"/>
      <point x="144.12048192771084" y="469.54216867469876" type="line"/>
      <point x="87.42168674698794" y="432.6024096385542"/>
      <point x="56.01204819277108" y="379.0120481927711"/>
      <point x="56.01204819277108" y="320.0240963855422" type="curve" smooth="yes"/>
      <point x="56.01204819277108" y="260.5542168674699"/>
      <point x="95.6024096385542" y="208.144578313253"/>
      <point x="169.66265060240966" y="162.96385542168676" type="curve" smooth="yes"/>
      <point x="269.87951807228916" y="103.20481927710843" type="line" smooth="yes"/>
      <point x="323.3614457831326" y="70.3132530120482"/>
      <point x="344.5421686746988" y="46.66265060240964"/>
      <point x="344.5421686746988" y="-5.409638554216867" type="curve" smooth="yes"/>
      <point x="344.5421686746988" y="-74.13253012048193"/>
      <point x="289.5301204819277" y="-126.91566265060241"/>
      <point x="201.03614457831327" y="-126.91566265060241" type="curve" smooth="yes"/>
      <point x="130.20481927710844" y="-126.91566265060241"/>
      <point x="69.56626506024097" y="-106.56626506024097"/>
      <point x="27.15662650602409" y="-67.44578313253011" type="curve"/>
      <point x="-5.240963855421686" y="-123.0" type="line"/>
      <point x="45.686746987951814" y="-165.40963855421685"/>
      <point x="115.79518072289156" y="-188.93975903614458"/>
    </contour>
    <contour>
      <point x="129.90361445783134" y="332.48192771084337" type="curve" smooth="yes"/>
      <point x="129.90361445783134" y="362.7228915662651"/>
      <point x="145.67469879518072" y="399.5542168674699"/>
      <point x="178.50602409638554" y="427.6144578313253" type="curve"/>
      <point x="166.74698795180723" y="425.7951807228916" type="line"/>
      <point x="183.3975903614458" y="399.3734939759036"/>
      <point x="210.75903614457832" y="377.54216867469876"/>
      <point x="247.3012048192771" y="354.1807228915663" type="curve" smooth="yes"/>
      <point x="331.86746987951807" y="304.48192771084337" type="line" smooth="yes"/>
      <point x="389.93975903614455" y="268.06024096385545"/>
      <point x="421.1807228915663" y="235.34939759036143"/>
      <point x="421.1807228915663" y="192.51807228915663" type="curve" smooth="yes"/>
      <point x="421.1807228915663" y="162.74698795180726"/>
      <point x="404.9397590361446" y="126.3855421686747"/>
      <point x="374.0481927710843" y="98.73493975903615" type="curve"/>
      <point x="385.39759036144574" y="97.14457831325302" type="line"/>
      <point x="368.7469879518072" y="123.03614457831326"/>
      <point x="342.3855421686747" y="143.86746987951807"/>
      <point x="304.8433734939759" y="167.75903614457832" type="curve" smooth="yes"/>
      <point x="216.6867469879518" y="220.51807228915663" type="line" smooth="yes"/>
      <point x="160.67469879518072" y="255.93975903614458"/>
      <point x="129.90361445783134" y="289.65060240963857"/>
    </contour>
  </outline>
</glyph>
<glyph name="copyright" format="2">
  <advance width="815.0"/>
  <unicode hex="00A9"/>
  <outline>
    <contour>
      <point x="425.0" y="-8.939759036144578" type="curve" smooth="yes"/>
      <point x="629.4698795180723" y="-8.939759036144578"/>
      <point x="785.9397590361446" y="148.53012048192772"/>
      <point x="785.9397590361446" y="353.0" type="curve" smooth="yes"/>
      <point x="785.9397590361446" y="557.4698795180723"/>
      <point x="629.4698795180723" y="713.9397590361446"/>
      <point x="425.0" y="713.9397590361446" type="curve" smooth="yes"/>
      <point x="219.53012048192772" y="713.9397590361446"/>
      <point x="63.06024096385542" y="557.4698795180723"/>
      <point x="63.06024096385542" y="353.0" type="curve" smooth="yes"/>
      <point x="63.06024096385542" y="148.53012048192772"/>
      <point x="220.06024096385542" y="-8.939759036144578"/>
    </contour>
    <contour>
      <point x="438.2289156626506" y="137.0" type="curve" smooth="yes"/>
      <point x="489.69879518072287" y="137.0"/>
      <point x="546.6385542168674" y="157.59036144578315"/>
      <point x="580.6385542168674" y="190.24096385542168" type="curve"/>
      <point x="556.5301204819277" y="242.97590361445782" type="line"/>
      <point x="521.7590361445783" y="210.67469879518072"/>
      <point x="480.04819277108436" y="196.6144578313253"/>
      <point x="441.4578313253012" y="196.6144578313253" type="curve" smooth="yes"/>
      <point x="354.2048192771084" y="196.6144578313253"/>
      <point x="301.7831325301205" y="257.2168674698795"/>
      <point x="301.7831325301205" y="354.5301204819277" type="curve" smooth="yes"/>
      <point x="301.7831325301205" y="452.3734939759036"/>
      <point x="354.2048192771084" y="508.855421686747"/>
      <point x="441.4578313253012" y="508.855421686747" type="curve" smooth="yes"/>
      <point x="480.04819277108436" y="508.855421686747"/>
      <point x="521.7590361445783" y="494.855421686747"/>
      <point x="556.5301204819277" y="463.0240963855422" type="curve"/>
      <point x="580.6385542168674" y="515.2289156626506" type="line"/>
      <point x="546.6385542168674" y="547.8795180722891"/>
      <point x="491.2289156626506" y="568.0"/>
      <point x="438.2289156626506" y="568.0" type="curve" smooth="yes"/>
      <point x="309.4698795180723" y="568.0"/>
      <point x="230.24096385542168" y="487.0"/>
      <point x="230.24096385542168" y="355.06024096385545" type="curve" smooth="yes"/>
      <point x="230.24096385542168" y="223.59036144578315"/>
      <point x="309.4698795180723" y="137.0"/>
    </contour>
    <contour>
      <point x="425.0" y="35.04819277108434" type="curve" smooth="yes"/>
      <point x="245.289156626506" y="35.04819277108434"/>
      <point x="108.98795180722891" y="172.75903614457832"/>
      <point x="108.98795180722891" y="353.0" type="curve" smooth="yes"/>
      <point x="108.98795180722891" y="533.2409638554217"/>
      <point x="245.289156626506" y="669.9518072289156"/>
      <point x="425.0" y="669.9518072289156" type="curve" smooth="yes"/>
      <point x="604.1807228915662" y="669.9518072289156"/>
      <point x="740.0120481927711" y="533.2409638554217"/>
      <point x="740.0120481927711" y="353.0" type="curve" smooth="yes"/>
      <point x="740.0120481927711" y="172.75903614457832"/>
      <point x="604.1807228915662" y="35.04819277108434"/>
    </contour>
  </outline>
</glyph>
<glyph name="ordfeminine" format="2">
  <advance width="326.8072289156627"/>
  <unicode hex="00AA"/>
  <outline>
    <contour>
      <point x="168.18072289156626" y="410.65060240963857" type="curve" smooth="yes"/>
      <point x="212.3012048192771" y="410.65060240963857"/>
      <point x="246.83132530120483" y="432.710843373494"/>
      <point x="269.30120481927713" y="470.06024096385545" type="curve"/>
      <point x="271.7710843373494" y="470.06024096385545" type="line"/>
      <point x="263.30120481927713" y="416.12048192771084" type="line"/>
      <point x="317.50602409638554" y="416.12048192771084" type="line"/>
      <point x="344.56626506024094" y="588.0120481927711" type="line" smooth="yes"/>
      <point x="356.56626506024094" y="664.421686746988"/>
      <point x="309.79518072289153" y="713.9397590361446"/>
      <point x="228.04819277108433" y="713.9397590361446" type="curve" smooth="yes"/>
      <point x="181.2289156626506" y="713.9397590361446"/>
      <point x="133.5301204819277" y="701.3493975903614"/>
      <point x="105.65060240963855" y="679.3493975903614" type="curve"/>
      <point x="122.53012048192771" y="638.6626506024096" type="line"/>
      <point x="154.93975903614458" y="659.722891566265"/>
      <point x="186.289156626506" y="668.843373493976"/>
      <point x="222.81927710843374" y="668.843373493976" type="curve" smooth="yes"/>
      <point x="269.0602409638554" y="668.843373493976"/>
      <point x="297.95180722891564" y="647.6626506024097"/>
      <point x="290.89156626506025" y="602.710843373494" type="curve" smooth="yes"/>
      <point x="279.89156626506025" y="533.710843373494" type="line" smooth="yes"/>
      <point x="272.8313253012048" y="487.7590361445783"/>
      <point x="226.289156626506" y="452.9277108433735"/>
      <point x="181.4578313253012" y="452.9277108433735" type="curve" smooth="yes"/>
      <point x="148.6867469879518" y="452.9277108433735"/>
      <point x="125.97590361445783" y="473.10843373493975"/>
      <point x="125.97590361445783" y="503.4096385542169" type="curve" smooth="yes"/>
      <point x="125.97590361445783" y="536.710843373494"/>
      <point x="158.09638554216866" y="550.8313253012049"/>
      <point x="245.710843373494" y="550.8313253012049" type="curve" smooth="yes"/>
      <point x="297.9518072289157" y="550.8313253012049" type="line"/>
      <point x="303.89156626506025" y="586.8795180722891" type="line"/>
      <point x="239.06024096385542" y="586.8795180722891" type="line" smooth="yes"/>
      <point x="123.0" y="586.8795180722891"/>
      <point x="68.83132530120481" y="560.4698795180723"/>
      <point x="68.83132530120481" y="500.5301204819277" type="curve" smooth="yes"/>
      <point x="68.83132530120481" y="450.5301204819277"/>
      <point x="111.7710843373494" y="410.65060240963857"/>
    </contour>
  </outline>
</glyph>
<glyph name="logicalnot" format="2">
  <advance width="600.0"/>
  <unicode hex="00AC"/>
  <outline>
    <contour>
      <point x="464.6265060240964" y="149.0120481927711" type="line"/>
      <point x="528.5903614457832" y="149.0120481927711" type="line"/>
      <point x="571.4096385542168" y="419.8072289156627" type="line"/>
      <point x="83.87951807228916" y="419.8072289156627" type="line"/>
      <point x="74.12048192771084" y="357.7831325301205" type="line"/>
      <point x="498.15662650602405" y="357.7831325301205" type="line"/>
    </contour>
  </outline>
</glyph>
<glyph name="degree" format="2">
  <advance width="371.04819277108436"/>
  <unicode hex="00B0"/>
  <outline>
    <contour>
      <point x="236.34939759036146" y="414.72289156626505" type="curve" smooth="yes"/>
      <point x="320.51807228915663" y="414.72289156626505"/>
      <point x="384.3373493975904" y="478.07228915662654"/>
      <point x="384.3373493975904" y="562.3614457831326" type="curve" smooth="yes"/>
      <point x="384.3373493975904" y="646.6506024096386"/>
      <point x="320.0481927710843" y="710.0"/>
      <point x="236.34939759036146" y="710.0" type="curve" smooth="yes"/>
      <point x="152.12048192771084" y="710.0"/>
      <point x="87.83132530120481" y="646.1204819277109"/>
      <point x="87.83132530120481" y="562.3614457831326" type="curve" smooth="yes"/>
      <point x="87.83132530120481" y="478.60240963855426"/>
      <point x="151.65060240963857" y="414.72289156626505"/>
    </contour>
    <contour>
      <point x="236.34939759036146" y="469.28915662650604" type="curve" smooth="yes"/>
      <point x="183.9879518072289" y="469.28915662650604"/>
      <point x="147.27710843373492" y="508.0"/>
      <point x="147.27710843373492" y="562.3614457831326" type="curve" smooth="yes"/>
      <point x="147.27710843373492" y="616.722891566265"/>
      <point x="183.9879518072289" y="655.433734939759"/>
      <point x="236.34939759036146" y="655.433734939759" type="curve" smooth="yes"/>
      <point x="288.71084337349396" y="655.433734939759"/>
      <point x="325.89156626506025" y="616.722891566265"/>
      <point x="325.89156626506025" y="562.3614457831326" type="curve" smooth="yes"/>
      <point x="325.89156626506025" y="508.0"/>
      <point x="288.71084337349396" y="469.28915662650604"/>
    </contour>
  </outline>
</glyph>
<glyph name="plusminus" format="2">
  <advance width="600.0"/>
  <unicode hex="00B1"/>
  <outline>
    <contour>
      <point x="250.19277108433735" y="127.33734939759036" type="line"/>
      <point x="314.15662650602405" y="127.33734939759036" type="line"/>
      <point x="340.8072289156626" y="297.3614457831325" type="line"/>
      <point x="553.0602409638554" y="297.3614457831325" type="line"/>
      <point x="562.8192771084338" y="359.3855421686747" type="line"/>
      <point x="351.56626506024094" y="359.3855421686747" type="line"/>
      <point x="377.7469879518072" y="529.4096385542168" type="line"/>
      <point x="313.7831325301205" y="529.4096385542168" type="line"/>
      <point x="287.6024096385542" y="359.3855421686747" type="line"/>
      <point x="74.81927710843374" y="359.3855421686747" type="line"/>
      <point x="65.06024096385542" y="297.3614457831325" type="line"/>
      <point x="276.84337349397595" y="297.3614457831325" type="line"/>
    </contour>
    <contour>
      <point x="18.0" y="0.0" type="line"/>
      <point x="506.0" y="0.0" type="line"/>
      <point x="515.289156626506" y="62.024096385542165" type="line"/>
      <point x="27.289156626506024" y="62.024096385542165" type="line"/>
    </contour>
  </outline>
</glyph>
<glyph name="micro" format="2">
  <advance width="600.0"/>
  <unicode hex="00B5"/>
  <outline>
    <contour>
      <point x="27.144578313253007" y="-180.0" type="line"/>
      <point x="108.144578313253" y="-180.0" type="line"/>
      <point x="138.9156626506024" y="57.72289156626506" type="line"/>
      <point x="132.73493975903614" y="56.19277108433735" type="line"/>
      <point x="151.91566265060243" y="13.240963855421688"/>
      <point x="193.80722891566265" y="-8.939759036144578"/>
      <point x="249.87951807228913" y="-8.939759036144578" type="curve" smooth="yes"/>
      <point x="326.2530120481928" y="-8.939759036144578"/>
      <point x="386.3855421686747" y="35.77108433734939"/>
      <point x="413.6265060240964" y="111.5421686746988" type="curve"/>
      <point x="406.3855421686747" y="111.5421686746988" type="line"/>
      <point x="388.7951807228916" y="0.0" type="line"/>
      <point x="467.855421686747" y="0.0" type="line"/>
      <point x="544.8554216867469" y="486.34939759036143" type="line"/>
      <point x="463.855421686747" y="486.34939759036143" type="line"/>
      <point x="422.32530120481925" y="223.28915662650604" type="line" smooth="yes"/>
      <point x="406.2048192771084" y="122.91566265060241"/>
      <point x="348.66265060240966" y="58.25301204819277"/>
      <point x="255.57831325301203" y="58.25301204819277" type="curve" smooth="yes"/>
      <point x="183.32530120481928" y="58.25301204819277"/>
      <point x="153.43373493975903" y="102.20481927710844"/>
      <point x="168.08433734939757" y="192.6987951807229" type="curve" smooth="yes"/>
      <point x="214.6144578313253" y="486.34939759036143" type="line"/>
      <point x="133.6144578313253" y="486.34939759036143" type="line"/>
    </contour>
  </outline>
</glyph>
<glyph name="paragraph" format="2">
  <advance width="587.9518072289156"/>
  <unicode hex="00B6"/>
  <outline>
    <contour>
      <point x="176.22891566265062" y="-180.0" type="line"/>
      <point x="241.25301204819277" y="-180.0" type="line"/>
      <point x="371.49397590361446" y="643.0361445783133" type="line"/>
      <point x="499.09638554216866" y="643.0361445783133" type="line"/>
      <point x="368.855421686747" y="-180.0" type="line"/>
      <point x="433.87951807228916" y="-180.0" type="line"/>
      <point x="573.8795180722891" y="705.0" type="line"/>
      <point x="309.289156626506" y="705.0" type="line" smooth="yes"/>
      <point x="175.42168674698797" y="705.0"/>
      <point x="83.66265060240964" y="613.7710843373494"/>
      <point x="83.66265060240964" y="480.84337349397595" type="curve" smooth="yes"/>
      <point x="83.66265060240964" y="385.32530120481925"/>
      <point x="147.36144578313255" y="310.09638554216866"/>
      <point x="253.46987951807228" y="310.09638554216866" type="curve"/>
    </contour>
  </outline>
</glyph>
<glyph name="periodcentered" format="2">
  <advance width="228.3855421686747"/>
  <unicode hex="00B7"/>
  <outline>
    <contour>
      <point x="58.662650602409634" y="214.96385542168676" type="line"/>
      <point x="161.02409638554218" y="214.96385542168676" type="line"/>
      <point x="177.19277108433735" y="317.3855421686747" type="line"/>
      <point x="74.83132530120483" y="317.3855421686747" type="line"/>
    </contour>
  </outline>
</glyph>
<glyph name="ordmasculine" format="2">
  <advance width="338.6867469879518"/>
  <unicode hex="00BA"/>
  <outline>
    <contour>
      <point x="213.57831325301206" y="411.5903614457831" type="curve" smooth="yes"/>
      <point x="297.7469879518072" y="411.5903614457831"/>
      <point x="365.50602409638554" y="474.12048192771084"/>
      <point x="365.50602409638554" y="574.5903614457832" type="curve" smooth="yes"/>
      <point x="365.50602409638554" y="659.4698795180723"/>
      <point x="307.8072289156627" y="713.9397590361446"/>
      <point x="226.1686746987952" y="713.9397590361446" type="curve" smooth="yes"/>
      <point x="142.0" y="713.9397590361446"/>
      <point x="74.24096385542168" y="651.4096385542168"/>
      <point x="74.24096385542168" y="550.9397590361446" type="curve" smooth="yes"/>
      <point x="74.24096385542168" y="466.0602409638554"/>
      <point x="131.93975903614458" y="411.5903614457831"/>
    </contour>
    <contour>
      <point x="214.57831325301206" y="457.1566265060241" type="curve" smooth="yes"/>
      <point x="165.09638554216866" y="457.1566265060241"/>
      <point x="132.32530120481928" y="490.4578313253012"/>
      <point x="132.32530120481928" y="549.9397590361446" type="curve" smooth="yes"/>
      <point x="132.32530120481928" y="626.9518072289156"/>
      <point x="170.15662650602408" y="668.3734939759036"/>
      <point x="225.1686746987952" y="668.3734939759036" type="curve" smooth="yes"/>
      <point x="274.6506024096386" y="668.3734939759036"/>
      <point x="307.421686746988" y="635.0722891566265"/>
      <point x="307.421686746988" y="575.5903614457832" type="curve" smooth="yes"/>
      <point x="307.421686746988" y="498.578313253012"/>
      <point x="269.5903614457832" y="457.1566265060241"/>
    </contour>
  </outline>
</glyph>
<glyph name="questiondown" format="2">
  <advance width="443.09638554216866"/>
  <unicode hex="00BF"/>
  <outline>
    <contour>
      <point x="149.98795180722894" y="-188.93975903614458" type="curve" smooth="yes"/>
      <point x="238.57831325301206" y="-188.93975903614458"/>
      <point x="323.45783132530124" y="-163.7590361445783"/>
      <point x="384.09638554216866" y="-109.75903614457832" type="curve"/>
      <point x="355.69879518072287" y="-46.036144578313255" type="line"/>
      <point x="296.6385542168675" y="-96.27710843373494"/>
      <point x="231.39759036144576" y="-116.4578313253012"/>
      <point x="159.9156626506024" y="-116.4578313253012" type="curve" smooth="yes"/>
      <point x="96.78313253012048" y="-116.4578313253012"/>
      <point x="61.89156626506025" y="-80.97590361445783"/>
      <point x="61.89156626506025" y="-33.903614457831324" type="curve" smooth="yes"/>
      <point x="61.89156626506025" y="17.168674698795183"/>
      <point x="96.8433734939759" y="53.12048192771084"/>
      <point x="150.79518072289156" y="97.13253012048193" type="curve" smooth="yes"/>
      <point x="227.74698795180723" y="158.26506024096386"/>
      <point x="253.3975903614458" y="203.85542168674698"/>
      <point x="264.9879518072289" y="275.8072289156627" type="curve" smooth="yes"/>
      <point x="269.3975903614458" y="302.26506024096386" type="line"/>
      <point x="217.7831325301205" y="302.26506024096386" type="line"/>
      <point x="210.9036144578313" y="279.44578313253015" type="line" smooth="yes"/>
      <point x="196.84337349397592" y="225.96385542168676"/>
      <point x="168.60240963855424" y="187.66265060240966"/>
      <point x="94.48192771084337" y="131.65060240963857" type="curve" smooth="yes"/>
      <point x="25.542168674698797" y="80.28915662650603"/>
      <point x="-22.10843373493976" y="25.759036144578314"/>
      <point x="-21.57831325301205" y="-46.71084337349398" type="curve" smooth="yes"/>
      <point x="-21.57831325301205" y="-125.53012048192771"/>
      <point x="45.06024096385542" y="-188.93975903614458"/>
    </contour>
    <contour>
      <point x="205.7951807228916" y="383.9277108433735" type="line"/>
      <point x="307.6265060240964" y="383.9277108433735" type="line"/>
      <point x="323.7951807228916" y="486.34939759036143" type="line"/>
      <point x="221.96385542168676" y="486.34939759036143" type="line"/>
    </contour>
  </outline>
</glyph>
<glyph name="AE" format="2">
  <advance width="981.3373493975904"/>
  <unicode hex="00C6"/>
  <anchor x="448.4698795180723" y="0.0" name="bottom"/>
  <anchor x="545.8795180722891" y="705.0" name="top"/>
  <outline>
    <contour>
      <point x="-54.85542168674699" y="0.0" type="line"/>
      <point x="37.373493975903614" y="0.0" type="line"/>
      <point x="189.6144578313253" y="202.3012048192771" type="line"/>
      <point x="153.57831325301206" y="179.96385542168676" type="line"/>
      <point x="544.3493975903615" y="179.96385542168676" type="line"/>
      <point x="517.8915662650602" y="204.18072289156626" type="line"/>
      <point x="528.3614457831325" y="0.0" type="line"/>
      <point x="892.3975903614457" y="0.0" type="line"/>
      <point x="903.6265060240963" y="68.60240963855422" type="line"/>
      <point x="570.4457831325301" y="68.60240963855422" type="line"/>
      <point x="599.2530120481928" y="41.144578313253014" type="line"/>
      <point x="583.2530120481928" y="345.1807228915663" type="line"/>
      <point x="558.3253012048192" y="323.43373493975906" type="line"/>
      <point x="923.1084337349397" y="323.43373493975906" type="line"/>
      <point x="933.8072289156626" y="392.03614457831327" type="line"/>
      <point x="553.9759036144578" y="392.03614457831327" type="line"/>
      <point x="582.2530120481928" y="369.7590361445783" type="line"/>
      <point x="565.722891566265" y="665.0963855421687" type="line"/>
      <point x="541.5060240963857" y="636.3975903614457" type="line"/>
      <point x="993.2289156626506" y="636.3975903614457" type="line"/>
      <point x="1003.9277108433735" y="705.0" type="line"/>
      <point x="485.6024096385542" y="705.0" type="line"/>
    </contour>
    <contour>
      <point x="493.8313253012048" y="607.5903614457832" type="line"/>
      <point x="495.8313253012048" y="607.5903614457832" type="line"/>
      <point x="516.4216867469879" y="227.34939759036143" type="line"/>
      <point x="533.7590361445783" y="248.56626506024097" type="line"/>
      <point x="203.0722891566265" y="248.56626506024097" type="line"/>
      <point x="209.19277108433735" y="228.6987951807229" type="line"/>
    </contour>
  </outline>
</glyph>
<glyph name="multiply" format="2">
  <advance width="600.0"/>
  <unicode hex="00D7"/>
  <outline>
    <contour>
      <point x="98.91566265060241" y="49.93975903614458" type="line"/>
      <point x="305.5301204819277" y="239.96385542168676" type="line"/>
      <point x="478.96385542168673" y="49.93975903614458" type="line"/>
      <point x="523.4096385542168" y="93.91566265060241" type="line"/>
      <point x="351.50602409638554" y="283.4096385542168" type="line"/>
      <point x="559.6506024096385" y="474.49397590361446" type="line"/>
      <point x="516.6144578313254" y="518.9397590361446" type="line"/>
      <point x="310.0" y="328.9156626506024" type="line"/>
      <point x="136.56626506024097" y="518.9397590361446" type="line"/>
      <point x="91.65060240963855" y="474.49397590361446" type="line"/>
      <point x="263.5542168674699" y="286.4698795180723" type="line"/>
      <point x="55.40963855421687" y="93.91566265060241" type="line"/>
    </contour>
  </outline>
</glyph>
<glyph name="Thorn" format="2">
  <advance width="633.855421686747"/>
  <unicode hex="00DE"/>
  <anchor x="285.4578313253012" y="0.0" name="bottom"/>
  <anchor x="396.9879518072289" y="705.0" name="top"/>
  <outline>
    <contour>
      <point x="48.60240963855422" y="0.0" type="line"/>
      <point x="131.0120481927711" y="0.0" type="line"/>
      <point x="155.6024096385542" y="154.4819277108434" type="line"/>
      <point x="357.86746987951807" y="154.4819277108434" type="line" smooth="yes"/>
      <point x="528.855421686747" y="154.4819277108434"/>
      <point x="621.0843373493976" y="244.89156626506025"/>
      <point x="621.0843373493976" y="388.8192771084337" type="curve" smooth="yes"/>
      <point x="621.0843373493976" y="513.289156626506"/>
      <point x="539.144578313253" y="577.9879518072289"/>
      <point x="395.33734939759034" y="577.9879518072289" type="curve" smooth="yes"/>
      <point x="222.95180722891564" y="577.9879518072289" type="line"/>
      <point x="243.0120481927711" y="705.0" type="line"/>
      <point x="160.60240963855424" y="705.0" type="line"/>
    </contour>
    <contour>
      <point x="166.3012048192771" y="222.61445783132532" type="line"/>
      <point x="211.72289156626505" y="509.855421686747" type="line"/>
      <point x="388.28915662650604" y="509.855421686747" type="line" smooth="yes"/>
      <point x="488.0120481927711" y="509.855421686747"/>
      <point x="539.4939759036145" y="470.9638554216868"/>
      <point x="539.4939759036145" y="383.12048192771084" type="curve" smooth="yes"/>
      <point x="539.4939759036145" y="278.6265060240964"/>
      <point x="477.89156626506025" y="222.61445783132532"/>
      <point x="362.8072289156627" y="222.61445783132532" type="curve" smooth="yes"/>
    </contour>
  </outline>
</glyph>
<glyph name="germandbls" format="2">
  <advance width="614.8313253012049"/>
  <unicode hex="00DF"/>
  <outline>
    <contour>
      <point x="378.66265060240966" y="-8.939759036144578" type="curve" smooth="yes"/>
      <point x="489.24096385542174" y="-8.939759036144578"/>
      <point x="567.3493975903614" y="46.40963855421687"/>
      <point x="567.3493975903614" y="141.33734939759037" type="curve" smooth="yes"/>
      <point x="567.3493975903614" y="212.27710843373495"/>
      <point x="522.7590361445782" y="248.6867469879518"/>
      <point x="442.04819277108436" y="277.2168674698795" type="curve" smooth="yes"/>
      <point x="376.68674698795184" y="299.33734939759034"/>
      <point x="352.1566265060241" y="321.578313253012"/>
      <point x="352.1566265060241" y="352.8192771084337" type="curve" smooth="yes"/>
      <point x="352.1566265060241" y="389.30120481927713"/>
      <point x="378.578313253012" y="410.5421686746988"/>
      <point x="427.51807228915663" y="448.30120481927713" type="curve" smooth="yes"/>
      <point x="483.7590361445783" y="492.83132530120486"/>
      <point x="519.5903614457831" y="528.3012048192771"/>
      <point x="519.5903614457831" y="593.6024096385543" type="curve" smooth="yes"/>
      <point x="519.5903614457831" y="659.2409638554217"/>
      <point x="461.1927710843374" y="713.9397590361446"/>
      <point x="365.09638554216866" y="713.9397590361446" type="curve" smooth="yes"/>
      <point x="214.5421686746988" y="713.9397590361446"/>
      <point x="136.66265060240963" y="629.8915662650603"/>
      <point x="113.78313253012048" y="483.14457831325296" type="curve" smooth="yes"/>
      <point x="37.60240963855422" y="0.0" type="line"/>
      <point x="118.6024096385542" y="0.0" type="line"/>
      <point x="196.19277108433735" y="491.07228915662654" type="line" smooth="yes"/>
      <point x="212.78313253012047" y="595.4939759036145"/>
      <point x="267.6746987951807" y="650.5060240963855"/>
      <point x="362.1566265060241" y="650.5060240963855" type="curve" smooth="yes"/>
      <point x="414.51807228915663" y="650.5060240963855"/>
      <point x="441.3493975903615" y="621.3253012048193"/>
      <point x="441.3493975903615" y="584.9036144578314" type="curve" smooth="yes"/>
      <point x="441.3493975903615" y="541.0120481927711"/>
      <point x="415.5783132530121" y="516.3614457831326"/>
      <point x="373.1566265060241" y="484.12048192771084" type="curve" smooth="yes"/>
      <point x="299.2048192771084" y="427.9397590361446"/>
      <point x="274.7951807228916" y="397.71084337349396"/>
      <point x="274.7951807228916" y="344.421686746988" type="curve" smooth="yes"/>
      <point x="274.7951807228916" y="287.3614457831325"/>
      <point x="306.73493975903614" y="252.01204819277106"/>
      <point x="395.9759036144578" y="221.42168674698794" type="curve" smooth="yes"/>
      <point x="470.3975903614458" y="196.3012048192771"/>
      <point x="490.4578313253012" y="168.93975903614458"/>
      <point x="490.4578313253012" y="135.04819277108436" type="curve" smooth="yes"/>
      <point x="490.4578313253012" y="82.855421686747"/>
      <point x="449.4457831325301" y="55.433734939759034"/>
      <point x="376.48192771084337" y="55.433734939759034" type="curve" smooth="yes"/>
      <point x="318.2409638554217" y="55.433734939759034"/>
      <point x="266.0120481927711" y="74.43373493975903"/>
      <point x="222.13253012048193" y="109.02409638554217" type="curve"/>
      <point x="189.73493975903614" y="53.46987951807229" type="line"/>
      <point x="230.5542168674699" y="16.53012048192771"/>
      <point x="301.31325301204816" y="-8.939759036144578"/>
    </contour>
  </outline>
</glyph>
<glyph name="ae" format="2">
  <advance width="860.7590361445783"/>
  <unicode hex="00E6"/>
  <anchor x="376.5301204819277" y="0.0" name="bottom"/>
  <anchor x="441.1807228915663" y="484.0" name="top"/>
  <outline>
    <contour>
      <point x="209.69879518072287" y="-8.939759036144578" type="curve" smooth="yes"/>
      <point x="301.87951807228916" y="-8.939759036144578"/>
      <point x="384.46987951807233" y="38.83132530120482"/>
      <point x="415.0" y="144.43373493975903" type="curve"/>
      <point x="388.9397590361446" y="144.43373493975903" type="line"/>
      <point x="408.6385542168675" y="47.89156626506024"/>
      <point x="484.57831325301197" y="-8.939759036144578"/>
      <point x="598.7590361445783" y="-8.939759036144578" type="curve" smooth="yes"/>
      <point x="669.4578313253012" y="-8.939759036144578"/>
      <point x="742.9277108433735" y="14.060240963855422"/>
      <point x="787.8072289156627" y="57.24096385542168" type="curve"/>
      <point x="761.5783132530121" y="112.20481927710843" type="line"/>
      <point x="717.4578313253013" y="72.90361445783132"/>
      <point x="665.4578313253012" y="56.373493975903614"/>
      <point x="603.3373493975904" y="56.373493975903614" type="curve" smooth="yes"/>
      <point x="493.144578313253" y="56.373493975903614"/>
      <point x="436.7831325301205" y="130.6867469879518"/>
      <point x="455.43373493975906" y="245.06024096385542" type="curve" smooth="yes"/>
      <point x="459.3734939759036" y="269.1686746987952" type="line" smooth="yes"/>
      <point x="472.49397590361446" y="350.7710843373494"/>
      <point x="523.9156626506024" y="435.2048192771084"/>
      <point x="632.1204819277109" y="435.2048192771084" type="curve" smooth="yes"/>
      <point x="733.6144578313252" y="435.2048192771084"/>
      <point x="766.855421686747" y="358.48192771084337"/>
      <point x="753.7349397590361" y="265.578313253012" type="curve"/>
      <point x="772.2650602409639" y="281.51807228915663" type="line"/>
      <point x="443.0240963855422" y="281.51807228915663" type="line"/>
      <point x="435.144578313253" y="228.0722891566265" type="line"/>
      <point x="817.3975903614459" y="228.0722891566265" type="line"/>
      <point x="820.8674698795181" y="250.77108433734938" type="line" smooth="yes"/>
      <point x="840.3975903614459" y="376.69879518072287"/>
      <point x="784.7590361445783" y="495.28915662650604"/>
      <point x="633.5903614457831" y="495.28915662650604" type="curve" smooth="yes"/>
      <point x="539.0481927710844" y="495.28915662650604"/>
      <point x="467.9277108433735" y="447.2168674698795"/>
      <point x="426.0481927710843" y="374.2048192771084" type="curve"/>
      <point x="456.9879518072289" y="374.2048192771084" type="line"/>
      <point x="443.93975903614455" y="452.86746987951807"/>
      <point x="388.4698795180723" y="495.28915662650604"/>
      <point x="294.7590361445783" y="495.28915662650604" type="curve" smooth="yes"/>
      <point x="222.59036144578315" y="495.28915662650604"/>
      <point x="146.0120481927711" y="472.8192771084337"/>
      <point x="98.13253012048193" y="438.34939759036143" type="curve"/>
      <point x="121.3012048192771" y="377.9156626506024" type="line"/>
      <point x="172.7710843373494" y="413.50602409638554"/>
      <point x="226.12048192771084" y="429.50602409638554"/>
      <point x="286.1807228915663" y="429.50602409638554" type="curve" smooth="yes"/>
      <point x="370.2530120481928" y="429.50602409638554"/>
      <point x="403.55421686746985" y="388.08433734939763"/>
      <point x="390.3734939759036" y="304.06024096385545" type="curve" smooth="yes"/>
      <point x="370.8433734939759" y="183.40963855421685" type="line" smooth="yes"/>
      <point x="356.1927710843373" y="96.44578313253012"/>
      <point x="291.289156626506" y="52.55421686746988"/>
      <point x="219.27710843373492" y="52.55421686746988" type="curve" smooth="yes"/>
      <point x="166.91566265060243" y="52.55421686746988"/>
      <point x="121.84337349397589" y="83.855421686747"/>
      <point x="121.84337349397589" y="141.63855421686748" type="curve" smooth="yes"/>
      <point x="121.84337349397589" y="206.36144578313252"/>
      <point x="172.32530120481928" y="228.0722891566265"/>
      <point x="326.3734939759036" y="228.0722891566265" type="curve" smooth="yes"/>
      <point x="387.2530120481928" y="228.0722891566265" type="line"/>
      <point x="395.13253012048193" y="281.51807228915663" type="line"/>
      <point x="314.6024096385542" y="281.51807228915663" type="line" smooth="yes"/>
      <point x="123.01204819277109" y="281.51807228915663"/>
      <point x="39.60240963855422" y="239.2289156626506"/>
      <point x="39.60240963855422" y="137.28915662650604" type="curve" smooth="yes"/>
      <point x="39.60240963855422" y="45.18072289156627"/>
      <point x="121.65060240963857" y="-8.939759036144578"/>
    </contour>
  </outline>
</glyph>
